<svg xmlns="http://www.w3.org/2000/svg" viewBox="0 0 34.98 31.47"><defs><style>.cls-1{fill:#f4d03f;}</style></defs><title>caution</title><g id="Layer_2" data-name="Layer 2"><g id="Layer_2-2" data-name="Layer 2"><path class="cls-1" d="M34.37,26.57S32,22,27.68,14.41c-2.82-4.88-2.61-4.3-7.59-12.56-1.48-2.45-3.77-2.48-5.2,0,0,0-4.08,6-8.2,13.11C3.4,20.63.61,26.57.61,26.57-.82,29,.35,31,3.21,31c0,0,4.41.44,14.28.44S31.77,31,31.77,31C34.63,31,35.8,29,34.37,26.57ZM17.46,24.93a2.08,2.08,0,1,1,2.08-2.07A2.07,2.07,0,0,1,17.46,24.93ZM19.89,11l-.56,6.79a1.9,1.9,0,0,1-1.7,1.83,2,2,0,0,1-1.75-1.85L15.09,11a1.58,1.58,0,0,1,1.64-1.8h1.46A1.63,1.63,0,0,1,19.89,11Z"/></g></g></svg>