<svg xmlns="http://www.w3.org/2000/svg" viewBox="0 0 72.64 32.96"><defs><style>.cls-1{fill:#fff;}</style></defs><title>Asset 1</title><g id="Layer_2" data-name="Layer 2"><g id="_360_Home_page" data-name="360 Home page"><path class="cls-1" d="M72.64,30.35A2.61,2.61,0,1,1,70,27.74,2.61,2.61,0,0,1,72.64,30.35Z"/><path class="cls-1" d="M55.05,0a9.52,9.52,0,0,0-9.52,9.52V23.34a9.52,9.52,0,1,0,19,0V9.52A9.52,9.52,0,0,0,55.05,0Zm4.3,23.34a4.3,4.3,0,0,1-8.6,0V9.52a4.3,4.3,0,0,1,8.6,0Z"/><path class="cls-1" d="M9.52,19a2.61,2.61,0,0,1,0-5.22h0a4.3,4.3,0,0,0,0-8.6h0A2.61,2.61,0,0,1,9.52,0a9.52,9.52,0,0,1,6.55,16.43h0A9.52,9.52,0,1,1,0,23.34a2.61,2.61,0,0,1,5.22,0A4.3,4.3,0,1,0,9.52,19Z"/><path class="cls-1" d="M5.22,9.52A2.61,2.61,0,1,1,2.61,6.91,2.61,2.61,0,0,1,5.22,9.52Z"/><path class="cls-1" d="M32.26,13.82a9.41,9.41,0,0,0-4.3,1V9.52a4.3,4.3,0,0,1,8.6,0h0a2.61,2.61,0,0,0,5.22,0,9.52,9.52,0,0,0-19,0V23.34a9.52,9.52,0,1,0,9.52-9.52Zm0,13.82a4.3,4.3,0,1,1,4.3-4.3A4.31,4.31,0,0,1,32.26,27.64Z"/></g></g></svg>