<svg xmlns="http://www.w3.org/2000/svg" viewBox="0 0 42.55 42.55"><defs><style>.cls-1{fill:#333;}</style></defs><title>Asset 8</title><g id="Layer_2" data-name="Layer 2"><g id="Layer_2-2" data-name="Layer 2"><path class="cls-1" d="M27.46,15.09c0-3.1-.05-6.2-.16-9.29a6,6,0,0,0-12.06,0c-.1,3.09-.11,6.19-.15,9.29-3.1,0-6.2.05-9.29.15a6,6,0,0,0,0,12.06c3.09.11,6.19.12,9.29.16,0,3.09.05,6.19.15,9.29a6,6,0,0,0,12.06,0c.11-3.1.12-6.19.16-9.29,3.1,0,6.19-.05,9.29-.16a6,6,0,0,0,0-12.06c-3.1-.1-6.19-.11-9.29-.15"/></g></g></svg>