<?xml version="1.0" encoding="utf-8"?>
<!-- Generator: Adobe Illustrator 16.0.0, SVG Export Plug-In . SVG Version: 6.00 Build 0)  -->
<!DOCTYPE svg PUBLIC "-//W3C//DTD SVG 1.1//EN" "http://www.w3.org/Graphics/SVG/1.1/DTD/svg11.dtd">
<svg version="1.1" id="Layer_1" xmlns="http://www.w3.org/2000/svg" xmlns:xlink="http://www.w3.org/1999/xlink" x="0px" y="0px"
	 width="1400px" height="1980px" viewBox="3356 0 1400 1980" enable-background="new 3356 0 1400 1980" xml:space="preserve">
<path fill="#F14950" d="M4513.216,480.225L4274.05,241.059c-28.38-28.518-66.985-44.502-107.217-44.392h-402.5
	c-115.979,0-210,94.021-210,210v816.667c0,115.98,94.021,210,210,210h583.333c115.98,0,210-94.02,210-210V587.5
	C4557.783,547.238,4541.775,508.604,4513.216,480.225z M4419.666,1223.333c0,39.701-32.299,72-72,72h-583.333
	c-39.701,0-72-32.299-72-72V406.667c0-39.701,32.299-72,72-72h402.5c3.655,0,7.088,1.421,9.67,4.003l239.055,239.055
	c2.622,2.666,4.079,6.184,4.108,9.921V1223.333z"/>
<path fill="#F14950" d="M4398.588,820.096l-0.057-0.351c-0.575-3.374-1.478-6.709-2.685-9.922c-0.489-1.707-1.068-3.398-1.721-5.033
	l-0.444-1.117l-0.577-1.056c-0.518-0.948-1.096-1.886-1.761-2.858l-0.953-1.618c-35.155-59.674-85.521-108.985-145.652-142.601
	c-58.338-32.613-124.5-49.852-191.334-49.852c-69.397,0-137.854,18.718-197.966,54.131c-56.866,33.5-104.646,81.246-138.183,138.086
	l-0.4,0.644c-0.068,0.097-0.144,0.201-0.214,0.299c-0.565,0.788-1.42,1.979-2.282,3.489l-0.676,1.183l-0.511,1.267
	c-0.595,1.478-1.128,2.996-1.589,4.523c-1.303,3.085-2.319,6.305-3.027,9.585l-0.141,0.654l-0.098,0.665
	c-0.916,6.256-0.916,12.601-0.002,18.848l0.1,0.686l0.146,0.67c0.707,3.26,1.722,6.468,3.018,9.546
	c0.461,1.53,0.996,3.053,1.594,4.536l0.51,1.268l0.678,1.184c0.279,0.488,0.575,0.975,0.896,1.471l1.568,2.663
	c35.153,59.673,85.521,108.982,145.653,142.598c58.334,32.611,124.496,49.851,191.333,49.854h0.018
	c69.385,0,137.835-18.718,197.949-54.131c56.942-33.547,104.773-81.378,138.32-138.322l1.068-1.813
	c0.545-0.803,1.022-1.564,1.458-2.326l0.69-1.209l0.52-1.301c0.6-1.505,1.137-3.056,1.599-4.617
	c1.257-3.021,2.243-6.167,2.931-9.355l0.143-0.658l0.095-0.652C4399.53,832.861,4399.53,826.481,4398.588,820.096z
	 M4053.518,943.517h-0.026c-89.303-0.305-172.567-42.743-225.31-114.187c52.669-71.571,136.013-113.901,225.586-113.901
	c55.066,0,108.526,16.183,154.598,46.798c27.402,18.209,51.046,40.741,70.435,67.1
	C4226.073,900.739,4142.848,943.174,4053.518,943.517z"/>
<path fill="#F14950" d="M4053.555,727.875h-0.055c-56.172,0.06-101.66,45.644-101.602,101.816
	c0.06,56.172,45.645,101.661,101.816,101.602c56.132-0.059,101.601-45.579,101.601-101.709
	C4155.257,773.415,4109.723,727.903,4053.555,727.875z M4053.53,855.541h-0.038c-14.335,0-25.957-11.622-25.957-25.958
	s11.622-25.957,25.957-25.957c14.336,0,25.957,11.621,25.957,25.957C4079.428,843.896,4067.842,855.499,4053.53,855.541z"/>
</svg>
