<?xml version="1.0" encoding="utf-8"?>
<!-- Generator: Adobe Illustrator 16.0.0, SVG Export Plug-In . SVG Version: 6.00 Build 0)  -->
<!DOCTYPE svg PUBLIC "-//W3C//DTD SVG 1.1//EN" "http://www.w3.org/Graphics/SVG/1.1/DTD/svg11.dtd">
<svg version="1.1" id="Layer_1" xmlns="http://www.w3.org/2000/svg" xmlns:xlink="http://www.w3.org/1999/xlink" x="0px" y="0px"
	 width="1400px" height="1980px" viewBox="1676 0 1400 1980" enable-background="new 1676 0 1400 1980" xml:space="preserve">
<path fill="#8CC63F" d="M2833.216,480.225L2594.05,241.059c-28.38-28.518-66.985-44.502-107.217-44.392h-402.5
	c-115.979,0-210,94.021-210,210l0,0v816.667c0,115.98,94.021,210,210,210l0,0h583.333c115.98,0,210-94.02,210-210l0,0V587.5
	C2877.783,547.238,2861.776,508.604,2833.216,480.225z"/>
<path fill="#8CC63F" d="M2084.333,1295.333c-39.701,0-72-32.299-72-72V406.667c0-39.701,32.299-72,72-72h402.5
	c3.655,0,7.088,1.421,9.67,4.003l239.055,239.055c2.622,2.666,4.079,6.184,4.108,9.921v635.688c0,39.701-32.299,72-72,72H2084.333z"
	/>
<path fill="#FFFFFF" d="M2373.812,1053.537c-66.837-0.004-132.999-17.243-191.333-49.854
	c-60.133-33.615-110.5-82.925-145.653-142.598l-1.568-2.663c-0.32-0.496-0.616-0.983-0.896-1.471l-0.678-1.184l-0.51-1.268
	c-0.598-1.483-1.133-3.006-1.594-4.536c-1.296-3.078-2.311-6.287-3.018-9.546l-0.146-0.67l-0.1-0.686
	c-0.914-6.247-0.914-12.592,0.002-18.848l0.098-0.665l0.141-0.654c0.708-3.28,1.725-6.5,3.027-9.585
	c0.461-1.527,0.994-3.045,1.589-4.523l0.511-1.267l0.676-1.183c0.862-1.51,1.717-2.701,2.282-3.489
	c0.07-0.098,0.146-0.203,0.214-0.299l0.4-0.644c33.537-56.84,81.316-104.586,138.183-138.086
	c60.112-35.413,128.568-54.131,197.966-54.131c66.834,0,132.996,17.238,191.334,49.852
	c60.132,33.616,110.497,82.926,145.652,142.601l0.953,1.618c0.665,0.972,1.243,1.91,1.761,2.858l0.577,1.056l0.444,1.117
	c0.652,1.635,1.231,3.327,1.721,5.033c1.207,3.213,2.109,6.549,2.685,9.922l0.057,0.351c0.942,6.385,0.942,12.765,0.014,19.056
	l-0.095,0.652l-0.143,0.658c-0.688,3.188-1.674,6.335-2.931,9.355c-0.462,1.562-0.999,3.112-1.599,4.617l-0.52,1.301l-0.69,1.209
	c-0.436,0.762-0.913,1.523-1.458,2.326l-1.068,1.813c-33.547,56.944-81.378,104.774-138.32,138.322
	c-60.114,35.413-128.563,54.131-197.949,54.131H2373.812z"/>
<path fill="#8CC63F" d="M2373.491,943.517c-89.303-0.305-172.567-42.743-225.31-114.187
	c52.669-71.571,136.013-113.901,225.586-113.901c55.066,0,108.526,16.183,154.599,46.798c27.402,18.209,51.046,40.741,70.435,67.1
	c-52.728,71.412-135.953,113.847-225.283,114.189H2373.491z"/>
<path fill="#FFFFFF" d="M2373.5,727.875c-56.172,0.06-101.66,45.644-101.602,101.816c0.06,56.172,45.645,101.661,101.816,101.602
	c56.132-0.059,101.602-45.579,101.602-101.709c-0.06-56.168-45.594-101.68-101.762-101.708H2373.5z"/>
<path fill="#8CC63F" d="M2373.491,855.541c-14.335,0-25.957-11.622-25.957-25.958s11.622-25.957,25.957-25.957
	c14.336,0,25.957,11.621,25.957,25.957c-0.021,14.313-11.606,25.916-25.919,25.958H2373.491z"/>
</svg>
