<?xml version="1.0" encoding="utf-8"?>
<!-- Generator: Adobe Illustrator 23.0.3, SVG Export Plug-In . SVG Version: 6.00 Build 0)  -->
<svg version="1.1" xmlns="http://www.w3.org/2000/svg" xmlns:xlink="http://www.w3.org/1999/xlink" x="0px" y="0px"
	 viewBox="0 0 429.25 164" style="enable-background:new 0 0 429.25 164;" xml:space="preserve">
<style type="text/css">
	.st0{fill:#F2F2F2;}
	.st1{fill:#F9F9F9;}
	.st2{fill:#FFFFFF;}
	.st3{fill:#1A1A1A;}
	.st4{fill:url(#SVGID_1_);}
	.st5{fill:#D4145A;}
	.st6{fill:url(#SVGID_2_);}
	.st7{fill:url(#SVGID_3_);}
	.st8{opacity:0.8;}
	.st9{opacity:0.55;}
	.st10{opacity:0.5;fill:url(#SVGID_4_);}
	.st11{opacity:0.5;}
	.st12{opacity:0.3;fill:url(#SVGID_5_);}
	.st13{opacity:0.4;fill:url(#SVGID_6_);}
	.st14{fill:url(#SVGID_7_);}
	.st15{fill:url(#SVGID_8_);}
	.st16{opacity:0.5;fill:url(#SVGID_9_);}
	.st17{opacity:0.3;fill:url(#SVGID_10_);}
	.st18{opacity:0.4;fill:url(#SVGID_11_);}
	.st19{fill:#E6E6E6;}
	.st20{fill:#CCCCCC;}
	.st21{opacity:0.5;fill:url(#SVGID_12_);}
	.st22{opacity:0.5;fill:url(#SVGID_13_);}
	.st23{opacity:0.6;fill:url(#SVGID_14_);}
	.st24{fill:url(#SVGID_15_);}
	.st25{fill:#333333;}
	.st26{opacity:0.5;fill:url(#SVGID_16_);}
	.st27{opacity:0.3;fill:url(#SVGID_17_);}
	.st28{opacity:0.4;fill:url(#SVGID_18_);}
	.st29{fill:url(#SVGID_19_);}
	.st30{fill:url(#SVGID_20_);}
	.st31{fill:url(#SVGID_21_);}
	.st32{opacity:0.3;fill:url(#SVGID_22_);}
	.st33{opacity:0.4;fill:url(#SVGID_23_);}
	.st34{fill:url(#SVGID_24_);}
	.st35{fill:url(#SVGID_25_);}
	.st36{fill:#D62062;}
	.st37{fill:#D82C6B;}
	.st38{fill:#DA3773;}
	.st39{fill:#DD437B;}
	.st40{fill:#DF4F83;}
	.st41{fill:#E15B8C;}
	.st42{fill:#E36694;}
	.st43{fill:#E5729C;}
	.st44{fill:#E77EA4;}
	.st45{fill:#E98AAD;}
	.st46{fill:#EB95B5;}
	.st47{fill:#EEA1BD;}
	.st48{fill:#F0ADC5;}
	.st49{fill:#F2B9CD;}
	.st50{fill:#F4C4D6;}
	.st51{fill:#F6D0DE;}
	.st52{fill:#C71354;}
	.st53{fill:#BA124F;}
	.st54{fill:#AC1049;}
	.st55{fill:#9F0F44;}
	.st56{fill:#920E3E;}
	.st57{fill:#850D38;}
	.st58{fill:#770B33;}
	.st59{fill:#6A0A2D;}
	.st60{fill:#5D0927;}
	.st61{fill:#500822;}
	.st62{fill:#42061C;}
	.st63{fill:#350517;}
	.st64{fill:#280411;}
	.st65{fill:#1B030B;}
	.st66{fill:#0D0106;}
	.st67{opacity:0.6;fill:#D9316E;}
	.st68{fill:#E5719B;}
	.st69{fill:#9D204D;}
	.st70{fill:#EEA5BF;}
	.st71{fill:#A65472;}
	.st72{fill:#CB5E85;}
	.st73{fill:#E679A1;}
	.st74{opacity:0.6;fill:#E988AB;}
	.st75{fill:#E15F8E;}
	.st76{opacity:0.8392;fill:#DE4A7F;}
	.st77{fill:#C53F70;}
	.st78{fill:#F6D0DE;stroke:#42061C;stroke-width:2;stroke-linecap:round;stroke-linejoin:round;stroke-miterlimit:10;}
	.st79{opacity:0.6;fill:none;stroke:#D9316E;stroke-linecap:round;stroke-linejoin:round;stroke-miterlimit:10;}
	.st80{opacity:0.6;fill:none;stroke:#E988AB;stroke-linecap:round;stroke-linejoin:round;stroke-miterlimit:10;}
	.st81{opacity:0.5;fill:none;stroke:#000000;stroke-width:0.5;stroke-miterlimit:10;}
	.st82{fill:none;stroke:#000000;stroke-width:0.5;stroke-miterlimit:10;}
	.st83{fill:none;stroke:#D4145A;stroke-width:0.75;stroke-linecap:round;stroke-miterlimit:10;stroke-dasharray:2.4055,2.4055;}
	.st84{fill:none;stroke:#D4145A;stroke-width:0.75;stroke-linecap:round;stroke-miterlimit:10;stroke-dasharray:2.6651,2.6651;}
	.st85{fill:#F6D0DE;stroke:#E679A1;stroke-linecap:round;stroke-linejoin:round;stroke-miterlimit:10;}
	.st86{fill:none;stroke:#42061C;stroke-width:2.4;stroke-linecap:round;stroke-linejoin:round;stroke-miterlimit:10;}
	.st87{fill:none;stroke:#D4145A;stroke-width:0.75;stroke-linecap:round;stroke-miterlimit:10;stroke-dasharray:2.4924,2.4924;}
	.st88{display:none;}
	.st89{display:inline;opacity:0.2;}
	.st90{fill:none;}
	.st91{fill:#DC3F78;}
	.st92{clip-path:url(#SVGID_27_);fill:url(#SVGID_28_);}
	.st93{opacity:0.5;fill:url(#SVGID_29_);}
	.st94{opacity:0.3;clip-path:url(#SVGID_31_);fill:url(#SVGID_32_);}
	.st95{opacity:0.4;clip-path:url(#SVGID_31_);fill:url(#SVGID_33_);}
	.st96{fill:#D31C5B;}
	.st97{fill:url(#SVGID_34_);}
	.st98{clip-path:url(#SVGID_36_);fill:url(#SVGID_37_);}
	.st99{clip-path:url(#SVGID_41_);}
	.st100{clip-path:url(#SVGID_49_);}
	.st101{fill:url(#SVGID_76_);}
	.st102{clip-path:url(#SVGID_78_);fill:url(#SVGID_79_);}
	.st103{clip-path:url(#SVGID_81_);}
	.st104{opacity:0.3;fill:url(#SVGID_82_);}
	.st105{opacity:0.4;fill:url(#SVGID_83_);}
	.st106{clip-path:url(#SVGID_85_);}
	.st107{opacity:0.7;fill:url(#SVGID_86_);}
	.st108{fill:url(#SVGID_87_);}
	.st109{clip-path:url(#SVGID_89_);fill:url(#SVGID_90_);}
	.st110{clip-path:url(#SVGID_92_);}
	.st111{opacity:0.3;fill:url(#SVGID_93_);}
	.st112{opacity:0.4;fill:url(#SVGID_94_);}
	.st113{clip-path:url(#SVGID_96_);}
	.st114{opacity:0.7;fill:url(#SVGID_97_);}
</style>
<g id="Layer_1">
</g>
<g id="Layer_5">
</g>
<g id="Orginal__x22_D_x22_" class="st88">
</g>
<g id="Altered">
</g>
<g id="Compiled">
	<g>
		<g>
			<path class="st2" d="M407.29,0H287.22c-12.13,0-21.97,9.84-21.97,21.97v120.07c0,12.13,9.84,21.97,21.97,21.97h120.07
				c12.13,0,21.97-9.84,21.97-21.97V21.97C429.25,9.84,419.42,0,407.29,0z M360.51,112.46c0,1.4-0.79,2.19-2.19,2.19h-8.76
				c-1.4,0-2.18-0.79-2.18-2.19v-3.13c-2.93,3.34-7.19,5.32-13.05,5.32c-11.47,0-20.93-10.07-20.93-23.12s9.46-23.12,20.93-23.12
				c5.86,0,10.12,1.98,13.05,5.32V51.17c0-1.4,0.78-2.19,2.18-2.19h8.76c1.4,0,2.19,0.79,2.19,2.19V112.46z M382.48,112.44
				c0,1.42-0.8,2.22-2.22,2.22h-8.87c-1.42,0-2.22-0.8-2.22-2.22v-7.99c0-1.42,0.8-2.21,2.22-2.21h8.87c1.42,0,2.22,0.8,2.22,2.21
				V112.44z"/>
			<path class="st2" d="M336.95,80.85c-6.04,0-10.42,4.12-10.42,10.68c0,6.57,4.38,10.68,10.42,10.68c4.26,0,7.69-2.04,9.35-5.55
				V86.4C344.64,82.89,341.21,80.85,336.95,80.85z"/>
		</g>
		<g>
			<path class="st2" d="M235.94,58.64h0.68c0.2,0,0.36,0.05,0.48,0.16c0.11,0.1,0.17,0.25,0.17,0.43c0,0.18-0.06,0.33-0.18,0.47
				c-0.12,0.13-0.26,0.2-0.41,0.2h-0.73V58.64z M235.22,63.03h0.25c0.31,0,0.47-0.08,0.47-0.25v-1.87h0.3c0.23,0,0.4,0.03,0.5,0.1
				c0.1,0.07,0.19,0.19,0.28,0.35l0.61,1.5c0.04,0.11,0.2,0.17,0.45,0.17h0.32c0.3,0,0.45-0.05,0.45-0.15l-0.04-0.15l-0.68-1.7
				c-0.13-0.34-0.32-0.56-0.56-0.67V60.3c0.6-0.24,0.91-0.65,0.91-1.23c0-0.96-0.64-1.45-1.92-1.45h-1.5c-0.2,0-0.3,0.1-0.3,0.3
				v4.85C234.75,62.95,234.91,63.03,235.22,63.03z M236.5,56.31c1.12,0,2.08,0.39,2.87,1.19c0.79,0.79,1.19,1.74,1.19,2.86
				c0,1.12-0.4,2.08-1.19,2.87c-0.79,0.79-1.75,1.19-2.87,1.19c-1.12,0-2.07-0.4-2.86-1.19c-0.79-0.79-1.18-1.74-1.18-2.87
				c0-1.12,0.39-2.07,1.18-2.86C234.43,56.7,235.38,56.31,236.5,56.31z M236.5,65.29c1.36,0,2.52-0.48,3.49-1.45
				c0.97-0.96,1.45-2.13,1.45-3.49c0-1.36-0.48-2.52-1.45-3.48c-0.96-0.97-2.12-1.45-3.49-1.45c-1.36,0-2.52,0.48-3.48,1.45
				c-0.96,0.96-1.45,2.13-1.45,3.48c0,1.36,0.48,2.52,1.45,3.49C233.98,64.81,235.14,65.29,236.5,65.29z"/>
		</g>
		<g>
			<g>
				<g>
					<path class="st2" d="M108.67,65.54c-6.86,0-13.27,3.13-13.27,10.08c0,11.92,17.06,7.86,17.06,12.29c0,1.23-1.05,2.09-3.79,2.09
						c-1.29,0-2.27-0.27-2.94-0.75c-0.34-0.25-0.61-0.55-0.78-0.91c-0.46-0.8-0.78-1.29-1.77-1.29h-6.4c-1.05,0-1.7,0.55-1.57,1.6
						c0.36,3.01,1.84,5.23,3.98,6.75c2.49,1.77,5.89,2.59,9.48,2.59c7.19,0,13.59-3.01,13.59-10.08c0-11.98-17.06-7.74-17.06-12.29
						c0-1.23,1.05-2.09,3.46-2.09c1.5,0,2.61,0.61,3.07,1.6c0.46,0.86,0.78,1.35,1.77,1.35h6.41c1.04,0,1.7-0.55,1.57-1.6
						C120.7,68.37,114.75,65.54,108.67,65.54"/>
				</g>
				<path class="st2" d="M33.06,53.42v43c0,0.98-0.55,1.54-1.54,1.54h-6.14c-0.98,0-1.53-0.55-1.53-1.54v-2.19
					c-2.06,2.34-5.04,3.73-9.16,3.73C6.64,97.96,0,90.9,0,81.74c0-9.15,6.64-16.22,14.68-16.22c4.11,0,7.1,1.39,9.16,3.73V53.42
					c0-0.98,0.55-1.54,1.53-1.54h6.14C32.5,51.89,33.06,52.44,33.06,53.42z M23.09,78.14c-1.16-2.46-3.57-3.89-6.56-3.89
					c-4.24,0-7.31,2.89-7.31,7.5c0,4.61,3.07,7.5,7.31,7.5c2.99,0,5.4-1.44,6.56-3.89V78.14z"/>
				<path class="st2" d="M69.19,81.61c0,9.4-6.76,16.39-16.16,16.39c-9.4,0-16.16-6.99-16.16-16.39c0-9.28,6.76-16.08,16.16-16.08
					C62.43,65.53,69.19,72.33,69.19,81.61z M59.79,81.79c0-3.98-2.7-7.19-6.7-7.19c-4.06,0-6.76,3.22-6.76,7.19
					c0,4.1,2.7,7.38,6.76,7.38C57.09,89.17,59.79,85.89,59.79,81.79z"/>
				<path class="st2" d="M84.58,51.83h-6.16c-0.98,0-1.54,0.55-1.54,1.54V65.5h-4.25c-0.98,0-1.54,0.55-1.54,1.54v5.98
					c0,0.98,0.55,1.54,1.54,1.54h4.25c0,3.11,0.05,5.79,0,8.42c-0.2,10.29,4.01,15.01,13.31,15.01c0.03,0,0.07,0,0.11,0
					c0.98,0,1.54-0.62,1.54-1.6V90.6c0-0.98-0.56-1.4-1.6-1.48c-4.18-0.29-4.12-2.87-4.12-6.14c0-2.15,0-7.06,0-7.06
					c0.15-1.33,1.28-1.35,1.35-1.35h0h2.83c0.98,0,1.54-0.56,1.54-1.54v-5.98c0-0.99-0.55-1.54-1.54-1.54h-4.19V53.37
					C86.12,52.38,85.56,51.83,84.58,51.83"/>
			</g>
			<g>
				<path class="st2" d="M155.47,84.44c0,8.83-6.88,13.41-14.62,13.41c-7.28,0-13.82-4.07-14.56-11.92
					c-0.06-0.98,0.52-1.49,1.43-1.49h6.36c0.86,0,1.26,0.46,1.49,1.32c0.51,1.83,2.18,3.15,5.27,3.15c3.78,0,5.45-2.01,5.45-4.47
					c0-2.46-1.66-4.47-5.45-4.47h-3.32c-0.92,0-1.43-0.52-1.43-1.43v-3.67c0-0.69,0.23-1.2,0.63-1.78l5.79-7.57h-14.84
					c-0.92,0-1.43-0.51-1.43-1.43v-5.73c0-0.92,0.51-1.43,1.43-1.43h24.47c0.92,0,1.43,0.52,1.43,1.43v5.04
					c0,0.69-0.23,1.2-0.63,1.78l-6.14,7.96C151.8,74.87,155.47,78.83,155.47,84.44z"/>
				<path class="st2" d="M188.15,83.7c0,8.31-6.08,14.16-14.91,14.16c-8.89,0-14.9-5.85-14.9-14.16c0-3.11,0.85-5.88,2.37-8.13
					l-0.02-0.01l11.64-17.71c0.4-0.63,0.97-0.92,1.72-0.92h7.34c1.15,0,1.55,0.75,0.92,1.72l-7.5,10.95
					C182.78,70.25,188.15,75.88,188.15,83.7z M178.98,83.7c0-3.5-2.69-5.56-5.73-5.56c-3.1,0-5.73,2-5.73,5.56
					c0,3.55,2.64,5.56,5.73,5.56C176.28,89.26,178.98,87.2,178.98,83.7z"/>
				<path class="st2" d="M191.14,76.99c0-12.38,5.96-20.87,16.34-20.87s16.34,8.48,16.34,20.87s-5.96,20.87-16.34,20.87
					S191.14,89.37,191.14,76.99z M214.64,76.99c0-7.74-2.35-11.92-7.17-11.92c-4.82,0-7.17,4.18-7.17,11.92
					c0,7.74,2.35,11.92,7.17,11.92C212.29,88.91,214.64,84.73,214.64,76.99z"/>
			</g>
		</g>
	</g>
</g>
</svg>
