<svg xmlns="http://www.w3.org/2000/svg" viewBox="0 0 509.42 350.69"><defs><style>.cls-1{fill:#f0acc4;opacity:0.3;}.cls-2{fill:#de4e83;}.cls-3{fill:#1a1a1a;}.cls-4{fill:#fff;}.cls-5{fill:#d4145a;}.cls-6{fill:#f6d0de;}.cls-7{fill:#e46b97;}.cls-8{fill:#9a0e41;}</style></defs><title>Asset 4dots-reference-checks</title><g id="Layer_2" data-name="Layer 2"><g id="_360_Home_page" data-name="360 Home page"><path class="cls-1" d="M247.7,0C210.77,0,182,20.14,167.21,50.9c-15.64,32.54-59.9,52.66-114.53,93.88C-39.48,214.3,39.54,349.44,39.54,349.44s392.77,1.25,433.45,1.25c30-38.18,55.48-133.57,5.9-159-51.81-26.55-68.3-37.3-107.65-99.51-54-85.4-77-89.5-117-92Q250.91,0,247.7,0"/><path class="cls-2" d="M457.47,327.42a18.56,18.56,0,1,1-18.56-18.55A18.56,18.56,0,0,1,457.47,327.42Z"/><path class="cls-3" d="M457.47,327.42h-1.6a17,17,0,1,1-5-12,16.92,16.92,0,0,1,5,12h3.19a20.15,20.15,0,1,0-20.15,20.15,20.15,20.15,0,0,0,20.15-20.15Z"/><path class="cls-3" d="M47.83,350.69H479.92a3.19,3.19,0,0,0,0-6.38H47.83a3.19,3.19,0,0,0,0,6.38"/><path class="cls-3" d="M490.29,350.69h15.94a3.19,3.19,0,0,0,0-6.38H490.29a3.19,3.19,0,0,0,0,6.38"/><path class="cls-3" d="M19.93,350.69H35.87a3.19,3.19,0,1,0,0-6.38H19.93a3.19,3.19,0,0,0,0,6.38"/><path class="cls-3" d="M3.19,350.69h7.17a3.19,3.19,0,1,0,0-6.38H3.19a3.19,3.19,0,0,0,0,6.38"/><path class="cls-4" d="M142,95.31s-.55-11.8,18.41-10c10.54,1,13.58,9.29,12.33,13.94,0,0,2.69-3.78,7.91-1.27,2.18.86,5.35,3.23,4.31,5.78,1.13-1.51,8.15-6.11,13.31-.56,3,2.46,4.08,7.2-3.13,8.15a196,196,0,0,1-31.74.71c-11.41-.77-11.75,1.34-33.72.47,0,0-9.07.5-9.17-8.17.6-4.58,9.17-4.38,10.36-1.89C131.54,99.67,132.57,91.45,142,95.31Z"/><path d="M142,95.31l1.59-.09-.58,0h.58v0l-.58,0h.58v0a6.75,6.75,0,0,1,.24-1.62,7.51,7.51,0,0,1,.89-2.09,8.58,8.58,0,0,1,3.62-3.18,18.68,18.68,0,0,1,8.34-1.6,35.57,35.57,0,0,1,3.58.18c4.2.4,6.91,2,8.66,3.94a9.71,9.71,0,0,1,2.49,6.3,6.76,6.76,0,0,1-.21,1.7,1.6,1.6,0,0,0,2.84,1.34l-.5-.36.49.37h0l-.5-.36.49.37a3.58,3.58,0,0,1,.87-.78,4.12,4.12,0,0,1,2.32-.69,6.29,6.29,0,0,1,2.73.7l.11,0a8.14,8.14,0,0,1,2.46,1.53,4.23,4.23,0,0,1,.81,1,1.76,1.76,0,0,1,.24.76,1.58,1.58,0,0,1-.09.43,1.59,1.59,0,0,0,2.75,1.55,4.71,4.71,0,0,1,.67-.61,10.73,10.73,0,0,1,2.38-1.33,8.45,8.45,0,0,1,3.12-.65,6.16,6.16,0,0,1,2.36.46,7,7,0,0,1,2.35,1.69l.15.15a5.41,5.41,0,0,1,1.28,1.49,3,3,0,0,1,.43,1.42,1.42,1.42,0,0,1-.13.63,2.27,2.27,0,0,1-1,1,8.22,8.22,0,0,1-2.89.84l.2,1.58-.1-1.59c-1.28.08-3.8.35-7.33.6s-8,.47-13.17.47c-3.43,0-7.14-.1-11-.36-1.86-.13-3.44-.18-4.87-.18-3,0-5.28.22-8.06.44s-6.07.42-11.13.42c-2.68,0-5.86-.06-9.71-.21h-.15v0h0v0h-.18a10.13,10.13,0,0,1-1.74-.16,7.53,7.53,0,0,1-3.65-1.61,5.18,5.18,0,0,1-1.33-1.82,7.6,7.6,0,0,1-.59-3l-1.59,0,1.58.21a1.79,1.79,0,0,1,.36-.89,3.24,3.24,0,0,1,1.5-1,7,7,0,0,1,2.38-.38,6.69,6.69,0,0,1,2.3.36,2.74,2.74,0,0,1,.65.33l.13.12,0,0h0a1.6,1.6,0,0,0,3-.31c.16-.63.31-1.39.53-2.2a9,9,0,0,1,1.54-3.35,3.79,3.79,0,0,1,1.25-1,4,4,0,0,1,1.86-.39,10.25,10.25,0,0,1,3.79.89,1.59,1.59,0,0,0,2.2-1.56l-1.59.09.6-1.48a13.21,13.21,0,0,0-5-1.13,7.09,7.09,0,0,0-4.15,1.24,7.67,7.67,0,0,0-2,2.06,13.09,13.09,0,0,0-1.51,3.44c-.32,1.09-.5,2.06-.65,2.63l1.55.39,1.44-.69a3.52,3.52,0,0,0-1.13-1.33,6.41,6.41,0,0,0-2.24-1,10.6,10.6,0,0,0-2.61-.31,9.57,9.57,0,0,0-4.54,1,5.75,5.75,0,0,0-1.87,1.55,5,5,0,0,0-1,2.42l0,.23a10.15,10.15,0,0,0,1.47,5.39,8.42,8.42,0,0,0,2.4,2.46,11,11,0,0,0,4,1.62,13.11,13.11,0,0,0,2.68.28h.35l-.08-1.59-.07,1.59c3.89.16,7.11.22,9.84.22,5.14,0,8.56-.22,11.37-.43s5-.43,7.82-.43c1.35,0,2.86,0,4.66.17,4,.27,7.75.37,11.24.37,5.23,0,9.82-.23,13.4-.48s6.16-.53,7.31-.6h.1a9.71,9.71,0,0,0,5-1.88,5,5,0,0,0,1.36-1.72,4.71,4.71,0,0,0,.44-2,6.08,6.08,0,0,0-.85-3,9,9,0,0,0-2-2.37l-1,1.23,1.17-1.09A9.87,9.87,0,0,0,196,99.65a9.21,9.21,0,0,0-3.6-.72,13.1,13.1,0,0,0-7.44,2.64,6.58,6.58,0,0,0-1.28,1.23l1.28,1,1.48.6a4.36,4.36,0,0,0,.31-1.62,4.75,4.75,0,0,0-.64-2.33A8.24,8.24,0,0,0,183.83,98a11.85,11.85,0,0,0-2.63-1.47L180.62,98l.69-1.43a9.47,9.47,0,0,0-4.12-1,7.28,7.28,0,0,0-4.27,1.36,6.48,6.48,0,0,0-1.51,1.44l1.3.92,1.54.41a9.83,9.83,0,0,0,.32-2.52,12.82,12.82,0,0,0-3.3-8.42,15.94,15.94,0,0,0-10.74-5c-1.38-.13-2.67-.19-3.88-.19a22.91,22.91,0,0,0-8.93,1.55,12.78,12.78,0,0,0-4.08,2.67,11,11,0,0,0-2.8,4.58,10.28,10.28,0,0,0-.47,2.88.77.77,0,0,0,0,.19l1.59-.08.6-1.48Z"/><path class="cls-5" d="M101.49,173.14s-3.43-27-3.43-35.31,7.17-6.37,7.17-6.37h77l9.5,11.42,71.39,1.05-3.83,45.73Z"/><path class="cls-3" d="M230.27,144.46l31.14.63-3.56,42.62L101.66,171.55l-.17,1.59,1.59-.2s-.06-.43-.15-1.2c-.33-2.72-1.15-9.62-1.89-16.74-.37-3.56-.72-7.17-1-10.34s-.42-5.9-.42-7.62a7.85,7.85,0,0,1,.58-3.23,4.25,4.25,0,0,1,.89-1.27,4,4,0,0,1,1.67-.92,6,6,0,0,1,1.6-.22l.47,0,.11,0h0l.09-.64-.1.64h0l.09-.64-.1.64.25,0h76.24l9,11.6a1.64,1.64,0,0,0,1.23.61l3.89.08a1.6,1.6,0,0,0,.07-3.19l-3.14-.06-9-11.62a1.62,1.62,0,0,0-1.26-.61h-77v1.59l.25-1.57a6.68,6.68,0,0,0-1.09-.08,9.56,9.56,0,0,0-2.17.26,8,8,0,0,0-2,.78,6.94,6.94,0,0,0-2.69,2.8,10.42,10.42,0,0,0-1.09,5c0,2.17.22,5.48.54,9.27,1,11.37,2.91,27,2.91,27a1.58,1.58,0,0,0,1.42,1.39l157.81,16.33a1.6,1.6,0,0,0,1.19-.36,1.65,1.65,0,0,0,.57-1.09l3.83-45.93a1.61,1.61,0,0,0-1.56-1.73l-32.84-.67a1.6,1.6,0,0,0-.06,3.19Z"/><path class="cls-4" d="M169.47,167.19a4.89,4.89,0,0,0-3.65-6.33L111.2,146.62a6.39,6.39,0,0,0-7.4,3.8l-3.74,9.71a4,4,0,0,0,3.55,5.75l58.55,5.69A7.3,7.3,0,0,0,169.47,167.19Z"/><path class="cls-3" d="M169.47,167.19l1.5.54a6.2,6.2,0,0,0-1.06-6.07,7,7,0,0,0-3.69-2.34L111.6,145.07a7.48,7.48,0,0,0-1.87-.23,8.12,8.12,0,0,0-4.45,1.35,7.76,7.76,0,0,0-3,3.65l-3.74,9.72a6.58,6.58,0,0,0-.45,2.36,5.41,5.41,0,0,0,1.49,3.78,6.11,6.11,0,0,0,3.85,1.77L162,173.16c.26,0,.51,0,.77,0a9.22,9.22,0,0,0,4.95-1.52,8.06,8.06,0,0,0,3.24-4l-1.5-.54-1.51-.53a4.9,4.9,0,0,1-2,2.35,6,6,0,0,1-3.21,1l-.46,0-58.55-5.7a2.86,2.86,0,0,1-1.86-.8,2.16,2.16,0,0,1-.6-1.57,3.46,3.46,0,0,1,.24-1.22l3.74-9.71a4.5,4.5,0,0,1,1.75-2.14,5,5,0,0,1,2.69-.83,4.3,4.3,0,0,1,1.07.14l54.61,14.25a3.85,3.85,0,0,1,2,1.26,3.1,3.1,0,0,1,.71,2,3,3,0,0,1-.19,1Z"/><path class="cls-4" d="M225.62,170.8c3-.32,4.66-2.85,3.57-5.62a8.73,8.73,0,0,0-7.56-5H100.45a5.6,5.6,0,0,0-5.58,5.59v13.55a4.91,4.91,0,0,0,5.55,5Z"/><path class="cls-3" d="M225.62,170.8l.17,1.59a6.2,6.2,0,0,0,3.82-1.76,5.27,5.27,0,0,0,1.51-3.74,6.22,6.22,0,0,0-.45-2.29,9.5,9.5,0,0,0-3.64-4.3,10,10,0,0,0-5.4-1.74H100.45a7.2,7.2,0,0,0-7.18,7.18v13.55a6.51,6.51,0,0,0,6.56,6.61c.25,0,.5,0,.75,0h0l125.2-13.47-.17-1.59-.17-1.58-125.2,13.47h0l-.42,0a3.32,3.32,0,0,1-2.39-1,3.43,3.43,0,0,1-1-2.46V165.74a4,4,0,0,1,1.17-2.82,4,4,0,0,1,2.82-1.17H221.63a6.75,6.75,0,0,1,3.64,1.21,6.37,6.37,0,0,1,2.43,2.8,3,3,0,0,1,.23,1.13,2.08,2.08,0,0,1-.6,1.51,3.08,3.08,0,0,1-1.88.82Z"/><path class="cls-5" d="M261.46,336.34a9.52,9.52,0,0,1-9.54,9.53l-138.25-.46a11.33,11.33,0,0,1-10.84-9.52s-6.73-50.24-8.49-70.24c-2-23.13-4.64-83.18-4.64-83.18a11.89,11.89,0,0,1,8.92-11.65s16.2-3.62,68.83-3.41c57.1.23,84.09-1.47,84.09-1.47a8.92,8.92,0,0,1,9.57,9Z"/><path class="cls-3" d="M261.46,336.34h-.36l-1.23,0v0h1.23l-1.23,0v.05a8,8,0,0,1-7.92,7.92h-.1l.07,1.59v-1.59l-138.25-.47a9.73,9.73,0,0,1-9.26-8.13s-.1-.78-.29-2.19c-.66-4.95-2.32-17.58-4-31.16s-3.42-28.11-4.18-36.82c-1-11.51-2.18-32.31-3.09-50.2-.45-8.95-.84-17.18-1.11-23.17-.14-3-.25-5.43-.32-7.12s-.12-2.62-.12-2.62,0-.25,0-.36a10,10,0,0,1,2.25-6.11A9.8,9.8,0,0,1,99,172.38h0c.31-.07,15.79-3.39,64.11-3.39h4.36l10.5,0h5q10.65,0,19.61-.12c8.32-.1,15.54-.23,21.71-.37,18.44-.44,27.38-1,27.4-1l.5,0a7.32,7.32,0,0,1,7.37,7.4l.36,161.43h3.19L262.7,174.9a10.5,10.5,0,0,0-10.56-10.57c-.23,0-.47,0-.7,0l-.41,0c-1.94.12-10.76.59-26.86,1-6.16.15-13.37.28-21.67.37q-9,.09-19.59.12h-5l-10.49,0h-4.37c-49.23,0-64.63,3.42-64.81,3.46A13,13,0,0,0,91,173.94,13.19,13.19,0,0,0,88.1,182c0,.17,0,.34,0,.5,0,0,.65,15,1.55,32.93s2.06,38.71,3.09,50.32c.89,10.06,3,27.61,4.91,42.68s3.59,27.63,3.59,27.63A12.91,12.91,0,0,0,113.66,347l138.25.47H252l0-.84v.84h0l0-.84v.84a11.13,11.13,0,0,0,11.11-11.11h-1.22l1.22,0v0h-1.22l1.22,0v-.05h-1.6Z"/><rect class="cls-6" x="242.35" y="101.96" width="167.41" height="243.95" rx="15.15" ry="15.15"/><path class="cls-6" d="M278.13,107.53,288,87.13a8.36,8.36,0,0,1,6.87-4.3h62.48a8.32,8.32,0,0,1,6.85,4.31L374,107.53"/><path class="cls-3" d="M372.3,103.55h22.32a13.61,13.61,0,0,1,13.55,13.56V330.76a13.51,13.51,0,0,1-4.42,10,1.59,1.59,0,1,0,2.15,2.35,16.7,16.7,0,0,0,5.46-12.34V117.11a16.79,16.79,0,0,0-16.74-16.75H372.3a1.6,1.6,0,1,0,0,3.19Z"/><path class="cls-3" d="M262.28,181.68V139a8.36,8.36,0,0,1,8.37-8.37h35.48a1.2,1.2,0,1,0,0-2.39H270.65A10.76,10.76,0,0,0,259.89,139v42.65a1.2,1.2,0,1,0,2.39,0Z"/><path class="cls-3" d="M389.84,193.64v115.2a8.4,8.4,0,0,1-8.37,8.37H270.26a1.2,1.2,0,1,0,0,2.39H381.47a10.76,10.76,0,0,0,10.76-10.76V193.64a1.2,1.2,0,1,0-2.39,0Z"/><path class="cls-3" d="M371.5,130.66h10a8.38,8.38,0,0,1,8.37,8.37V161a1.2,1.2,0,1,0,2.39,0V139a10.76,10.76,0,0,0-10.76-10.76h-10a1.2,1.2,0,0,0,0,2.39Z"/><path class="cls-3" d="M315.7,130.66h44.64a1.2,1.2,0,1,0,0-2.39H315.7a1.2,1.2,0,1,0,0,2.39"/><path class="cls-3" d="M314.7,102a5,5,0,1,1-5-5A5,5,0,0,1,314.7,102Z"/><path class="cls-3" d="M314.7,102h-1.6a3.4,3.4,0,0,1-3.38,3.39A3.39,3.39,0,1,1,313.1,102h3.19a6.58,6.58,0,1,0-6.57,6.58,6.58,6.58,0,0,0,6.57-6.58Z"/><path class="cls-3" d="M347.38,102a5,5,0,1,1-5-5A5,5,0,0,1,347.38,102Z"/><path class="cls-3" d="M347.38,102h-1.59a3.38,3.38,0,0,1-5.78,2.39,3.32,3.32,0,0,1-1-2.39,3.38,3.38,0,0,1,3.38-3.39,3.38,3.38,0,0,1,3.39,3.39H349a6.58,6.58,0,1,0-6.58,6.58A6.58,6.58,0,0,0,349,102Z"/><path class="cls-3" d="M315.7,163.34h27.1a2.39,2.39,0,0,0,0-4.78H315.7a2.39,2.39,0,1,0,0,4.78"/><path class="cls-3" d="M315.7,174.5h40.65a2.39,2.39,0,1,0,0-4.78H315.7a2.39,2.39,0,1,0,0,4.78"/><path class="cls-3" d="M350,163.34h9.56a2.39,2.39,0,1,0,0-4.78H350a2.39,2.39,0,1,0,0,4.78"/><path class="cls-7" d="M293.84,162.9a1.91,1.91,0,0,0-2.7-.13l-9.39,8.73-2.36-1.78a1.74,1.74,0,0,0-2.12.05,1.78,1.78,0,0,0-.31,2.46l3.28,4.23a1.31,1.31,0,0,0,.22.25,2.12,2.12,0,0,0,3-.1l.15-.16,10.22-10.91A1.93,1.93,0,0,0,293.84,162.9Z"/><path class="cls-3" d="M283.05,183.16a13.86,13.86,0,0,1-9.7-20.62,1.2,1.2,0,1,0-2.07-1.2,16.25,16.25,0,0,0,11.38,24.18,1.2,1.2,0,0,0,1.38-1,1.21,1.21,0,0,0-1-1.38Z"/><path class="cls-3" d="M287.61,183.16a14.27,14.27,0,0,1-1.87.18,1.2,1.2,0,1,0,.07,2.39,15.92,15.92,0,0,0,2.2-.21,1.2,1.2,0,0,0-.4-2.36Z"/><path class="cls-3" d="M299.19,169.49a13.86,13.86,0,0,1-8.9,12.95,1.2,1.2,0,0,0,.86,2.23,16.25,16.25,0,0,0,10.43-15.18,1.2,1.2,0,0,0-2.39,0Z"/><path class="cls-3" d="M276.93,158.48a13.85,13.85,0,0,1,21.72,7.19,1.2,1.2,0,0,0,1.48.82A1.18,1.18,0,0,0,301,165a16.26,16.26,0,0,0-25.48-8.43,1.2,1.2,0,0,0,1.46,1.9Z"/><path class="cls-3" d="M275.58,170.15a3.15,3.15,0,0,0-.17,1A2.92,2.92,0,0,0,276,173h0l3.27,4.23h0q.16.2.36.39h0a3.31,3.31,0,0,0,4.69-.15l0,0,.15-.16-.89-.8.87.82,10.23-10.91h0a3.15,3.15,0,0,0,0-4.28h0a3.18,3.18,0,0,0-2.32-1,3,3,0,0,0-2.08.82h0l-8.65,8-1.57-1.18a1.19,1.19,0,1,0-1.43,1.91l2.36,1.78a1.19,1.19,0,0,0,1.53-.08l9.39-8.73h0a.61.61,0,0,1,.44-.17.77.77,0,0,1,.57.25h0a.69.69,0,0,1,.19.5.74.74,0,0,1-.19.5h0l-10.22,10.92h0l-.14.16.88.8-.87-.82a.93.93,0,0,1-.68.3.94.94,0,0,1-.64-.25h0l-.1-.11h0l-3.27-4.23h0a.58.58,0,0,1-.11-.34l0-.21a1.19,1.19,0,0,0-2.25-.8Z"/><path class="cls-3" d="M315.7,212.77h27.1a2.39,2.39,0,0,0,0-4.78H315.7a2.39,2.39,0,1,0,0,4.78"/><path class="cls-3" d="M350,212.77h9.56a2.39,2.39,0,1,0,0-4.78H350a2.39,2.39,0,1,0,0,4.78"/><path class="cls-3" d="M283.05,232.59a13.87,13.87,0,0,1-9.7-20.63,1.2,1.2,0,0,0-2.07-1.2A16.26,16.26,0,0,0,282.66,235a1.2,1.2,0,1,0,.39-2.36Z"/><path class="cls-3" d="M287.61,232.59a14.27,14.27,0,0,1-1.87.18,1.2,1.2,0,1,0,.07,2.39A15.92,15.92,0,0,0,288,235a1.2,1.2,0,0,0-.4-2.36Z"/><path class="cls-3" d="M299.19,218.92a13.84,13.84,0,0,1-8.9,12.94,1.2,1.2,0,0,0,.86,2.24,16.26,16.26,0,0,0,10.43-15.18,1.2,1.2,0,0,0-2.39,0Z"/><path class="cls-3" d="M276.93,207.91a13.85,13.85,0,0,1,21.72,7.19,1.2,1.2,0,0,0,2.3-.66A16.26,16.26,0,0,0,275.47,206a1.2,1.2,0,0,0,1.46,1.9Z"/><path class="cls-7" d="M293.84,212.33a1.9,1.9,0,0,0-2.7-.13l-9.39,8.73-2.36-1.78a1.74,1.74,0,0,0-2.12,0,1.79,1.79,0,0,0-.31,2.47l3.28,4.23a2.46,2.46,0,0,0,.22.25,2.13,2.13,0,0,0,3-.1l.15-.16L293.84,215A1.93,1.93,0,0,0,293.84,212.33Z"/><path class="cls-3" d="M275.58,219.58a3.1,3.1,0,0,0-.17,1,2.92,2.92,0,0,0,.61,1.8h0l3.27,4.23h0a3.33,3.33,0,0,0,.36.39h0a3.3,3.3,0,0,0,2.27.9,3.34,3.34,0,0,0,2.42-1l0,0,.14-.15,10.22-10.9h0a3.13,3.13,0,0,0,0-4.27h0a3.19,3.19,0,0,0-2.32-1,3,3,0,0,0-2.08.83h0l-8.65,8.05-1.57-1.17a1.19,1.19,0,0,0-1.67.23,1.2,1.2,0,0,0,.24,1.68l2.36,1.78a1.21,1.21,0,0,0,1.53-.08l9.39-8.74h0a.61.61,0,0,1,.44-.17.77.77,0,0,1,.57.25h0a.73.73,0,0,1,.19.5.75.75,0,0,1-.19.51h0l-10.22,10.91,0,0-.14.16.88.8-.87-.82a.93.93,0,0,1-.68.3.94.94,0,0,1-.64-.25h0l-.1-.12h0l-3.27-4.23h0a.52.52,0,0,1-.11-.33l0-.21a1.19,1.19,0,1,0-2.25-.8Z"/><path class="cls-3" d="M279.56,108.23l9.86-20.4a6.14,6.14,0,0,1,2.28-2.39,6.21,6.21,0,0,1,3.15-1h62.48a6.74,6.74,0,0,1,5.42,3.41l9.81,20.39a1.59,1.59,0,1,0,2.87-1.38l-9.81-20.39a9.91,9.91,0,0,0-8.29-5.22H294.85a9.92,9.92,0,0,0-8.3,5.21l-9.86,20.4a1.59,1.59,0,1,0,2.87,1.39Z"/><path class="cls-4" d="M259.31,239.92l-5-34.32H230.39l-6.19,33.48S238.6,246.83,259.31,239.92Z"/><path class="cls-3" d="M259.31,239.92l1.57-.24-5-34.31a1.6,1.6,0,0,0-1.58-1.37H230.39a1.59,1.59,0,0,0-1.56,1.31l-6.19,33.48a1.58,1.58,0,0,0,.81,1.69c.15.09,7.28,3.89,18.73,3.9a55.5,55.5,0,0,0,17.63-2.95,1.59,1.59,0,0,0,1.07-1.75l-1.57.24-.51-1.52a52.2,52.2,0,0,1-16.62,2.79,44.52,44.52,0,0,1-12.69-1.79,29.67,29.67,0,0,1-3.41-1.21c-.39-.16-.68-.3-.87-.39l-.2-.1,0,0h0l-.25.47.25-.47h0l-.25.47.25-.47-.76,1.41,1.57.29,5.95-32.18h21.21l4.8,32.95,1.58-.22-.51-1.52Z"/><path class="cls-8" d="M263,200.73a22,22,0,0,1-22,22c-12.16,0-20.41-6.72-20.41-18.87s8.25-22.19,20.41-22.19S263,188.57,263,200.73Z"/><path class="cls-3" d="M263,200.73h-1.2A20.81,20.81,0,0,1,241,221.54c-5.87,0-10.66-1.61-14-4.57a14.79,14.79,0,0,1-3.85-5.48,19.81,19.81,0,0,1-1.39-7.62A22.26,22.26,0,0,1,227.11,189,18.14,18.14,0,0,1,241,182.88c5.85,0,11.09,1.66,14.81,4.69a16,16,0,0,1,4.39,5.57,17.62,17.62,0,0,1,1.61,7.59h2.39a20.09,20.09,0,0,0-1.84-8.62,19.07,19.07,0,0,0-8.5-8.67,27.67,27.67,0,0,0-12.86-3,20.61,20.61,0,0,0-15.66,6.94,24.65,24.65,0,0,0-5.94,16.45A22.28,22.28,0,0,0,221,212.4a17.36,17.36,0,0,0,7.64,8.62A25.14,25.14,0,0,0,241,223.94a23.21,23.21,0,0,0,23.2-23.21Z"/><path class="cls-8" d="M237.05,224.67a13.11,13.11,0,0,1-13.12,13.12c-7.25,0-12-3.59-12.67-9.72-.85-7.2,7.57-20.21,11.7-14.26,1.72,2.48,3.44,4.72,5.83,5.94,2.82,1.43,5.84,2.6,8,2.71C237.53,222.49,237.05,223.89,237.05,224.67Z"/><path class="cls-3" d="M237.05,224.67h-1.19a11.93,11.93,0,0,1-11.93,11.92,13,13,0,0,1-8.06-2.31,9,9,0,0,1-3.43-6.35,8.76,8.76,0,0,1-.05-.91,14.57,14.57,0,0,1,.82-4.44,20.89,20.89,0,0,1,3.45-6.44,10.09,10.09,0,0,1,2.08-2,3.06,3.06,0,0,1,1.69-.64,1.41,1.41,0,0,1,.74.19,2.67,2.67,0,0,1,.81.81,32.53,32.53,0,0,0,2.77,3.56,12.22,12.22,0,0,0,3.5,2.75,35.8,35.8,0,0,0,4.4,1.92,15.2,15.2,0,0,0,4.11.92l0-.81-.43.68a.71.71,0,0,0,.39.13l0-.81-.43.68.46-.73-.71.49a.83.83,0,0,0,.25.24l.46-.73-.71.49.52-.36-.63.13a.8.8,0,0,0,.11.23l.52-.36-.63.13.2,0-.2,0h0l.2,0-.2,0v.05a3.72,3.72,0,0,1-.06.63,6.39,6.39,0,0,0-.09.95h2.39a5.37,5.37,0,0,1,.06-.61,8.55,8.55,0,0,0,.1-1,2.18,2.18,0,0,0-.23-1,1.45,1.45,0,0,0-.53-.58,1.57,1.57,0,0,0-.77-.24,12.91,12.91,0,0,1-3.44-.79,33.5,33.5,0,0,1-4.11-1.79,10.16,10.16,0,0,1-2.83-2.24,29.62,29.62,0,0,1-2.55-3.31,5,5,0,0,0-1.58-1.5,3.78,3.78,0,0,0-1.94-.53,4.83,4.83,0,0,0-2.07.51,10.14,10.14,0,0,0-3.15,2.54,22.25,22.25,0,0,0-3.67,6A18.56,18.56,0,0,0,210,227a9.39,9.39,0,0,0,.07,1.19,11.38,11.38,0,0,0,4.35,8,15.41,15.41,0,0,0,9.51,2.81,14.32,14.32,0,0,0,14.32-14.32Z"/><path class="cls-3" d="M252.27,251.55h.1l.23,0c.25,0,.65-.07,1.17-.16a33.34,33.34,0,0,0,4.39-1c.9-.3,1.88-.62,2.88-1s2.07-.89,3.13-1.44a36.38,36.38,0,0,0,3.2-1.87,37.19,37.19,0,0,0,3.08-2.29c.5-.41,1-.83,1.45-1.28s.94-.89,1.38-1.35a34.39,34.39,0,0,0,2.48-2.85,33.73,33.73,0,0,0,2-2.92c.64-.95,1.13-1.91,1.62-2.79s.88-1.71,1.18-2.47.63-1.41.82-2l.65-1.75,0-.08a1.59,1.59,0,0,1,3,.91l-.44,1.94c-.13.63-.37,1.36-.6,2.22s-.59,1.81-.93,2.86-.82,2.15-1.38,3.29a38.28,38.28,0,0,1-1.86,3.57,38.92,38.92,0,0,1-2.39,3.62c-.44.59-.89,1.19-1.38,1.76s-1,1.15-1.49,1.71a42.2,42.2,0,0,1-3.26,3.16c-1.15,1-2.3,1.89-3.48,2.7s-2.36,1.57-3.5,2.22-2.27,1.21-3.32,1.7a40.63,40.63,0,0,1-5.29,2c-.66.21-1.21.35-1.61.44a4.68,4.68,0,0,1-.5.11l-.16,0h-.08a4.53,4.53,0,1,1-1.82-8.88A4.25,4.25,0,0,1,252.27,251.55Z"/><path class="cls-3" d="M228,312.57s-.13.5-.34,1.38l-.87,3.68c-.71,3.06-1.62,7.15-2.43,11.24-.41,2.05-.8,4.1-1.12,6s-.61,3.72-.79,5.24c-.1.77-.19,1.47-.23,2.08s-.12,1.17-.12,1.59l0,1.35v.16a1.59,1.59,0,0,1-3.15.29l-.33-1.52c-.11-.49-.18-1.05-.3-1.72s-.2-1.41-.29-2.22c-.21-1.62-.37-3.5-.52-5.51s-.27-4.15-.38-6.29c-.2-4.28-.29-8.55-.35-11.76,0-1.61,0-2.94,0-3.88s0-1.49,0-1.49a5.74,5.74,0,0,1,11.48,0,6,6,0,0,1-.15,1.35Z"/><path class="cls-3" d="M257.24,309.58s-.43,2.36-1.08,5.9-1.45,8.28-2.2,13-1.44,9.49-1.8,13c-.1.89-.15,1.68-.22,2.4s-.06,1.29-.09,1.8a4.08,4.08,0,0,0,0,.61c0,.17,0,.31,0,.43v.71a1.58,1.58,0,0,1-3.11.41l-.11-.49c0-.17-.09-.37-.14-.6a6.33,6.33,0,0,1-.16-.78c-.07-.55-.19-1.24-.27-2s-.18-1.61-.25-2.53c-.31-3.69-.53-8.55-.68-13.42s-.22-9.72-.26-13.36,0-6.09,0-6.09a5.24,5.24,0,1,1,10.48-.06,5.77,5.77,0,0,1-.08.94Z"/><path class="cls-7" d="M271.25,313.22s-18.53,2-34,2c-14.59,0-34.52-2-34.52-2s3.57-17.52,10.17-40.26c5.69-19.64,11.34-33.88,11.34-33.88s6.57,3.27,19.28,3.27c10,0,15.61-3.27,15.61-3.27s4.68,20.85,7.18,36.07C269,291.51,271.25,313.22,271.25,313.22Z"/><path class="cls-3" d="M271.25,313.22l-.17-1.58-.82.08c-3.73.38-19.59,1.9-33,1.9-7.22,0-15.83-.5-22.61-1-3.4-.25-6.34-.5-8.43-.69l-2.44-.22-.88-.09-.16,1.59,1.56.32.17-.79c.76-3.63,4.21-19.5,10-39.35,2.84-9.78,5.66-18.22,7.78-24.21,1.06-3,1.94-5.38,2.55-7,.31-.81.55-1.44.72-1.87l.18-.47a1,1,0,0,1,.07-.16l-1.49-.59-.71,1.43c.18.09,7,3.43,20,3.43,10.38,0,16.24-3.38,16.42-3.48l-.81-1.38-1.55.35.2.92c.93,4.18,4.78,21.8,7,35.06,1.33,8.14,2.57,17.65,3.48,25.1.46,3.73.83,6.95,1.09,9.24.12,1.14.22,2.05.29,2.68l.11,1,1.58-.17-.17-1.58.17,1.58,1.59-.17s-2.3-21.72-5-38.16c-2.51-15.3-7.19-36.14-7.19-36.16a1.59,1.59,0,0,0-.92-1.11,1.62,1.62,0,0,0-1.44.08l0,.06,0-.06h0l0,.06,0-.06c-.16.09-5.44,3.05-14.81,3.05a57.69,57.69,0,0,1-14-1.58A35.72,35.72,0,0,1,226,238.1l-.84-.34-.19-.09,0,0h0l-.34.69.34-.69h0l-.34.69.34-.69a1.58,1.58,0,0,0-1.28-.06,1.64,1.64,0,0,0-.91.9s-5.68,14.32-11.4,34c-6.61,22.8-10.19,40.35-10.19,40.38a1.6,1.6,0,0,0,1.4,1.91s20,2,34.68,2c15.63,0,34.18-2,34.21-2a1.6,1.6,0,0,0,1.42-1.76Z"/><path class="cls-3" d="M244,172.11v-55a13.61,13.61,0,0,1,13.55-13.56h8.77a1.6,1.6,0,0,0,0-3.19H257.5a16.79,16.79,0,0,0-16.74,16.75v55a1.6,1.6,0,1,0,3.19,0Z"/><path class="cls-3" d="M314.9,103.55h22.32a1.6,1.6,0,0,0,0-3.19H314.9a1.6,1.6,0,1,0,0,3.19"/><path class="cls-4" d="M364.79,37.29s-5.16-.56-4-8.52c1-3.14,8.63-6.28,10.42-1.23.34-2-1.79-9.3,9.19-6.06,1.12-5.71,3.59-10.19,8-10.87s18.38-3.25,16.92,9.87c-.22,1.23,13.45-2,11.1,10.53,0,0,17.59-4.48,14.9,4-.45,3.48-2.58,3.37-10.76,3.93S370.28,38.52,364.79,37.29Z"/><path d="M364.79,37.29,365,35.7l-.11,1,.13-1h0l-.11,1,.13-1v0h0v0a3,3,0,0,1-1.41-.73,3.69,3.69,0,0,1-.92-1.35,7.07,7.07,0,0,1-.46-2.72,13.74,13.74,0,0,1,.14-1.91l-1.58-.22,1.52.49a2.39,2.39,0,0,1,.54-.83,6.63,6.63,0,0,1,2-1.38,6.14,6.14,0,0,1,2.45-.57,2.79,2.79,0,0,1,1.48.36,2.24,2.24,0,0,1,.91,1.23,1.6,1.6,0,0,0,3.08-.28,5.77,5.77,0,0,0,.06-1c0-.38,0-.77,0-1.15a9.09,9.09,0,0,1,.09-1.42,3.28,3.28,0,0,1,.24-.83,1.65,1.65,0,0,1,.67-.76,3.77,3.77,0,0,1,1.86-.37,15.11,15.11,0,0,1,4.25.75,1.59,1.59,0,0,0,2-1.22,18.55,18.55,0,0,1,2.51-6.74,7.58,7.58,0,0,1,1.86-2,5.29,5.29,0,0,1,2.26-.91,40.94,40.94,0,0,1,6.37-.64,16.25,16.25,0,0,1,3.39.32,9,9,0,0,1,2.2.73,5.42,5.42,0,0,1,2.3,2.07,7.64,7.64,0,0,1,.93,4,16.34,16.34,0,0,1-.09,1.64l1.58.18-1.56-.31a1.25,1.25,0,0,0,0,.33,1.77,1.77,0,0,0,.39,1.1,1.92,1.92,0,0,0,.6.48,2.5,2.5,0,0,0,.79.25,9.85,9.85,0,0,0,1.26.11c.79,0,1.74.09,2.71.22a11,11,0,0,1,2.15.5A5.22,5.22,0,0,1,414,24.77a4.5,4.5,0,0,1,.73,1.4,7.18,7.18,0,0,1,.29,2.14,13.31,13.31,0,0,1-.24,2.41,1.59,1.59,0,0,0,2,1.83h0c.24,0,1.41-.34,3-.6a33.14,33.14,0,0,1,5.36-.52,9.82,9.82,0,0,1,3.8.6,1.9,1.9,0,0,1,.79.59,1.27,1.27,0,0,1,.22.81,4,4,0,0,1-.2,1.15,1.31,1.31,0,0,0-.06.27,4.16,4.16,0,0,1-.18.81,1.32,1.32,0,0,1-.18.36,1.08,1.08,0,0,1-.54.39A9.89,9.89,0,0,1,426,37c-1.39.15-3.24.25-5.6.42-1.5.1-4.38.15-8,.15-7.49,0-18.27-.21-27.72-.55-4.72-.16-9.1-.36-12.57-.58-1.74-.11-3.24-.22-4.43-.34a24.42,24.42,0,0,1-2.5-.33l-.18,0-.17,1.59-.35,1.55a28.38,28.38,0,0,0,2.89.4c4.36.42,12.28.78,20.81,1s17.61.43,24.22.43c3.67,0,6.55,0,8.23-.16,2-.14,3.71-.24,5.1-.37a22.72,22.72,0,0,0,2.75-.37,8.57,8.57,0,0,0,1.67-.52A4.36,4.36,0,0,0,432,37.65a5.76,5.76,0,0,0,.78-2.4L431.24,35l1.52.48a6.94,6.94,0,0,0,.35-2.1,4.49,4.49,0,0,0-.83-2.68,4.84,4.84,0,0,0-1.47-1.32,8.31,8.31,0,0,0-2.72-1,17.21,17.21,0,0,0-3-.23,37.54,37.54,0,0,0-6.22.61c-1.73.3-2.92.61-2.95.61l.4,1.55,1.56.29a16.45,16.45,0,0,0,.3-3,9.84,9.84,0,0,0-.59-3.52,7.48,7.48,0,0,0-3.31-3.87,14.1,14.1,0,0,0-6.08-1.58c-.86-.06-1.6-.08-2-.12l-.24,0h0l-.2.86.48-.72a1.15,1.15,0,0,0-.28-.14l-.2.86.48-.72-.77,1.14,1.17-.73a1.29,1.29,0,0,0-.4-.41l-.77,1.14,1.17-.73-1.23.77h1.45a1.38,1.38,0,0,0-.22-.77l-1.23.77h0l1.42.28a2.07,2.07,0,0,0,0-.28h-1.44l1.42.28,0-.13c.07-.7.11-1.36.11-2a11.16,11.16,0,0,0-1.1-5.12,8.22,8.22,0,0,0-2.11-2.63,10.43,10.43,0,0,0-4.25-2.05,19.7,19.7,0,0,0-4.55-.5,44.68,44.68,0,0,0-6.85.68,8.3,8.3,0,0,0-3.6,1.45A11.81,11.81,0,0,0,380.79,15a24.48,24.48,0,0,0-2,6.18l1.56.3.46-1.52a18.45,18.45,0,0,0-5.16-.89,7.1,7.1,0,0,0-3.14.63A4.73,4.73,0,0,0,370.9,21a5.49,5.49,0,0,0-1.1,2.44,10.62,10.62,0,0,0-.19,2.22c0,.45,0,.85,0,1.15a3.76,3.76,0,0,1,0,.49l1.57.26,1.51-.54a5.45,5.45,0,0,0-2.23-2.86,5.91,5.91,0,0,0-3.17-.85,9.7,9.7,0,0,0-4.88,1.44,8.7,8.7,0,0,0-1.91,1.52,5.56,5.56,0,0,0-1.26,2l-.06.26A16.9,16.9,0,0,0,359,30.9a10.16,10.16,0,0,0,.79,4.15,6.68,6.68,0,0,0,2.92,3.19,5.73,5.73,0,0,0,1.9.63l.18-1.58-.35,1.55Z"/><path class="cls-3" d="M202.48,143.89l14.36.29a1.59,1.59,0,1,0,.06-3.18l-14.35-.3a1.6,1.6,0,1,0-.07,3.19"/></g></g></svg>