<?xml version="1.0" encoding="utf-8"?>
<!-- Generator: Adobe Illustrator 23.0.3, SVG Export Plug-In . SVG Version: 6.00 Build 0)  -->
<svg version="1.1" xmlns="http://www.w3.org/2000/svg" xmlns:xlink="http://www.w3.org/1999/xlink" x="0px" y="0px"
	 viewBox="0 0 505.25 164" style="enable-background:new 0 0 505.25 164;" xml:space="preserve">
<style type="text/css">
	.st0{fill:#1A1A1A;}
	.st1{fill:#F2F2F2;}
	.st2{fill:#F9F9F9;}
	.st3{fill:#FFFFFF;}
	.st4{fill:#D4145A;}
	.st5{fill:url(#SVGID_1_);}
	.st6{fill:url(#SVGID_2_);}
	.st7{opacity:0.8;}
	.st8{opacity:0.55;}
	.st9{opacity:0.5;fill:url(#SVGID_3_);}
	.st10{opacity:0.5;}
	.st11{opacity:0.3;fill:url(#SVGID_4_);}
	.st12{opacity:0.4;fill:url(#SVGID_5_);}
	.st13{fill:url(#SVGID_6_);}
	.st14{fill:url(#SVGID_7_);}
	.st15{opacity:0.5;fill:url(#SVGID_8_);}
	.st16{opacity:0.3;fill:url(#SVGID_9_);}
	.st17{opacity:0.4;fill:url(#SVGID_10_);}
	.st18{fill:#E6E6E6;}
	.st19{fill:#CCCCCC;}
	.st20{opacity:0.5;fill:url(#SVGID_11_);}
	.st21{opacity:0.5;fill:url(#SVGID_12_);}
	.st22{opacity:0.6;fill:url(#SVGID_13_);}
	.st23{fill:url(#SVGID_14_);}
	.st24{fill:#333333;}
	.st25{opacity:0.5;fill:url(#SVGID_15_);}
	.st26{opacity:0.3;fill:url(#SVGID_16_);}
	.st27{opacity:0.4;fill:url(#SVGID_17_);}
	.st28{fill:url(#SVGID_18_);}
	.st29{fill:url(#SVGID_19_);}
	.st30{fill:url(#SVGID_20_);}
	.st31{opacity:0.3;fill:url(#SVGID_21_);}
	.st32{opacity:0.4;fill:url(#SVGID_22_);}
	.st33{fill:url(#SVGID_23_);}
	.st34{fill:url(#SVGID_24_);}
	.st35{fill:#D62062;}
	.st36{fill:#D82C6B;}
	.st37{fill:#DA3773;}
	.st38{fill:#DD437B;}
	.st39{fill:#DF4F83;}
	.st40{fill:#E15B8C;}
	.st41{fill:#E36694;}
	.st42{fill:#E5729C;}
	.st43{fill:#E77EA4;}
	.st44{fill:#E98AAD;}
	.st45{fill:#EB95B5;}
	.st46{fill:#EEA1BD;}
	.st47{fill:#F0ADC5;}
	.st48{fill:#F2B9CD;}
	.st49{fill:#F4C4D6;}
	.st50{fill:#F6D0DE;}
	.st51{fill:#C71354;}
	.st52{fill:#BA124F;}
	.st53{fill:#AC1049;}
	.st54{fill:#9F0F44;}
	.st55{fill:#920E3E;}
	.st56{fill:#850D38;}
	.st57{fill:#770B33;}
	.st58{fill:#6A0A2D;}
	.st59{fill:#5D0927;}
	.st60{fill:#500822;}
	.st61{fill:#42061C;}
	.st62{fill:#350517;}
	.st63{fill:#280411;}
	.st64{fill:#1B030B;}
	.st65{fill:#0D0106;}
	.st66{opacity:0.6;fill:#D9316E;}
	.st67{fill:#E5719B;}
	.st68{fill:#9D204D;}
	.st69{fill:#EEA5BF;}
	.st70{fill:#A65472;}
	.st71{fill:#CB5E85;}
	.st72{fill:#E679A1;}
	.st73{opacity:0.6;fill:#E988AB;}
	.st74{fill:#E15F8E;}
	.st75{opacity:0.8392;fill:#DE4A7F;}
	.st76{fill:#C53F70;}
	.st77{fill:#F6D0DE;stroke:#42061C;stroke-width:2;stroke-linecap:round;stroke-linejoin:round;stroke-miterlimit:10;}
	.st78{opacity:0.6;fill:none;stroke:#D9316E;stroke-linecap:round;stroke-linejoin:round;stroke-miterlimit:10;}
	.st79{opacity:0.6;fill:none;stroke:#E988AB;stroke-linecap:round;stroke-linejoin:round;stroke-miterlimit:10;}
	.st80{opacity:0.5;fill:none;stroke:#000000;stroke-width:0.5;stroke-miterlimit:10;}
	.st81{fill:none;stroke:#000000;stroke-width:0.5;stroke-miterlimit:10;}
	.st82{fill:none;stroke:#D4145A;stroke-width:0.75;stroke-linecap:round;stroke-miterlimit:10;stroke-dasharray:2.4055,2.4055;}
	.st83{fill:none;stroke:#D4145A;stroke-width:0.75;stroke-linecap:round;stroke-miterlimit:10;stroke-dasharray:2.6651,2.6651;}
	.st84{fill:#F6D0DE;stroke:#E679A1;stroke-linecap:round;stroke-linejoin:round;stroke-miterlimit:10;}
	.st85{fill:none;stroke:#42061C;stroke-width:2.4;stroke-linecap:round;stroke-linejoin:round;stroke-miterlimit:10;}
	.st86{fill:none;stroke:#D4145A;stroke-width:0.75;stroke-linecap:round;stroke-miterlimit:10;stroke-dasharray:2.4924,2.4924;}
	.st87{display:none;}
	.st88{display:inline;opacity:0.2;}
	.st89{fill:url(#SVGID_25_);}
	.st90{clip-path:url(#SVGID_27_);fill:url(#SVGID_28_);}
	.st91{clip-path:url(#SVGID_32_);}
	.st92{clip-path:url(#SVGID_40_);}
	.st93{fill:none;}
	.st94{fill:url(#SVGID_67_);}
	.st95{clip-path:url(#SVGID_69_);fill:url(#SVGID_70_);}
	.st96{clip-path:url(#SVGID_72_);}
	.st97{opacity:0.3;fill:url(#SVGID_73_);}
	.st98{opacity:0.4;fill:url(#SVGID_74_);}
	.st99{clip-path:url(#SVGID_76_);}
	.st100{opacity:0.7;fill:url(#SVGID_77_);}
	.st101{fill:url(#SVGID_78_);}
	.st102{clip-path:url(#SVGID_80_);fill:url(#SVGID_81_);}
	.st103{clip-path:url(#SVGID_83_);}
	.st104{opacity:0.3;fill:url(#SVGID_84_);}
	.st105{opacity:0.4;fill:url(#SVGID_85_);}
	.st106{clip-path:url(#SVGID_87_);}
	.st107{opacity:0.7;fill:url(#SVGID_88_);}
	.st108{fill:url(#SVGID_89_);}
	.st109{clip-path:url(#SVGID_91_);fill:url(#SVGID_92_);}
	.st110{clip-path:url(#SVGID_94_);}
	.st111{opacity:0.3;fill:url(#SVGID_95_);}
	.st112{opacity:0.4;fill:url(#SVGID_96_);}
	.st113{clip-path:url(#SVGID_98_);}
	.st114{opacity:0.7;fill:url(#SVGID_99_);}
	.st115{fill:url(#SVGID_100_);}
	.st116{clip-path:url(#SVGID_102_);fill:url(#SVGID_103_);}
	.st117{clip-path:url(#SVGID_105_);}
	.st118{opacity:0.3;fill:url(#SVGID_106_);}
	.st119{opacity:0.4;fill:url(#SVGID_107_);}
	.st120{clip-path:url(#SVGID_109_);}
	.st121{opacity:0.7;fill:url(#SVGID_110_);}
	.st122{fill:url(#SVGID_111_);}
	.st123{clip-path:url(#SVGID_113_);fill:url(#SVGID_114_);}
	.st124{clip-path:url(#SVGID_116_);}
	.st125{opacity:0.3;fill:url(#SVGID_117_);}
	.st126{opacity:0.4;fill:url(#SVGID_118_);}
	.st127{clip-path:url(#SVGID_120_);}
	.st128{opacity:0.7;fill:url(#SVGID_121_);}
</style>
<g id="Layer_1">
</g>
<g id="Layer_5">
</g>
<g id="Orginal__x22_D_x22_" class="st87">
</g>
<g id="Altered">
</g>
<g id="Compiled">
	<g>
		<g>
			<g>
				<path d="M483.29,0H363.22c-12.13,0-21.97,9.84-21.97,21.97v120.07c0,12.13,9.84,21.97,21.97,21.97h120.07
					c12.13,0,21.97-9.84,21.97-21.97V21.97C505.25,9.84,495.42,0,483.29,0z M436.51,112.46c0,1.4-0.79,2.19-2.19,2.19h-8.76
					c-1.4,0-2.18-0.79-2.18-2.19v-3.13c-2.93,3.34-7.19,5.32-13.05,5.32c-11.47,0-20.93-10.07-20.93-23.12s9.46-23.12,20.93-23.12
					c5.86,0,10.12,1.98,13.05,5.32V51.17c0-1.4,0.78-2.19,2.18-2.19h8.76c1.4,0,2.19,0.79,2.19,2.19V112.46z M458.48,112.44
					c0,1.42-0.8,2.22-2.22,2.22h-8.87c-1.42,0-2.22-0.8-2.22-2.22v-7.99c0-1.42,0.8-2.21,2.22-2.21h8.87c1.42,0,2.22,0.8,2.22,2.21
					V112.44z"/>
				<path d="M412.95,80.85c-6.04,0-10.42,4.12-10.42,10.68c0,6.57,4.38,10.68,10.42,10.68c4.26,0,7.69-2.04,9.35-5.55V86.4
					C420.64,82.89,417.21,80.85,412.95,80.85z"/>
			</g>
		</g>
		<g>
			<path d="M263.99,71.37l-4.48,4.47c-1,0.89-1.89,0.08-1.89,0.08c-1.1-0.93-2.61-1.43-4.3-1.43c-3.96,0-7,2.86-7,7.06
				c0,4.2,3.04,7.06,7,7.06c1.68,0,3.18-0.5,4.28-1.4c0,0,0.93-0.75,1.96,0.15l4.3,4.31c0.99,1.14-0.01,2.1-0.01,2.1
				c-2.77,2.41-6.47,3.85-10.54,3.85c-9.25,0-16.13-7-16.13-16.07c0-9.07,6.88-16.06,16.13-16.06c4.1,0,7.81,1.45,10.59,3.89
				C263.91,69.36,264.91,70.22,263.99,71.37z"/>
			<path d="M171.96,68.44V96.1c0,0,0,1.48-1.43,1.54h-7.12c-1.89-0.19-1.3-2.25-1.3-2.25c-2.19,1.4-4.87,2.25-8.09,2.25
				c-7.97,0-14.66-6.64-14.66-15.4c0-8.83,6.69-15.4,14.66-15.4c3.23,0,5.9,0.85,8.09,2.25c0,0-0.58-2.05,1.3-2.25
				c0,0,5.34,0,7.12,0C170.58,66.84,171.87,66.85,171.96,68.44z M162.1,86.8v-9.12c-1.83-2.13-3.96-2.8-6.15-2.8
				c-4.02,0-6.94,3.29-6.94,7.36c0,4.08,2.92,7.3,6.94,7.3C158.15,89.54,160.28,88.93,162.1,86.8z"/>
			<path d="M297.27,68.44V96.1c0,0,0,1.48-1.43,1.54h-7.12c-1.89-0.19-1.3-2.25-1.3-2.25c-2.19,1.4-4.87,2.25-8.09,2.25
				c-7.97,0-14.67-6.64-14.67-15.4c0-8.83,6.69-15.4,14.67-15.4c3.23,0,5.9,0.85,8.09,2.25c0,0-0.58-2.05,1.3-2.25
				c0,0,5.34,0,7.12,0C295.89,66.84,297.18,66.85,297.27,68.44z M287.41,86.8v-9.12c-1.83-2.13-3.95-2.8-6.15-2.8
				c-4.02,0-6.94,3.29-6.94,7.36c0,4.08,2.92,7.3,6.94,7.3C283.45,89.54,285.58,88.93,287.41,86.8z"/>
			<path d="M218.98,76.32c-4.2,0.35-7.51,1.59-9.61,3.7v16.13c0,0,0.05,1.41-1.45,1.46h-6.31c-1.42-0.08-1.37-1.47-1.37-1.47V68.24
				c0.1-1.42,1.42-1.37,1.42-1.37h6.3c0,0,1.33-0.02,1.41,1.41v2.24c2.29-1.98,5.57-3.3,9.3-3.59c0,0,1.44-0.18,1.59,1.43v6.59
				C220.12,76.27,218.98,76.32,218.98,76.32z"/>
			<path d="M224.04,59v-5.48c0-0.97,0.55-1.52,1.52-1.52h6.08c0.97,0,1.52,0.55,1.52,1.52V59c0,0.97-0.55,1.52-1.52,1.52h-6.08
				C224.59,60.52,224.04,59.97,224.04,59z"/>
			<path d="M224.04,96.09V68.7c0-0.97,0.55-1.52,1.52-1.52h6.08c0.97,0,1.52,0.55,1.52,1.52v27.39c0,0.97-0.55,1.52-1.52,1.52h-6.08
				C224.59,97.6,224.04,97.06,224.04,96.09z"/>
			<path d="M194.9,52c-10.69,0-13.59,6.52-13.29,14.86h-4.3c-0.98,0-1.52,0.55-1.52,1.53v5.73c0,0.98,0.55,1.52,1.52,1.52h4.3v34.65
				c0,0.97,0.55,1.52,1.53,1.52h6.09c0.98,0,1.53-0.55,1.53-1.52V77.13c0.14-1.41,1.22-1.49,1.45-1.49h0.04h2.66
				c0.98,0,1.52-0.55,1.52-1.52v-5.73c0-0.97-0.55-1.53-1.52-1.53h-4.14c-0.24-4.05,0.68-5.9,4.08-6.08
				c1.04-0.06,1.59-0.49,1.59-1.46v-5.73C196.42,52.61,195.87,52,194.9,52"/>
			<path d="M110.76,65.58c-6.8,0-13.14,3.1-13.14,9.98c0,11.8,16.9,7.79,16.9,12.17c0,1.22-1.03,2.07-3.75,2.07
				c-1.28,0-2.25-0.27-2.91-0.74c-0.34-0.25-0.6-0.55-0.78-0.9c-0.46-0.79-0.77-1.28-1.75-1.28h-6.34c-1.04,0-1.68,0.55-1.55,1.58
				c0.36,2.98,1.82,5.18,3.94,6.68c2.47,1.76,5.84,2.56,9.39,2.56c7.12,0,13.47-2.98,13.47-9.98c0-11.86-16.89-7.67-16.89-12.17
				c0-1.22,1.04-2.07,3.43-2.07c1.49,0,2.59,0.61,3.04,1.58c0.45,0.85,0.78,1.34,1.75,1.34h6.34c1.04,0,1.68-0.55,1.55-1.58
				C122.67,68.38,116.78,65.58,110.76,65.58"/>
			<path d="M35.87,53.58v42.59c0,0.98-0.55,1.52-1.52,1.52h-6.09c-0.97,0-1.52-0.55-1.52-1.52V94c-2.04,2.32-5,3.69-9.07,3.69
				c-7.97,0-14.54-7-14.54-16.07c0-9.07,6.57-16.07,14.54-16.07c4.07,0,7.03,1.37,9.07,3.7V53.58c0-0.97,0.55-1.52,1.52-1.52h6.09
				C35.32,52.06,35.87,52.61,35.87,53.58z M25.99,78.06c-1.15-2.44-3.53-3.86-6.49-3.86c-4.2,0-7.24,2.86-7.24,7.42
				c0,4.57,3.05,7.43,7.24,7.43c2.96,0,5.34-1.42,6.49-3.86V78.06z"/>
			<path d="M71.66,81.5c0,9.31-6.7,16.23-16.01,16.23c-9.31,0-16.01-6.92-16.01-16.23c0-9.19,6.69-15.92,16.01-15.92
				C64.96,65.57,71.66,72.31,71.66,81.5z M62.35,81.67c0-3.94-2.68-7.12-6.64-7.12c-4.02,0-6.69,3.18-6.69,7.12
				c0,4.06,2.68,7.31,6.69,7.31C59.67,88.98,62.35,85.73,62.35,81.67z"/>
			<path d="M86.9,52H80.8c-0.98,0-1.53,0.55-1.53,1.52v12.02h-4.21c-0.97,0-1.52,0.55-1.52,1.52v5.93c0,0.98,0.55,1.52,1.52,1.52
				h4.21c0,3.08,0.05,5.73,0,8.34c-0.2,10.19,3.97,14.86,13.19,14.86h0.1c0.98,0,1.52-0.61,1.52-1.59V90.4
				c0-0.97-0.55-1.39-1.59-1.46c-4.13-0.29-4.08-2.84-4.08-6.09c0-2.13,0-7,0-7c0.15-1.32,1.27-1.34,1.34-1.34h0h2.8
				c0.98,0,1.52-0.55,1.52-1.52v-5.93c0-0.97-0.55-1.52-1.52-1.52h-4.14V53.52C88.42,52.55,87.87,52,86.9,52"/>
			<path d="M309.08,59.11h0.67c0.2,0,0.36,0.05,0.47,0.16c0.11,0.11,0.17,0.25,0.17,0.43c0,0.18-0.06,0.33-0.18,0.47
				c-0.12,0.13-0.26,0.2-0.41,0.2h-0.73V59.11z M308.36,63.5h0.25c0.31,0,0.47-0.08,0.47-0.25v-1.87h0.3c0.23,0,0.39,0.03,0.5,0.1
				c0.1,0.07,0.19,0.19,0.27,0.35l0.6,1.5c0.05,0.11,0.2,0.16,0.45,0.16h0.32c0.3,0,0.45-0.05,0.45-0.15l-0.04-0.15l-0.67-1.69
				c-0.13-0.34-0.32-0.57-0.56-0.67v-0.05c0.6-0.24,0.91-0.65,0.91-1.22c0-0.96-0.64-1.44-1.91-1.44h-1.5c-0.2,0-0.3,0.1-0.3,0.3
				v4.84C307.89,63.42,308.05,63.5,308.36,63.5z M309.64,56.79c1.12,0,2.07,0.4,2.86,1.18c0.79,0.79,1.18,1.74,1.18,2.86
				c0,1.12-0.39,2.07-1.18,2.86c-0.79,0.79-1.74,1.18-2.86,1.18c-1.12,0-2.07-0.4-2.86-1.18c-0.79-0.79-1.18-1.74-1.18-2.86
				c0-1.12,0.39-2.07,1.18-2.86C307.57,57.18,308.52,56.79,309.64,56.79z M309.64,65.76c1.36,0,2.52-0.48,3.48-1.45
				c0.96-0.96,1.44-2.12,1.44-3.48c0-1.36-0.48-2.52-1.44-3.48c-0.96-0.96-2.12-1.44-3.48-1.44c-1.36,0-2.52,0.48-3.48,1.44
				c-0.96,0.96-1.44,2.12-1.44,3.48c0,1.36,0.48,2.52,1.44,3.48C307.12,65.27,308.28,65.76,309.64,65.76z"/>
		</g>
	</g>
</g>
</svg>
