<svg xmlns="http://www.w3.org/2000/svg" viewBox="0 0 508.65 391.84"><defs><style>.cls-1{isolation:isolate;}.cls-2{opacity:0.6;mix-blend-mode:multiply;}.cls-3{fill:#bd859a;}.cls-4{fill:#f0acc4;opacity:0.3;}.cls-5{fill:#f6d0de;}.cls-6{fill:#1a1a1a;}.cls-7{fill:#b7114e;}.cls-8{fill:#fff;}.cls-9{fill:#f1b3ca;}.cls-10{fill:#e46b97;}.cls-11{fill:#9a0e41;}.cls-12{fill:#de4e83;}</style></defs><title>Asset 3dots-reference-checks</title><g class="cls-1"><g id="Layer_2" data-name="Layer 2"><g id="Why_Us_-_Eco_Process" data-name="Why Us - Eco Process"><g class="cls-2"><path class="cls-3" d="M140.54,316.18a6.12,6.12,0,1,1,0-12.2H189a6.12,6.12,0,1,1,0,12.2H140.54m73.07-59.41-6.11,5.44-5.87,6.14-12.72,2.7-16.3-2.67L159,276.8l-11.43,12.42-14.44,3.51-17.78-6.39v33.3a5.62,5.62,0,0,0,5.61,5.61h87a5.62,5.62,0,0,0,5.6-5.61V256.77"/><path class="cls-3" d="M394.61,107.65H226.47a7.58,7.58,0,0,0-7.58,7.58v98.25a7.58,7.58,0,0,0,7.58,7.58H394.61a7.58,7.58,0,0,0,7.59-7.58h-2a5.6,5.6,0,0,1-5.61,5.6H226.47a5.6,5.6,0,0,1-5.61-5.6V115.23a5.6,5.6,0,0,1,5.61-5.61H394.61a5.6,5.6,0,0,1,5.61,5.61v98.25h2V115.23a7.58,7.58,0,0,0-7.59-7.58"/><path class="cls-3" d="M304,143.91h-3.3a4,4,0,0,0-4,4v.66a4,4,0,0,0,4,3.95H304a4,4,0,0,0,3.95-3.95h-1.32a2.65,2.65,0,0,1-2.63,2.64h-3.3a2.65,2.65,0,0,1-2.64-2.64v-.66a2.67,2.67,0,0,1,.77-1.87,2.63,2.63,0,0,1,1.87-.77H304a2.63,2.63,0,0,1,2.63,2.64v.66h1.32v-.66a4,4,0,0,0-3.95-4"/><path class="cls-3" d="M265,144.57h-7.25a3.3,3.3,0,0,0-3.3,3.3v.66a3.3,3.3,0,0,0,3.3,3.3H265a3.3,3.3,0,0,0,3.3-3.3v-.66a3.3,3.3,0,0,0-3.3-3.3"/><path class="cls-3" d="M261.32,195.19H240a7.48,7.48,0,0,0-5.1,2,6.41,6.41,0,0,0,0,9.58,7.52,7.52,0,0,0,5.1,2h21.32a7.56,7.56,0,0,0,5.11-2,6.56,6.56,0,0,0,2.15-4.79h-1.32a5.18,5.18,0,0,1-1.73,3.82,6.19,6.19,0,0,1-4.21,1.61H240a6.23,6.23,0,0,1-4.21-1.61,5.1,5.1,0,0,1,0-7.64,6.19,6.19,0,0,1,4.21-1.62h21.32a6.15,6.15,0,0,1,4.21,1.62,5.17,5.17,0,0,1,1.73,3.82h1.32a6.53,6.53,0,0,0-2.15-4.79,7.52,7.52,0,0,0-5.11-2"/><path class="cls-3" d="M387.69,122.15h-4a4,4,0,0,0-4,4v3.29a4,4,0,0,0,4,4h4a4,4,0,0,0,4-4h-1.32a2.65,2.65,0,0,1-2.64,2.64h-4a2.63,2.63,0,0,1-2.63-2.64v-3.29a2.63,2.63,0,0,1,2.63-2.64h4a2.65,2.65,0,0,1,2.64,2.64v3.29h1.32v-3.29a4,4,0,0,0-4-4"/><path class="cls-3" d="M407.72,82H370a7.8,7.8,0,1,0,0,15.6h37.7a7.8,7.8,0,1,0,0-15.6"/><polyline class="cls-3" points="149.65 95.78 126.57 95.78 126.57 97.09 149.65 97.09 149.65 95.78"/><path class="cls-3" d="M208,107.65H121a7.58,7.58,0,0,0-7.59,7.58V319.64a7.58,7.58,0,0,0,7.59,7.58h87a7.58,7.58,0,0,0,7.58-7.58h-2a5.62,5.62,0,0,1-5.6,5.61H121a5.62,5.62,0,0,1-5.61-5.61V115.23a5.6,5.6,0,0,1,5.61-5.61h87a5.6,5.6,0,0,1,5.6,5.61V319.64h2V115.23a7.58,7.58,0,0,0-7.58-7.58"/><path class="cls-3" d="M149.65,88.52H127.23a1.32,1.32,0,0,0,0,2.64h22.42a1.32,1.32,0,0,0,0-2.64"/><path class="cls-3" d="M183.94,88.52H164.81a1.32,1.32,0,0,0,0,2.64h19.13a1.32,1.32,0,0,0,0-2.64"/><path class="cls-3" d="M250.54,146.55H230.1a1.32,1.32,0,0,0,0,2.64h20.44a1.32,1.32,0,1,0,0-2.64"/><path class="cls-3" d="M293.4,146.55H278.89a1.32,1.32,0,0,0,0,2.64H293.4a1.32,1.32,0,0,0,0-2.64"/><path class="cls-3" d="M343.51,143.91h-3.3a4,4,0,0,0-3.95,4v.66a4,4,0,0,0,3.95,3.95h3.3a4,4,0,0,0,4-3.95h-1.32a2.65,2.65,0,0,1-2.64,2.64h-3.3a2.65,2.65,0,0,1-2.63-2.64v-.66a2.63,2.63,0,0,1,2.63-2.64h3.3a2.63,2.63,0,0,1,1.87.77,2.67,2.67,0,0,1,.77,1.87v.66h1.32v-.66a4,4,0,0,0-4-4"/><path class="cls-3" d="M333,146.55H318.45a1.32,1.32,0,0,0,0,2.64H333a1.32,1.32,0,1,0,0-2.64"/><path class="cls-3" d="M387,143.91h-3.3a4,4,0,0,0-4,4v.66a4,4,0,0,0,4,3.95H387a4,4,0,0,0,4-3.95h-1.32a2.65,2.65,0,0,1-2.64,2.64h-3.3a2.65,2.65,0,0,1-2.63-2.64v-.66a2.63,2.63,0,0,1,2.63-2.64H387a2.63,2.63,0,0,1,1.87.77,2.67,2.67,0,0,1,.77,1.87v.66H391v-.66a4,4,0,0,0-4-4"/><path class="cls-3" d="M376.48,146.55H354.06a1.32,1.32,0,1,0,0,2.64h22.42a1.32,1.32,0,0,0,0-2.64"/><path class="cls-3" d="M394.61,224.36H226.47a7.58,7.58,0,0,0-7.58,7.58V320.3a7.58,7.58,0,0,0,7.58,7.58H394.61a7.58,7.58,0,0,0,7.59-7.58h-2a5.6,5.6,0,0,1-5.61,5.6H226.47a5.6,5.6,0,0,1-5.61-5.6V231.94a5.6,5.6,0,0,1,5.61-5.6H394.61a5.6,5.6,0,0,1,5.61,5.6V320.3h2V231.94a7.58,7.58,0,0,0-7.59-7.58"/><path class="cls-3" d="M382.41,267.22H228.12a4,4,0,0,0-4,3.95V287a4,4,0,0,0,4,4H382.41a4,4,0,0,0,4-4V271.17a4,4,0,0,0-4-3.95"/><path class="cls-3" d="M375.82,296.23h-3.3a4,4,0,0,0-3.95,4v3.29a4,4,0,0,0,3.95,4h3.3a4,4,0,0,0,4-4h-1.32a2.63,2.63,0,0,1-2.64,2.64h-3.3a2.63,2.63,0,0,1-2.63-2.64v-3.29a2.63,2.63,0,0,1,2.63-2.64h3.3a2.63,2.63,0,0,1,1.87.77,2.67,2.67,0,0,1,.77,1.87v3.29h1.32v-3.29a4,4,0,0,0-4-4"/><path class="cls-3" d="M277.57,234.91H230.76a2.31,2.31,0,1,0,0,4.61h46.81a2.31,2.31,0,1,0,0-4.61"/><path class="cls-3" d="M270.32,242.16H230.1a1.32,1.32,0,1,0,0,2.64h40.22a1.32,1.32,0,0,0,0-2.64"/><path class="cls-3" d="M259.11,300.85h-29a1.32,1.32,0,1,0,0,2.63h29a1.32,1.32,0,1,0,0-2.63"/><path class="cls-3" d="M239.33,255.35H230.1a1.32,1.32,0,0,0,0,2.64h9.23a1.32,1.32,0,0,0,0-2.64"/><path class="cls-3" d="M281.53,255.35H270.32a1.32,1.32,0,0,0,0,2.64h11.21a1.32,1.32,0,1,0,0-2.64"/><path class="cls-3" d="M361.31,300.85H347.47a1.32,1.32,0,1,0,0,2.63h13.84a1.32,1.32,0,1,0,0-2.63"/><path class="cls-3" d="M329,300.85H270.32a1.32,1.32,0,1,0,0,2.63H329a1.32,1.32,0,1,0,0-2.63"/><path class="cls-3" d="M277.57,122.15H230.76a2.31,2.31,0,0,0,0,4.62h46.81a2.31,2.31,0,1,0,0-4.62"/><path class="cls-3" d="M270.32,129.4H230.1a1.32,1.32,0,0,0,0,2.64h40.22a1.32,1.32,0,1,0,0-2.64"/></g><path class="cls-4" d="M244.39,0c-31,0-56.42,14-72.83,36.43h157C299.9,4.62,279.78,2,251,.21Q247.66,0,244.39,0"/><path class="cls-4" d="M81.73,121.85c-11.37,7.74-23.5,16.19-36.19,25.76-94,70.89-13.4,208.67-13.4,208.67s400.46,1.27,441.94,1.27c30.63-38.92,56.56-136.17,6-162.08-12.28-6.29-22.61-11.71-31.74-17.13V335.8H81.73V121.85"/><path class="cls-5" d="M117.89,115.38a7,7,0,0,0-2.88,3.9l-6.05,26a2.64,2.64,0,0,0,2,3.16l100.83,23.46a2.64,2.64,0,0,0,3.16-2l8.37-36a2.65,2.65,0,0,0-2-3.17l-90.24-21a7.69,7.69,0,0,0-4.85.72Z"/><polyline class="cls-5" points="216.29 164.09 223.9 131.4 163.88 117.44"/><path class="cls-6" d="M217.26,164.32l7.6-32.69a1,1,0,0,0-.12-.75,1,1,0,0,0-.62-.44l-60-14a1,1,0,0,0-.44,1.93l59.05,13.73-7.38,31.73a1,1,0,1,0,1.93.45Z"/><polyline class="cls-5" points="143.6 112.72 128.52 109.22 115.61 116.71 108.37 147.86 204.48 170.21"/><path class="cls-6" d="M143.82,111.76l-15.07-3.51a1,1,0,0,0-.72.11l-12.92,7.49a1,1,0,0,0-.46.63l-7.25,31.15a1,1,0,0,0,.74,1.19l96.12,22.36a1,1,0,0,0,.44-1.93l-95.15-22.13,6.93-29.77,12.2-7.08,14.7,3.42a1,1,0,0,0,.44-1.93Z"/><path class="cls-6" d="M204.26,134.62l10.53,2.45-6.12,26.33-91.2-21.21,6.13-26.33L180,129l10.69,2.49,8.62,2a1,1,0,0,0,.45-1.93l-8.62-2L180.39,127l-57.31-13.33a1,1,0,0,0-1.19.74l-6.57,28.25a1,1,0,0,0,.12.75,1,1,0,0,0,.62.44l93.13,21.66a1,1,0,0,0,1.18-.74L217,136.55a1,1,0,0,0-.13-.74,1,1,0,0,0-.61-.44l-11.51-2.68a1,1,0,0,0-.44,1.93Z"/><path class="cls-7" d="M174,141.46a8.07,8.07,0,1,1-6-9.69A8.07,8.07,0,0,1,174,141.46Z"/><path class="cls-6" d="M159.49,137.18a7.09,7.09,0,0,1,6.64-4.63,7.43,7.43,0,0,1,1.61.18,7.09,7.09,0,0,1,5.47,6.89q0,.34,0,.69a1,1,0,0,0,2,.2,8.83,8.83,0,0,0,0-.89,9,9,0,0,0-7-8.81,9.18,9.18,0,0,0-2.06-.24,9.06,9.06,0,0,0-8.5,5.93,1,1,0,0,0,1.86.68Z"/><path class="cls-6" d="M172.57,142.57a7.1,7.1,0,0,1-6.43,4.14,7.43,7.43,0,0,1-1.61-.18,7.09,7.09,0,0,1-5.48-6.89c0-.12,0-.23,0-.33a1,1,0,0,0-2-.11c0,.15,0,.29,0,.44a9.06,9.06,0,0,0,17.31,3.74,1,1,0,0,0-.5-1.3,1,1,0,0,0-1.3.49Z"/><path class="cls-7" d="M180,141.58a3,3,0,1,1-.48,2.75"/><path class="cls-6" d="M180.79,142.19a2,2,0,0,1,1.6-.79,2.3,2.3,0,0,1,.45,0,2,2,0,0,1,1.56,2,2.49,2.49,0,0,1-.05.46,2,2,0,0,1-2,1.55,2.49,2.49,0,0,1-.46,0,2,2,0,0,1-1.46-1.35,1,1,0,0,0-1.88.61,4,4,0,0,0,2.9,2.67,4,4,0,0,0,4.78-3,3.47,3.47,0,0,0,.11-.9,4,4,0,0,0-7.15-2.43,1,1,0,1,0,1.56,1.21Z"/><path class="cls-7" d="M146.8,137.68a3,3,0,1,1,3,.85"/><path class="cls-6" d="M147.52,137a2,2,0,0,1-.54-1.36,2.31,2.31,0,0,1,.05-.46h0a2,2,0,0,1,2-1.56,2.49,2.49,0,0,1,.46.05,2,2,0,0,1,1.55,2,1.85,1.85,0,0,1-.05.46,2,2,0,0,1-1.42,1.48,1,1,0,1,0,.52,1.91,4,4,0,0,0,2.83-2.94,4.09,4.09,0,0,0,.1-.91,4,4,0,0,0-3.08-3.88,4.11,4.11,0,0,0-.91-.11,4,4,0,0,0-3.88,3.09h0a3.93,3.93,0,0,0,1,3.62,1,1,0,1,0,1.45-1.35Z"/><path class="cls-7" d="M121.92,144c.73-3.15-1.63-6.64-4.2-7.24l-1.44,6.19,5.46,1.27"/><path class="cls-6" d="M122.88,144.2a6.25,6.25,0,0,0,.16-1.42,7.64,7.64,0,0,0-1.51-4.45,6.45,6.45,0,0,0-3.58-2.55,1,1,0,0,0-1.19.74l-1.44,6.18a1,1,0,0,0,.12.75,1,1,0,0,0,.62.44l5.46,1.27a1,1,0,1,0,.45-1.93l-4.5-1,1.22-5.22-1-.23-.22,1a4.49,4.49,0,0,1,2.43,1.79,5.65,5.65,0,0,1,1.13,3.28,4,4,0,0,1-.11,1,1,1,0,0,0,1.93.45Z"/><path class="cls-7" d="M210.51,159c-3.14-.74-6.59,1.64-7.19,4.2l6.09,1.42,1.27-5.46"/><path class="cls-6" d="M210.74,158a6.25,6.25,0,0,0-1.42-.16,7.57,7.57,0,0,0-4.43,1.52,6.44,6.44,0,0,0-2.53,3.59,1,1,0,0,0,.74,1.19l6.09,1.41a1,1,0,0,0,1.18-.74l1.27-5.46a1,1,0,0,0-1.92-.44l-1.05,4.49-5.12-1.19-.23,1,1,.23a4.52,4.52,0,0,1,1.78-2.45,5.64,5.64,0,0,1,3.25-1.13,4.51,4.51,0,0,1,1,.11,1,1,0,1,0,.45-1.93Z"/><path class="cls-7" d="M210.32,135.4c-.73,3.14,1.6,6.76,4.17,7.35l1.49-6.42-5.46-1.27"/><path class="cls-6" d="M209.36,135.17a5.9,5.9,0,0,0-.17,1.44,8,8,0,0,0,1.5,4.5,6.34,6.34,0,0,0,3.57,2.61,1,1,0,0,0,.75-.13,1,1,0,0,0,.44-.61l1.5-6.43a1,1,0,0,0-.13-.74,1,1,0,0,0-.61-.44l-5.46-1.27a1,1,0,1,0-.45,1.92l4.49,1-1.27,5.46,1,.22.22-1A4.43,4.43,0,0,1,212.3,140a5.94,5.94,0,0,1-1.13-3.35,4.62,4.62,0,0,1,.11-1,1,1,0,1,0-1.92-.45Z"/><path class="cls-7" d="M121.75,120.29c3.15.74,6.59-1.64,7.19-4.21l-6.08-1.41-1.27,5.46"/><path class="cls-6" d="M121.53,121.26a5.64,5.64,0,0,0,1.41.15,7.5,7.5,0,0,0,4.43-1.52,6.4,6.4,0,0,0,2.53-3.58,1,1,0,0,0-.12-.75,1,1,0,0,0-.62-.44l-6.08-1.41a1,1,0,0,0-.75.12,1,1,0,0,0-.44.62l-1.27,5.45a1,1,0,1,0,1.93.45l1-4.49,5.12,1.19.22-1-1-.22a4.55,4.55,0,0,1-1.78,2.44,5.61,5.61,0,0,1-3.26,1.14,4.42,4.42,0,0,1-1-.11,1,1,0,0,0-.45,1.93Z"/><polygon class="cls-5" points="115.66 116.38 125.96 118.78 128.21 109.14 115.66 116.38"/><path class="cls-6" d="M115.66,116.38l-.23,1,10.31,2.4a1,1,0,0,0,1.19-.74l2.24-9.64a1,1,0,0,0-1.46-1.08l-12.55,7.24a1,1,0,0,0-.48,1,1,1,0,0,0,.75.81l.23-1,.49.86,10.57-6.11-1.5,6.46-9.34-2.17-.22,1,.49.86Z"/><line class="cls-5" x1="155.8" y1="115.56" x2="152.95" y2="114.9"/><path class="cls-6" d="M156,114.6l-2.86-.67a1,1,0,0,0-.45,1.93l2.86.67a1,1,0,1,0,.45-1.93"/><path class="cls-5" d="M410.84,193.79a7,7,0,0,1,2.29,4.27l2.26,26.61a2.65,2.65,0,0,1-2.41,2.85l-103.15,8.76a2.64,2.64,0,0,1-2.85-2.41l-3.12-36.79a2.63,2.63,0,0,1,2.4-2.85l92.31-7.84a7.73,7.73,0,0,1,4.7,1.41Z"/><polyline class="cls-5" points="306.47 227.89 303.63 194.45 365.03 189.24"/><path class="cls-6" d="M307.46,227.81l-2.76-32.46,60.41-5.13a1,1,0,0,0,.91-1.07,1,1,0,0,0-1.07-.9l-61.4,5.21a1,1,0,0,0-.9,1.07L305.49,228a1,1,0,0,0,1.06.9A1,1,0,0,0,307.46,227.81Z"/><polyline class="cls-5" points="385.78 187.48 401.2 186.17 412.91 195.43 415.61 227.3 317.29 235.64"/><path class="cls-6" d="M385.86,188.46l15-1.27L412,195.94l2.58,30.46-97.34,8.26a1,1,0,0,0-.9,1.07,1,1,0,0,0,1.07.9l98.33-8.35a1,1,0,0,0,.67-.35,1,1,0,0,0,.23-.72l-2.71-31.86a1,1,0,0,0-.37-.69l-11.71-9.27a1,1,0,0,0-.69-.21l-15.42,1.31a1,1,0,1,0,.16,2Z"/><path class="cls-6" d="M322.44,198.48l-11.76,1a1,1,0,0,0-.91,1.07l2.46,28.9a1,1,0,0,0,.35.68,1,1,0,0,0,.72.23l95.27-8.09a1,1,0,0,0,.9-1.07L407,192.29a1,1,0,0,0-1.06-.9l-58.64,5-10.94.92-8.82.75a1,1,0,0,0-.9,1.07,1,1,0,0,0,1.07.9l8.82-.74,10.94-.93,57.65-4.9,2.28,26.94-93.29,7.92-2.29-26.94,10.78-.91a1,1,0,0,0,.9-1.07,1,1,0,0,0-1.07-.9Z"/><path class="cls-7" d="M351.58,211.56a8.07,8.07,0,1,0,7.36-8.73A8.06,8.06,0,0,0,351.58,211.56Z"/><path class="cls-6" d="M368.48,209a9.07,9.07,0,0,0-8.85-7.18,6.91,6.91,0,0,0-.78,0h0a9.06,9.06,0,0,0-8.29,8.6,1,1,0,0,0,2,.09,7.08,7.08,0,0,1,6.47-6.72h0l.61,0a7.09,7.09,0,0,1,6.92,5.61,1,1,0,1,0,1.93-.41Z"/><path class="cls-6" d="M350.92,213.41a9.07,9.07,0,0,0,8.69,6.52l.78,0a9.06,9.06,0,0,0,8.25-8.15,1,1,0,0,0-2-.19,7.09,7.09,0,0,1-6.45,6.37l-.61,0a7.09,7.09,0,0,1-6.79-5.09,1,1,0,1,0-1.9.55Z"/><path class="cls-7" d="M345.61,210.82a3,3,0,1,0,.08,2.78"/><path class="cls-6" d="M346.47,210.33a4,4,0,0,0-3.48-2h-.34a4,4,0,0,0-3.65,4c0,.11,0,.23,0,.35h0a4,4,0,0,0,4,3.65h.34a4,4,0,0,0,3.24-2.22,1,1,0,1,0-1.77-.87,2,2,0,0,1-1.64,1.12H343a2,2,0,0,1-2-1.85h0v-.17a2,2,0,0,1,1.84-2H343a2,2,0,0,1,1.75,1,1,1,0,1,0,1.73-1Z"/><path class="cls-7" d="M379,211.72a3,3,0,1,0-4.87-2.08,3,3,0,0,0,1.78,2.49"/><path class="cls-6" d="M379.66,212.49a4,4,0,0,0,1.48-3.1c0-.11,0-.23,0-.34h0a4,4,0,0,0-4-3.65h-.34a4,4,0,0,0-3.65,4c0,.11,0,.23,0,.35h0a4,4,0,0,0,2.38,3.32,1,1,0,1,0,.79-1.81,2,2,0,0,1-1.2-1.67h0v-.17a2,2,0,0,1,1.84-2h.17a2,2,0,0,1,2,1.85h0c0,.06,0,.12,0,.18a2,2,0,0,1-.75,1.56,1,1,0,0,0,1.24,1.54Z"/><path class="cls-7" d="M402.76,221.52c-.28-3.22,2.56-6.34,5.19-6.56l.53,6.32-5.58.48"/><path class="cls-6" d="M403.74,221.43c0-.11,0-.23,0-.35a5.39,5.39,0,0,1,1.41-3.47,4.66,4.66,0,0,1,2.89-1.67l-.08-1-1,.08.45,5.34-4.6.39a1,1,0,0,0-.9,1.07,1,1,0,0,0,1.07.9l5.59-.47a1,1,0,0,0,.9-1.07l-.54-6.33a1,1,0,0,0-1.07-.9,6.57,6.57,0,0,0-4.2,2.33,7.33,7.33,0,0,0-1.91,4.78c0,.18,0,.35,0,.52a1,1,0,1,0,2-.17Z"/><path class="cls-7" d="M312.93,223.65c3.22-.28,6.29,2.57,6.51,5.19l-6.22.53-.48-5.58"/><path class="cls-6" d="M313,224.63h.35a5.32,5.32,0,0,1,3.45,1.41,4.69,4.69,0,0,1,1.64,2.9l1-.09-.08-1-5.24.44-.39-4.6a1,1,0,0,0-2,.17l.48,5.58a1,1,0,0,0,1.07.91l6.22-.53a1,1,0,0,0,.68-.35.94.94,0,0,0,.22-.72,6.58,6.58,0,0,0-2.3-4.2,7.22,7.22,0,0,0-4.76-1.92l-.52,0a1,1,0,0,0,.17,2Z"/><path class="cls-7" d="M316.5,200.35c.27,3.22-2.55,6.46-5.18,6.68l-.56-6.57,5.59-.47"/><path class="cls-6" d="M315.51,200.43c0,.12,0,.23,0,.35a5.71,5.71,0,0,1-1.42,3.56,5.85,5.85,0,0,1-1.42,1.2,3.51,3.51,0,0,1-1.46.51l.09,1,1-.08-.47-5.59,4.6-.39a1,1,0,1,0-.17-2l-5.58.48a1,1,0,0,0-.68.34,1.06,1.06,0,0,0-.23.73l.56,6.57a1,1,0,0,0,1.07.9,5.42,5.42,0,0,0,2.29-.77,7.9,7.9,0,0,0,2.68-2.68,7.33,7.33,0,0,0,1.14-3.79,4.36,4.36,0,0,0,0-.51,1,1,0,0,0-1.06-.91,1,1,0,0,0-.91,1.07Z"/><path class="cls-7" d="M406.32,198.1c-3.22.27-6.29-2.57-6.52-5.2l6.23-.52.47,5.58"/><path class="cls-6" d="M406.23,197.11l-.35,0a5.33,5.33,0,0,1-3.45-1.42,4.67,4.67,0,0,1-1.64-2.89l-1,.08.09,1,5.24-.45.39,4.6a1,1,0,1,0,2-.16l-.48-5.59a1,1,0,0,0-1.06-.9l-6.23.53a1,1,0,0,0-.9,1.07,6.58,6.58,0,0,0,2.3,4.2,7.32,7.32,0,0,0,4.76,1.92,4.53,4.53,0,0,0,.52,0,1,1,0,1,0-.17-2Z"/><polygon class="cls-5" points="412.91 195.1 402.37 196 401.53 186.13 412.91 195.1"/><path class="cls-6" d="M412.91,195.1l-.08-1-9.56.82-.56-6.61,9.59,7.56.61-.78-.08-1,.08,1,.61-.78-11.38-9a1,1,0,0,0-1.6.87l.84,9.86a1,1,0,0,0,1.07.9l10.54-.89a1,1,0,0,0,.87-.71,1,1,0,0,0-.34-1.06Z"/><line class="cls-5" x1="373.29" y1="188.54" x2="376.22" y2="188.29"/><path class="cls-6" d="M373.38,189.52l2.92-.25a1,1,0,0,0,.9-1.07,1,1,0,0,0-1.07-.9l-2.92.25a1,1,0,0,0-.9,1.07,1,1,0,0,0,1.07.9"/><path class="cls-8" d="M23.76,83.68S23.3,73.92,39,75.4c8.71.82,11.23,7.69,10.2,11.53,0,0,2.22-3.12,6.53-1,1.81.7,4.43,2.66,3.57,4.78.94-1.26,6.74-5.06,11-.47,2.47,2,3.37,6-2.58,6.74a163,163,0,0,1-26.26.59c-9.44-.64-9.72,1.11-27.89.39,0,0-7.5.41-7.59-6.76.5-3.79,7.59-3.63,8.58-1.57C15.13,87.29,16,80.49,23.76,83.68Z"/><path d="M23.76,83.68l1.31-.06-.83,0,.84,0h0l-.83,0,.84,0h0v0a5.77,5.77,0,0,1,.2-1.35A6.65,6.65,0,0,1,26,80.52a7.1,7.1,0,0,1,3-2.63,15.42,15.42,0,0,1,6.9-1.32,28.69,28.69,0,0,1,3,.15A10.56,10.56,0,0,1,46,80a8,8,0,0,1,2.06,5.21,5.4,5.4,0,0,1-.18,1.4,1.32,1.32,0,0,0,2.35,1.11l-.41-.29.4.3h0l-.41-.29.4.3a3.46,3.46,0,0,1,2.64-1.22,5.1,5.1,0,0,1,2.26.59l.09,0a6.85,6.85,0,0,1,2,1.26,4.14,4.14,0,0,1,.67.81,1.33,1.33,0,0,1,.19.63,1,1,0,0,1-.07.35,1.32,1.32,0,0,0,.57,1.65,1.33,1.33,0,0,0,1.71-.36,3,3,0,0,1,.55-.5,8.54,8.54,0,0,1,2-1.11,6.89,6.89,0,0,1,2.59-.53,5,5,0,0,1,2,.38,5.63,5.63,0,0,1,1.94,1.4l.12.12a4.49,4.49,0,0,1,1.06,1.23,2.43,2.43,0,0,1,.36,1.17,1.14,1.14,0,0,1-.11.53,1.8,1.8,0,0,1-.83.79,6.67,6.67,0,0,1-2.4.69l.18,1.31-.09-1.32c-1.06.08-3.14.3-6.06.5s-6.64.4-10.89.4c-2.84,0-5.91-.09-9.13-.31-1.54-.1-2.84-.14-4-.14-2.46,0-4.37.18-6.66.35s-5,.36-9.21.36c-2.22,0-4.84,0-8-.18H13.5v0h0v0h-.16a7.82,7.82,0,0,1-1.43-.13,6.26,6.26,0,0,1-3-1.33,4.3,4.3,0,0,1-1.1-1.5,6.42,6.42,0,0,1-.49-2.49H6l1.31.17a1.46,1.46,0,0,1,.3-.73,2.66,2.66,0,0,1,1.24-.82,6.26,6.26,0,0,1,2-.31,5.73,5.73,0,0,1,1.9.3,2.42,2.42,0,0,1,.54.27l.11.1,0,0h0a1.32,1.32,0,0,0,1.32.75,1.34,1.34,0,0,0,1.15-1c.13-.52.25-1.15.43-1.82a7.52,7.52,0,0,1,1.28-2.77,3.17,3.17,0,0,1,1-.83,3.35,3.35,0,0,1,1.54-.33,8.48,8.48,0,0,1,3.14.74,1.32,1.32,0,0,0,1.26-.14,1.29,1.29,0,0,0,.55-1.14l-1.31.06.5-1.22a10.9,10.9,0,0,0-4.14-.93,5.81,5.81,0,0,0-3.43,1,6.13,6.13,0,0,0-1.63,1.71,10.59,10.59,0,0,0-1.25,2.84c-.26.9-.42,1.71-.53,2.17l1.28.32L15.74,89a2.85,2.85,0,0,0-.93-1.09A5.33,5.33,0,0,0,13,87.09a8.79,8.79,0,0,0-2.15-.26,8,8,0,0,0-3.75.87A4.76,4.76,0,0,0,5.5,89a4,4,0,0,0-.82,2l0,.19a8.35,8.35,0,0,0,1.22,4.46,6.89,6.89,0,0,0,2,2A9.1,9.1,0,0,0,11.13,99a11.33,11.33,0,0,0,2.21.23h.3l-.07-1.32-.05,1.32c3.21.12,5.87.17,8.13.17,4.26,0,7.08-.18,9.41-.35s4.14-.36,6.46-.36c1.12,0,2.37,0,3.85.15,3.29.22,6.42.3,9.31.3,4.32,0,8.11-.19,11.08-.4s5.1-.43,6.05-.5h.08A8,8,0,0,0,72,96.7a4.17,4.17,0,0,0,1.13-1.43,3.87,3.87,0,0,0,.36-1.65,5,5,0,0,0-.71-2.48,7.11,7.11,0,0,0-1.67-2l-.84,1,1-.9a8.42,8.42,0,0,0-2.84-2,7.68,7.68,0,0,0-3-.59,10,10,0,0,0-4.56,1.18,12,12,0,0,0-1.6,1,6.11,6.11,0,0,0-1.06,1l1.06.79,1.22.49a3.49,3.49,0,0,0,.27-1.34,3.84,3.84,0,0,0-.54-1.92,6.73,6.73,0,0,0-1.86-2,9.34,9.34,0,0,0-2.18-1.21l-.48,1.23.58-1.19a7.78,7.78,0,0,0-3.41-.84A6,6,0,0,0,49.36,85a5.53,5.53,0,0,0-1.25,1.19l1.08.76,1.27.35a7.93,7.93,0,0,0,.26-2.09,10.59,10.59,0,0,0-2.72-7,13.18,13.18,0,0,0-8.89-4.14c-1.14-.11-2.21-.16-3.2-.16a19,19,0,0,0-7.39,1.28,10.65,10.65,0,0,0-3.38,2.21,9,9,0,0,0-2.31,3.79,8,8,0,0,0-.39,2.39v.15l1.32-.07.5-1.22Z"/><path class="cls-8" d="M288.1,51.55s-.68-6.62,5.16-6.82c3.31-.29,5.84.68,6.23,1.85.3-3.11-2-9.25,9.55-10.22,3.79-.3,10.61,4.57,9.44,9.25,1-.68,9.93-1.76,10.23,4.87,1.75-1.27,9.63-1.95,10.32,3.6.09,2.43-2.92,4.77-9.35,6-4.42.88-13.11,4.4-25.79,3.85-5.76-.26-14.95-1-20.36-3.85C279.78,58.16,275.44,50.77,288.1,51.55Z"/><path d="M288.1,51.55l1.31-.14-.3,0,.3,0h0l-.3,0,.3,0s0-.2,0-.49a7,7,0,0,1,.12-1.4,4.76,4.76,0,0,1,1-2.33,3.17,3.17,0,0,1,1-.77,4.42,4.42,0,0,1,1.74-.37h.07c.36,0,.71,0,1.05,0a8.34,8.34,0,0,1,2.94.47,3.12,3.12,0,0,1,.74.4l.13.13v0l.12-.06-.13,0v0l.12-.06-.13,0a1.32,1.32,0,0,0,2.57-.3c0-.28,0-.56,0-.83,0-.68,0-1.35,0-2a7.88,7.88,0,0,1,.22-2,3.93,3.93,0,0,1,.6-1.3,5.17,5.17,0,0,1,2.29-1.72,17.06,17.06,0,0,1,5.24-1.13h.22a6.55,6.55,0,0,1,2.42.59A11.44,11.44,0,0,1,315.64,41a7.12,7.12,0,0,1,1.23,1.8,4.14,4.14,0,0,1,.42,1.74,3.37,3.37,0,0,1-.09.77,1.32,1.32,0,0,0,.53,1.4,1.34,1.34,0,0,0,1.51,0l-.36-.51.29.55.07,0-.36-.51.29.55-.09-.19.09.19h0l-.09-.19.09.19.23-.08a10,10,0,0,1,2.22-.24,10.42,10.42,0,0,1,2.06.2,5.49,5.49,0,0,1,2.58,1.21A3.42,3.42,0,0,1,327,48.9a4.52,4.52,0,0,1,.36,1.63,1.32,1.32,0,0,0,2.09,1,2.21,2.21,0,0,1,.36-.18,6.86,6.86,0,0,1,1.2-.31,9,9,0,0,1,1.6-.14,7,7,0,0,1,3.42.78,3.39,3.39,0,0,1,1.1,1,3.54,3.54,0,0,1,.56,1.56l1.31-.16-1.32.05v.06a1.79,1.79,0,0,1-.35,1,6.29,6.29,0,0,1-2.52,1.92,22.69,22.69,0,0,1-5.42,1.68c-1.1.22-2.37.57-3.85,1a68.36,68.36,0,0,1-19,2.91q-1.29,0-2.64-.06a94.41,94.41,0,0,1-10.17-.94A32.75,32.75,0,0,1,284.14,59a7.17,7.17,0,0,1-2.2-1.9,5.25,5.25,0,0,1-.72-1.19,2.6,2.6,0,0,1-.24-1,1.12,1.12,0,0,1,.16-.62,1.49,1.49,0,0,1,.41-.45,4.54,4.54,0,0,1,1.62-.67,13.88,13.88,0,0,1,3.16-.3c.52,0,1.08,0,1.69,0a1.3,1.3,0,0,0,1-.4,1.32,1.32,0,0,0,.36-1.05l-1.31.14.08-1.32c-.65,0-1.27-.06-1.85-.06a17,17,0,0,0-3.41.3A6.58,6.58,0,0,0,279.54,52a3.82,3.82,0,0,0-1.2,2.81,5.23,5.23,0,0,0,.45,2,9,9,0,0,0,1.74,2.57,9.49,9.49,0,0,0,2.38,1.82,35.33,35.33,0,0,0,10.46,3,99.68,99.68,0,0,0,10.46,1c.94,0,1.86,0,2.76,0a65,65,0,0,0,14.51-1.67c2-.45,3.68-.92,5.17-1.32s2.72-.75,3.66-.93a21.21,21.21,0,0,0,7.53-2.73,7.27,7.27,0,0,0,2.09-2,4.47,4.47,0,0,0,.8-2.5.92.92,0,0,0,0-.16v-.11a6.18,6.18,0,0,0-1-2.74,6.34,6.34,0,0,0-3.1-2.31,10.51,10.51,0,0,0-3.59-.59,12.25,12.25,0,0,0-2.66.29,7.07,7.07,0,0,0-1.1.34,4.31,4.31,0,0,0-.95.5l.78,1.07,1.31-.06a6.68,6.68,0,0,0-1-3.32,6.17,6.17,0,0,0-1.57-1.68,7.93,7.93,0,0,0-2.93-1.31,12.14,12.14,0,0,0-2.93-.33,12.27,12.27,0,0,0-2.25.19,5.76,5.76,0,0,0-.86.2,2.46,2.46,0,0,0-.38.14,1.86,1.86,0,0,0-.41.22l.76,1.08,1.28.32a5.67,5.67,0,0,0,.17-1.41,7.11,7.11,0,0,0-1.14-3.73,13.43,13.43,0,0,0-6.83-5.3,8.54,8.54,0,0,0-2.59-.47l-.43,0h0a20.53,20.53,0,0,0-5.54,1.13,9.33,9.33,0,0,0-2.71,1.53,6.45,6.45,0,0,0-2.1,3.08,9.58,9.58,0,0,0-.42,3.08c0,.76,0,1.46,0,2a5.34,5.34,0,0,1,0,.59l1.31.12,1.25-.42a2.87,2.87,0,0,0-1-1.33,6.12,6.12,0,0,0-2.28-1.09,11.49,11.49,0,0,0-3.06-.38c-.41,0-.84,0-1.28.06l.11,1.31,0-1.32a6.81,6.81,0,0,0-3.49,1A5.56,5.56,0,0,0,288.1,46,7.42,7.42,0,0,0,287,48.76a10.73,10.73,0,0,0-.22,2.16c0,.45,0,.73,0,.76l1.31-.13.08-1.32Z"/><path class="cls-6" d="M83.05,126.77V43a5.29,5.29,0,0,1,5.28-5.27H441.76A5.29,5.29,0,0,1,447,43V329.2a5.29,5.29,0,0,1-5.27,5.28H88.33a5.29,5.29,0,0,1-5.28-5.28V310.08a1.32,1.32,0,1,0-2.64,0V329.2a7.94,7.94,0,0,0,7.92,7.91H441.76a7.92,7.92,0,0,0,7.91-7.91V43a7.93,7.93,0,0,0-7.91-7.91H88.33A7.94,7.94,0,0,0,80.41,43v83.75a1.32,1.32,0,0,0,2.64,0Z"/><path class="cls-6" d="M83.05,269.2V182.82a1.32,1.32,0,0,0-2.64,0V269.2a1.32,1.32,0,1,0,2.64,0"/><path class="cls-6" d="M81.73,68.74H448.35a1.32,1.32,0,0,0,0-2.64H81.73a1.32,1.32,0,0,0,0,2.64"/><path class="cls-8" d="M419.72,165.59s-4.26-.46-3.33-7c.83-2.6,7.13-5.2,8.62-1,.27-1.67-1.49-7.7,7.6-5,.92-4.73,3-8.43,6.58-9s15.2-2.69,14,8.16c-.18,1,11.12-1.67,9.18,8.71,0,0,14.55-3.71,12.33,3.34-.37,2.87-2.14,2.78-8.9,3.24S424.26,166.61,419.72,165.59Z"/><path d="M419.72,165.59l.14-1.31-.09.87.11-.87h0l-.09.87.11-.87v.11l0-.11h0v.11l0-.11a2.4,2.4,0,0,1-1.18-.61,2.94,2.94,0,0,1-.76-1.11,5.94,5.94,0,0,1-.38-2.25,11.93,11.93,0,0,1,.12-1.58l-1.3-.18,1.25.4a2,2,0,0,1,.45-.68,5.33,5.33,0,0,1,1.66-1.14,5.12,5.12,0,0,1,2-.48,2.33,2.33,0,0,1,1.23.3,1.88,1.88,0,0,1,.75,1,1.32,1.32,0,0,0,2.55-.23,6,6,0,0,0,.05-.83c0-.31,0-.63,0-.95a7.38,7.38,0,0,1,.08-1.18,3,3,0,0,1,.19-.69,1.34,1.34,0,0,1,.56-.62,3,3,0,0,1,1.53-.31,12.66,12.66,0,0,1,3.52.63,1.36,1.36,0,0,0,1.06-.14,1.3,1.3,0,0,0,.61-.87A15.28,15.28,0,0,1,436,147.2a6.27,6.27,0,0,1,1.54-1.61,4.24,4.24,0,0,1,1.87-.76,35.16,35.16,0,0,1,5.27-.52,13.51,13.51,0,0,1,2.8.26,7,7,0,0,1,1.81.6,4.52,4.52,0,0,1,1.91,1.71,6.27,6.27,0,0,1,.77,3.3,11.08,11.08,0,0,1-.08,1.36l1.31.15-1.29-.26a1,1,0,0,0,0,.28,1.43,1.43,0,0,0,.32.9,1.47,1.47,0,0,0,.5.4,2.28,2.28,0,0,0,.65.21c.34.06.66.07,1,.1a21.8,21.8,0,0,1,2.25.18,9.47,9.47,0,0,1,1.77.4,4.37,4.37,0,0,1,2,1.34,3.84,3.84,0,0,1,.6,1.16,5.82,5.82,0,0,1,.24,1.77,11,11,0,0,1-.2,2,1.32,1.32,0,0,0,.4,1.2,1.3,1.3,0,0,0,1.22.32h0c.19,0,1.16-.28,2.46-.5a28,28,0,0,1,4.43-.43,8.2,8.2,0,0,1,3.15.49,1.58,1.58,0,0,1,.65.49,1.11,1.11,0,0,1,.19.67,3.4,3.4,0,0,1-.17,1,.86.86,0,0,0-.05.23,3.23,3.23,0,0,1-.15.67,1.18,1.18,0,0,1-.15.3,1,1,0,0,1-.44.32,8.1,8.1,0,0,1-2.31.46c-1.15.12-2.68.21-4.63.34-1.25.09-3.63.13-6.63.13-6.2,0-15.12-.17-22.92-.45-3.91-.14-7.54-.3-10.41-.48-1.43-.09-2.67-.19-3.66-.28s-1.73-.2-2.07-.28l-.15,0-.14,1.31-.29,1.29a23.92,23.92,0,0,0,2.39.32c3.61.35,10.17.66,17.22.88s14.57.35,20,.35c3,0,5.42,0,6.81-.13,1.68-.12,3.06-.2,4.22-.3a19.84,19.84,0,0,0,2.27-.31,6.55,6.55,0,0,0,1.38-.44,3.58,3.58,0,0,0,1.6-1.36,4.71,4.71,0,0,0,.64-2l-1.3-.16,1.25.39a5.76,5.76,0,0,0,.29-1.74,3.67,3.67,0,0,0-.68-2.21,4,4,0,0,0-1.22-1.1,7,7,0,0,0-2.25-.78,14.29,14.29,0,0,0-2.47-.19,30.88,30.88,0,0,0-5.14.5c-1.43.25-2.41.51-2.44.51l.33,1.28,1.29.24a13.17,13.17,0,0,0,.25-2.47,8.23,8.23,0,0,0-.49-2.92,6.13,6.13,0,0,0-2.73-3.19,11.62,11.62,0,0,0-5-1.31c-.71-.05-1.32-.07-1.67-.11l-.19,0h0l-.17.71.41-.6c-.18-.12-.24-.11-.24-.11l-.17.71.41-.6-.64,1,1-.61a1.18,1.18,0,0,0-.32-.34l-.64,1,1-.61-1,.64h1.21a1.17,1.17,0,0,0-.19-.64l-1,.64h0l1.18.23a1.21,1.21,0,0,0,0-.23h-1.2l1.18.23v-.11a13.51,13.51,0,0,0,.1-1.65,9.17,9.17,0,0,0-.92-4.23,6.74,6.74,0,0,0-1.74-2.18,8.73,8.73,0,0,0-3.51-1.69,15.64,15.64,0,0,0-3.76-.41,36.14,36.14,0,0,0-5.67.56,6.94,6.94,0,0,0-3,1.19,9.79,9.79,0,0,0-3.05,3.74,20.56,20.56,0,0,0-1.65,5.11l1.3.25.37-1.26a15,15,0,0,0-4.27-.74,5.79,5.79,0,0,0-2.59.53,3.83,3.83,0,0,0-1.34,1.06,4.47,4.47,0,0,0-.91,2,8.86,8.86,0,0,0-.16,1.84c0,.37,0,.7,0,.95a2.5,2.5,0,0,1,0,.4l1.31.22,1.24-.45a4.59,4.59,0,0,0-1.85-2.37,4.87,4.87,0,0,0-2.62-.7,8.14,8.14,0,0,0-4,1.19,7.55,7.55,0,0,0-1.58,1.26,4.57,4.57,0,0,0-1,1.68,1.74,1.74,0,0,0-.05.22,13.85,13.85,0,0,0-.15,1.95,8.31,8.31,0,0,0,.66,3.43,5.53,5.53,0,0,0,2.41,2.64,4.57,4.57,0,0,0,1.58.52l.14-1.31-.29,1.29Z"/><path class="cls-6" d="M144.16,214.18s0-.3,0-.82,0-1.26,0-2.15,0-1.92.07-3,.14-2.3.26-3.49c.06-.59.15-1.18.22-1.77s.2-1.16.29-1.72l.35-1.61.39-1.44.41-1.22a8.86,8.86,0,0,1,.38-.93l.35-.82a1.78,1.78,0,1,1,3.27,1.43l0,.07-.07.14-.32.64a7.89,7.89,0,0,0-.34.74l-.4,1c-.13.39-.26.81-.41,1.25s-.25.93-.38,1.43-.23,1-.34,1.57-.21,1.08-.29,1.64c-.17,1.11-.32,2.23-.41,3.28s-.17,2.05-.22,2.9,0,1.55,0,2.05a2.14,2.14,0,0,0,.1.76v0a1.43,1.43,0,0,1-2.85.05Z"/><path class="cls-6" d="M161.52,214.09s0-.28,0-.76,0-1.2-.06-2.05-.1-1.84-.21-2.9-.24-2.17-.41-3.28c-.08-.56-.19-1.1-.29-1.64s-.22-1.06-.34-1.57-.26-1-.38-1.43-.28-.86-.41-1.25-.28-.71-.4-1a7.89,7.89,0,0,0-.34-.74c-.2-.4-.31-.64-.31-.64l-.07-.14a1.78,1.78,0,0,1,3.2-1.57l0,.07.36.82c.1.26.26.57.37.93l.41,1.22c.13.44.26.93.39,1.44s.23,1,.35,1.61.19,1.13.29,1.72.16,1.18.22,1.77c.12,1.19.22,2.38.26,3.49s.07,2.14.07,3,0,1.63,0,2.15,0,.82,0,.82a1.34,1.34,0,0,1-2.67,0Z"/><path class="cls-6" d="M352.52,313.09s0-.3,0-.82,0-1.26,0-2.15,0-1.92.07-3,.14-2.3.26-3.49c.06-.59.15-1.19.22-1.77s.2-1.16.29-1.72l.35-1.61.39-1.44.41-1.22c.11-.36.27-.67.37-.93l.36-.82a1.78,1.78,0,0,1,3.27,1.43l0,.07-.08.14-.31.64a7.89,7.89,0,0,0-.34.74c-.12.3-.26.64-.4,1s-.26.81-.41,1.25-.25.93-.38,1.43-.23,1-.34,1.56-.21,1.09-.29,1.65c-.17,1.11-.32,2.23-.42,3.28s-.16,2-.21,2.9,0,1.55,0,2.05a2.26,2.26,0,0,0,.11.76v0a1.44,1.44,0,0,1-2.86,0Z"/><path class="cls-6" d="M367.91,313s0-.28,0-.76,0-1.21-.06-2.05-.1-1.84-.21-2.9-.24-2.17-.41-3.28c-.08-.56-.19-1.1-.29-1.65s-.23-1.05-.34-1.56-.26-1-.38-1.43-.28-.86-.41-1.25-.28-.71-.4-1a7.89,7.89,0,0,0-.34-.74l-.31-.64-.07-.14a1.78,1.78,0,0,1,3.2-1.57l0,.07.36.82c.1.26.26.57.37.93l.41,1.22c.13.44.26.93.39,1.44s.23,1.05.35,1.61.19,1.13.29,1.72.16,1.18.22,1.77c.12,1.19.22,2.38.26,3.49s.07,2.14.07,3,0,1.62,0,2.15,0,.82,0,.82a1.34,1.34,0,0,1-2.67,0Z"/><path class="cls-6" d="M134,153.23s.08.29.25.83.43,1.3.79,2.19a28.12,28.12,0,0,0,3.34,6.11c.37.51.76,1,1.16,1.44s.82.86,1.24,1.23a11.84,11.84,0,0,0,2.47,1.69,9.07,9.07,0,0,0,1,.47c.32.12.61.19.84.27l.74.16.12,0a1.79,1.79,0,1,1-.77,3.49l-.19,0-1-.34c-.31-.13-.69-.27-1.1-.48a12.87,12.87,0,0,1-1.34-.77,15.18,15.18,0,0,1-2.85-2.43,18.5,18.5,0,0,1-1.3-1.6c-.4-.56-.79-1.15-1.14-1.75a30.38,30.38,0,0,1-2.9-6.91c-.28-1-.47-1.8-.59-2.38s-.17-.92-.17-.92a.68.68,0,0,1,.57-.79A.69.69,0,0,1,134,153.23Z"/><path class="cls-6" d="M182.39,158.78s0,.35-.17.93-.31,1.4-.59,2.37a30.25,30.25,0,0,1-2.9,6.92c-.35.6-.74,1.18-1.14,1.75a18.78,18.78,0,0,1-1.31,1.59,14.85,14.85,0,0,1-2.84,2.44,12,12,0,0,1-1.34.76c-.41.21-.79.35-1.1.49l-1,.33a1.79,1.79,0,0,1-1.14-3.39l.19-.05.11,0,.75-.17c.23-.08.52-.14.83-.27a9,9,0,0,0,1.06-.46,11.88,11.88,0,0,0,2.46-1.7c.42-.37.84-.79,1.25-1.23s.79-.93,1.16-1.43a28.35,28.35,0,0,0,3.34-6.11c.36-.9.62-1.66.79-2.19s.25-.84.25-.84a.69.69,0,0,1,1.34.28Z"/><path class="cls-8" d="M166.13,162.38v-6.63a8.24,8.24,0,1,0-16.48,0v6.63S158.25,166.72,166.13,162.38Z"/><path class="cls-6" d="M166.13,162.38h1.32v-6.63a9.56,9.56,0,1,0-19.12,0v6.63a1.32,1.32,0,0,0,.72,1.17,22.34,22.34,0,0,0,9.3,2.07,17.12,17.12,0,0,0,8.42-2.09,1.32,1.32,0,0,0,.68-1.15h-1.32l-.63-1.16a14.65,14.65,0,0,1-7.15,1.77,20.13,20.13,0,0,1-5.79-.91c-.74-.23-1.33-.45-1.73-.62l-.45-.2-.11,0h0l-.26.51.26-.51h0l-.26.51.26-.51-.59,1.18H151v-6.63a6.92,6.92,0,1,1,13.84,0v6.63h1.32l-.63-1.16Z"/><path class="cls-5" d="M156.8,294.49a3.32,3.32,0,0,1-4.25,1.94L135.23,290a3.31,3.31,0,0,1-1.94-4.24l.09-.23a3.3,3.3,0,0,1,4.24-1.94L154.94,290a3.31,3.31,0,0,1,1.94,4.24Z"/><path class="cls-6" d="M156.8,294.49l-.93-.34a2.33,2.33,0,0,1-2.17,1.5,2.22,2.22,0,0,1-.8-.15l-17.33-6.45a2.32,2.32,0,0,1-1.5-2.17,2.26,2.26,0,0,1,.15-.8l.08-.23a2.33,2.33,0,0,1,2.17-1.5,2.25,2.25,0,0,1,.8.14L154.6,291a2.32,2.32,0,0,1,1.5,2.17,2.21,2.21,0,0,1-.15.79l-.08.24.93.34.92.35.09-.24a4.25,4.25,0,0,0,.27-1.48,4.32,4.32,0,0,0-2.79-4L138,282.64a4.28,4.28,0,0,0-5.51,2.52l-.09.23a4.28,4.28,0,0,0,2.52,5.51l17.33,6.46a4.32,4.32,0,0,0,5.51-2.52Z"/><path class="cls-5" d="M151.62,294.49a3.31,3.31,0,0,0,4.24,1.94L173.18,290a3.3,3.3,0,0,0,1.94-4.24l-.08-.23a3.3,3.3,0,0,0-4.24-1.94L153.47,290a3.31,3.31,0,0,0-1.94,4.24Z"/><path class="cls-6" d="M151.62,294.49l-.93.35a4.32,4.32,0,0,0,5.51,2.52l17.33-6.46a4.28,4.28,0,0,0,2.52-5.51l-.09-.23a4.28,4.28,0,0,0-5.51-2.52l-17.32,6.45a4.3,4.3,0,0,0-2.79,4,4.24,4.24,0,0,0,.26,1.48l.09.24.93-.35.92-.34-.08-.24a2.21,2.21,0,0,1-.15-.79,2.31,2.31,0,0,1,1.51-2.17l17.32-6.46a2.25,2.25,0,0,1,.8-.14,2.32,2.32,0,0,1,2.17,1.5l.09.23a2.5,2.5,0,0,1,.14.8,2.32,2.32,0,0,1-1.5,2.17l-17.33,6.45a2.22,2.22,0,0,1-.8.15,2.33,2.33,0,0,1-2.17-1.5Z"/><path class="cls-6" d="M155.72,293.18a1,1,0,1,1-1-1A1,1,0,0,1,155.72,293.18Z"/><path class="cls-5" d="M196.26,357.73a4.48,4.48,0,0,1-5.36-3.32L155.33,225.06a4.3,4.3,0,1,1,8.27-2.27l35.57,129.35A4.48,4.48,0,0,1,196.26,357.73Z"/><path class="cls-6" d="M196.26,357.73l-.35-1.28a2.48,2.48,0,0,1-.71.1,3,3,0,0,1-1.84-.67,3.53,3.53,0,0,1-1.19-1.82L156.61,224.71a3.52,3.52,0,0,1-.14-1,3.4,3.4,0,0,1,.6-1.93,2.78,2.78,0,0,1,1.52-1.09,2.88,2.88,0,0,1,.71-.09,3,3,0,0,1,1.84.67,3.49,3.49,0,0,1,1.19,1.82L197.9,352.49a3.93,3.93,0,0,1,.12.95,3.32,3.32,0,0,1-.6,1.93,2.7,2.7,0,0,1-1.51,1.08l.35,1.28.35,1.27a5.44,5.44,0,0,0,3-2.1,6,6,0,0,0,1.08-3.46,6.29,6.29,0,0,0-.22-1.65L164.87,222.44a6.12,6.12,0,0,0-2.1-3.19A5.57,5.57,0,0,0,159.3,218a5.26,5.26,0,0,0-1.41.19,5.39,5.39,0,0,0-3,2.1,6,6,0,0,0-1.08,3.46,6.29,6.29,0,0,0,.22,1.65l35.57,129.35a6.16,6.16,0,0,0,2.1,3.19,5.57,5.57,0,0,0,3.47,1.24,5.26,5.26,0,0,0,1.41-.19Z"/><path class="cls-5" d="M112.09,357.73a4.47,4.47,0,0,0,5.35-3.32L153,225.06a4.3,4.3,0,1,0-8.27-2.27L109.18,352.14A4.47,4.47,0,0,0,112.09,357.73Z"/><path class="cls-6" d="M112.09,357.73l-.35,1.27a5.14,5.14,0,0,0,1.4.19,5.6,5.6,0,0,0,3.48-1.24,6.14,6.14,0,0,0,2.09-3.19l35.57-129.35a6.29,6.29,0,0,0,.22-1.65,6,6,0,0,0-1.08-3.46,5.39,5.39,0,0,0-3-2.1,5.24,5.24,0,0,0-1.4-.19,5.89,5.89,0,0,0-5.58,4.43L107.9,351.79a6.29,6.29,0,0,0-.22,1.65,6,6,0,0,0,1.09,3.46,5.37,5.37,0,0,0,3,2.1l.35-1.27.34-1.28a2.74,2.74,0,0,1-1.51-1.08,3.32,3.32,0,0,1-.6-1.93,3.51,3.51,0,0,1,.13-.95L146,223.14a3.28,3.28,0,0,1,3-2.49,2.65,2.65,0,0,1,2.22,1.18,3.4,3.4,0,0,1,.6,1.93,4,4,0,0,1-.13,1L116.17,354.06a3.47,3.47,0,0,1-1.19,1.82,3,3,0,0,1-1.84.67,2.53,2.53,0,0,1-.71-.1Z"/><rect class="cls-9" x="305.27" y="339.75" width="32.97" height="16.49"/><rect class="cls-10" x="300.65" y="335.14" width="42.2" height="4.62" rx="1.98" ry="1.98"/><path class="cls-6" d="M343.18,337.44h-1a1,1,0,0,1-1,1H303a1,1,0,0,1-1-1v-.66a1,1,0,0,1,1-1H341.2a1,1,0,0,1,1,1v.66h2v-.66a3,3,0,0,0-3-3H303a3,3,0,0,0-3,3v.66a3,3,0,0,0,3,3H341.2a3,3,0,0,0,3-3Z"/><path class="cls-6" d="M306.58,344.37v-4h31v14.51h-31V349a1,1,0,1,0-2,0v6.93a1,1,0,0,0,.29.7,1,1,0,0,0,.7.29h33a1,1,0,0,0,1-1V339.42a1,1,0,0,0-.29-.7,1,1,0,0,0-.69-.29h-33a1,1,0,0,0-.7.29,1,1,0,0,0-.29.7v4.95a1,1,0,1,0,2,0Z"/><path class="cls-6" d="M325.18,339.42a3.1,3.1,0,0,1-6.2,0Z"/><path class="cls-6" d="M325.18,339.42h-1a2.11,2.11,0,1,1-4.22,0h-1v1h6.2v-1h0v-1H319a1,1,0,0,0-1,1,4.09,4.09,0,1,0,8.18,0,1,1,0,0,0-1-1Z"/><rect class="cls-9" x="323.07" y="318.65" width="32.97" height="16.49"/><rect class="cls-10" x="318.45" y="314.04" width="42.2" height="4.61" rx="1.98" ry="1.98"/><path class="cls-6" d="M361,316.34h-1a1,1,0,0,1-1,1H320.76a1,1,0,0,1-1-1v-.66a1,1,0,0,1,1-1H359a1,1,0,0,1,1,1v.66h2v-.66a3,3,0,0,0-3-3H320.76a3,3,0,0,0-3,3v.66a3,3,0,0,0,3,3H359a3,3,0,0,0,3-3Z"/><path class="cls-6" d="M324.39,323.27v-4h31v14.51h-31v-5.94a1,1,0,1,0-2,0v6.93a1,1,0,0,0,.29.7,1,1,0,0,0,.7.29h33a1,1,0,0,0,1-1V318.32a1,1,0,0,0-1-1h-33a1,1,0,0,0-.7.29,1,1,0,0,0-.29.7v4.95a1,1,0,1,0,2,0Z"/><path class="cls-6" d="M343,318.32a3.1,3.1,0,1,1-6.19,0Z"/><path class="cls-6" d="M343,318.32h-1a2.11,2.11,0,1,1-4.21,0h-1v1H343v-1h0v-1h-6.19a1,1,0,0,0-.7.29,1,1,0,0,0-.29.7,4.09,4.09,0,1,0,8.17,0,1,1,0,0,0-.29-.7,1,1,0,0,0-.7-.29Z"/><rect class="cls-9" x="368.57" y="318.65" width="32.97" height="16.49"/><rect class="cls-10" x="363.95" y="314.04" width="42.2" height="4.61" rx="1.98" ry="1.98"/><path class="cls-6" d="M406.48,316.34h-1a1,1,0,0,1-1,1H366.26a1,1,0,0,1-1-1v-.66a1,1,0,0,1,1-1H404.5a1,1,0,0,1,1,1v.66h2v-.66a3,3,0,0,0-3-3H366.26a3,3,0,0,0-3,3v.66a3,3,0,0,0,3,3H404.5a3,3,0,0,0,3-3Z"/><path class="cls-11" d="M351.75,250.74s-6.43-2.2-4.89-12c1.43-7,10.93-19.24,29.11-7.37,11.25,8.9,6.25,25.39,3.7,33.74s-3.23,10.44-3.52,11.32l-3.49-11.87a45.9,45.9,0,0,1-20.58,0C352.08,258.73,351.75,250.74,351.75,250.74Z"/><path class="cls-6" d="M351.75,250.74l.32-.94-.19.57.2-.57h0l-.19.57.2-.57h0a6.61,6.61,0,0,1-2.39-1.82,9.39,9.39,0,0,1-2-6.33,17.22,17.22,0,0,1,.23-2.73l-1-.15,1,.19a15.45,15.45,0,0,1,4.2-7.5,13.6,13.6,0,0,1,9.83-4c3.68,0,8.19,1.3,13.57,4.81l.54-.83-.62.78a16.4,16.4,0,0,1,5.23,7,23,23,0,0,1,1.44,8.4c0,6.37-2,12.88-3.29,17.23-2.55,8.35-3.23,10.43-3.52,11.31l.94.3,1-.28-3.49-11.87a1,1,0,0,0-1.21-.68h0a45.51,45.51,0,0,1-10.29,1.14,40.37,40.37,0,0,1-9.79-1.15l-.24,1h1c0-5.89-.33-13.88-.33-13.88a1,1,0,0,0-.67-.9l-.32.94-1,0s0,.49.06,1.33c.09,2.52.27,8.11.27,12.47a1,1,0,0,0,.75,1,42.25,42.25,0,0,0,10.27,1.21,46.57,46.57,0,0,0,10.8-1.21l-.25-1-1,.28,3.49,11.87a1,1,0,0,0,.94.71,1,1,0,0,0,.95-.68c.29-.88,1-3,3.53-11.34C382,261,384,254.37,384,247.61a24.79,24.79,0,0,0-1.58-9.12,18.41,18.41,0,0,0-5.84-7.87l-.07-.06c-5.61-3.66-10.49-5.13-14.65-5.13A15.6,15.6,0,0,0,350.64,230a17.36,17.36,0,0,0-4.75,8.52v0a18.56,18.56,0,0,0-.25,3,12.85,12.85,0,0,0,.87,4.89,9.47,9.47,0,0,0,3,4.05,7,7,0,0,0,1.9,1.09l.32-.93-1,0Z"/><path class="cls-6" d="M369.89,323.27v-4h31v14.51h-31v-5.94a1,1,0,0,0-2,0v6.93a1,1,0,0,0,.29.7,1,1,0,0,0,.7.29h33a1,1,0,0,0,1-1V318.32a1,1,0,0,0-1-1h-33a1,1,0,0,0-.7.29,1,1,0,0,0-.29.7v4.95a1,1,0,1,0,2,0Z"/><path class="cls-6" d="M388.48,318.32a3.1,3.1,0,1,1-6.19,0Z"/><path class="cls-6" d="M388.48,318.32h-1a2.11,2.11,0,1,1-4.22,0h-1v1h6.19v-1h0v-1h-6.19a1,1,0,0,0-1,1,4.09,4.09,0,1,0,8.17,0,1,1,0,0,0-1-1Z"/><rect class="cls-9" x="351.42" y="339.75" width="32.97" height="16.49"/><rect class="cls-10" x="346.81" y="335.14" width="42.2" height="4.62" rx="1.98" ry="1.98"/><path class="cls-6" d="M389.34,337.44h-1a1,1,0,0,1-1,1H349.12a1,1,0,0,1-1-1v-.66a1,1,0,0,1,1-1h38.24a1,1,0,0,1,1,1v.66h2v-.66a3,3,0,0,0-3-3H349.12a3,3,0,0,0-3,3v.66a3,3,0,0,0,3,3h38.24a3,3,0,0,0,3-3Z"/><path class="cls-6" d="M352.74,344.37v-4h31v14.51h-31V349a1,1,0,0,0-2,0v6.93a1,1,0,0,0,1,1h33a1,1,0,0,0,1-1V339.42a1,1,0,0,0-.29-.7,1,1,0,0,0-.7-.29h-33a1,1,0,0,0-1,1v4.95a1,1,0,0,0,2,0Z"/><path class="cls-6" d="M371.33,339.42a3.1,3.1,0,1,1-6.19,0Z"/><path class="cls-6" d="M371.33,339.42h-1a2.11,2.11,0,1,1-4.22,0h-1v1h6.19v-1h0v-1h-6.19a1,1,0,0,0-1,1,4.09,4.09,0,1,0,8.17,0,1,1,0,0,0-1-1Z"/><rect class="cls-9" x="397.58" y="339.75" width="32.97" height="16.49"/><rect class="cls-10" x="392.96" y="335.14" width="42.2" height="4.62" rx="1.98" ry="1.98"/><path class="cls-6" d="M435.5,337.44h-1a1,1,0,0,1-1,1H395.27a1,1,0,0,1-1-1v-.66a1,1,0,0,1,1-1h38.25a1,1,0,0,1,1,1v.66h2v-.66a3,3,0,0,0-3-3H395.27a3,3,0,0,0-3,3v.66a3,3,0,0,0,3,3h38.25a3,3,0,0,0,3-3Z"/><path class="cls-6" d="M398.9,344.37v-4h31v14.51h-31V349a1,1,0,0,0-2,0v6.93a1,1,0,0,0,.29.7,1,1,0,0,0,.7.29h33a1,1,0,0,0,.7-.29,1,1,0,0,0,.29-.7V339.42a1,1,0,0,0-.29-.7,1,1,0,0,0-.7-.29h-33a1,1,0,0,0-.7.29,1,1,0,0,0-.29.7v4.95a1,1,0,1,0,2,0Z"/><path class="cls-6" d="M417.49,339.42a3.1,3.1,0,1,1-6.19,0Z"/><path class="cls-6" d="M417.49,339.42h-1a2.11,2.11,0,1,1-4.21,0h-1v1h6.19v-1h0v-1H411.3a1,1,0,0,0-.7.29,1,1,0,0,0-.29.7,4.09,4.09,0,1,0,8.17,0,1,1,0,0,0-.29-.7,1,1,0,0,0-.7-.29Z"/><path class="cls-8" d="M373.18,264.58V248.1c0-6.17-4.74-11.21-10.55-11.21s-10.55,5-10.55,11.21v16.48"/><path class="cls-6" d="M374.5,264.58V248.1a12.83,12.83,0,0,0-3.46-8.82,11.39,11.39,0,0,0-16.82,0,12.83,12.83,0,0,0-3.46,8.82v16.48a1.32,1.32,0,0,0,2.64,0V248.1a10.24,10.24,0,0,1,2.74-7,8.77,8.77,0,0,1,13,0,10.2,10.2,0,0,1,2.74,7v16.48a1.32,1.32,0,0,0,2.64,0Z"/><path class="cls-6" d="M350.65,270.81l-.09-.09-.34-.33c-.16-.17-.27-.31-.45-.51a8.24,8.24,0,0,1-.55-.67c-.41-.5-.84-1.11-1.32-1.83s-1-1.53-1.48-2.44-1-1.91-1.52-3-1-2.19-1.45-3.38c-.23-.6-.46-1.2-.7-1.81s-.43-1.24-.64-1.87c-.45-1.25-.82-2.54-1.19-3.83s-.71-2.59-1-3.87c-.16-.64-.33-1.27-.47-1.9s-.26-1.26-.38-1.87c-.25-1.23-.53-2.41-.7-3.54s-.36-2.2-.53-3.18-.28-1.9-.39-2.7-.19-1.5-.27-2.08c-.15-1.15-.23-1.81-.23-1.81a1.32,1.32,0,0,1,2.6-.4v0s.11.64.31,1.77c.09.56.21,1.25.34,2s.28,1.68.49,2.63.42,2,.64,3.1.53,2.23.82,3.42c.14.59.29,1.19.44,1.8s.35,1.21.53,1.83c.35,1.22.7,2.47,1.13,3.69s.81,2.46,1.29,3.63c.23.59.45,1.18.68,1.76s.49,1.12.73,1.67c.46,1.12,1,2.13,1.48,3.12s1,1.87,1.51,2.65,1,1.51,1.39,2.13.84,1.11,1.18,1.49a9.87,9.87,0,0,0,.76.84l.17.16.09.08,0,0a2.16,2.16,0,0,1-2.84,3.26Z"/><path class="cls-6" d="M372.4,267.59l.1-.08.16-.16c.15-.15.44-.44.77-.84s.73-.9,1.17-1.49.92-1.32,1.4-2.13,1-1.71,1.5-2.65,1-2,1.49-3.12c.23-.55.48-1.11.73-1.67s.45-1.17.68-1.76c.47-1.17.88-2.4,1.29-3.63s.77-2.47,1.13-3.69c.17-.62.36-1.22.52-1.83s.3-1.21.45-1.8c.28-1.19.6-2.32.81-3.42l.65-3.1c.21-.95.34-1.84.48-2.63s.25-1.47.35-2l.3-1.77v0a1.31,1.31,0,0,1,1.52-1.07,1.32,1.32,0,0,1,1.09,1.47s-.09.66-.24,1.81c-.07.58-.16,1.28-.27,2.08s-.21,1.71-.39,2.7-.34,2.05-.53,3.18-.45,2.31-.69,3.54c-.13.61-.26,1.24-.39,1.87s-.3,1.26-.46,1.9c-.32,1.28-.62,2.58-1,3.87s-.75,2.58-1.19,3.83c-.22.63-.43,1.26-.64,1.87s-.48,1.21-.71,1.81c-.43,1.19-1,2.3-1.44,3.38s-1,2.06-1.53,3-1,1.72-1.47,2.44-.91,1.33-1.32,1.83c-.2.25-.38.48-.55.67s-.29.34-.46.51l-.33.33-.09.09a2.16,2.16,0,0,1-3-3.14l.06-.05Z"/><path class="cls-6" d="M67.88,360.19H458.24a2.64,2.64,0,1,0,0-5.27H67.88a2.64,2.64,0,0,0,0,5.27"/><path class="cls-6" d="M56.67,354.92h-31a2.64,2.64,0,0,0,0,5.27h31a2.64,2.64,0,1,0,0-5.27"/><path class="cls-6" d="M501.11,354.92h-31a2.64,2.64,0,0,0,0,5.27h31a2.64,2.64,0,0,0,0-5.27"/><path class="cls-6" d="M418.68,386.57H391a2.64,2.64,0,1,0,0,5.27h27.69a2.64,2.64,0,1,0,0-5.27"/><path class="cls-6" d="M14.47,354.92H9.2a2.64,2.64,0,1,0,0,5.27h5.27a2.64,2.64,0,1,0,0-5.27"/><path class="cls-12" d="M421.87,370.62a15.35,15.35,0,1,1-15.35-15.35A15.35,15.35,0,0,1,421.87,370.62Z"/><path class="cls-6" d="M421.87,370.62h-1.32a14,14,0,1,1-4.11-9.92,14,14,0,0,1,4.11,9.92h2.64a16.67,16.67,0,1,0-16.67,16.67,16.67,16.67,0,0,0,16.67-16.67Z"/><path class="cls-10" d="M379.8,298.21s-13.36.7-17.81.7-17.81-.7-17.81-.7a176.48,176.48,0,0,1,3.12-18.46,136.81,136.81,0,0,1,4.78-15.17s3,1,9.58,1a61.93,61.93,0,0,0,11.52-1s2.41,7.76,4,15.66C378.87,289.06,379.8,298.21,379.8,298.21Z"/><path class="cls-6" d="M379.86,299.41l-4.45.23-2.23.12c-.74,0-1.49.06-2.23.09l-9,.32-8.94-.26c-.74,0-1.48,0-2.23-.08l-2.24-.1-4.47-.2a1.32,1.32,0,0,1-1.25-1.37v-.09c.09-.73.16-1.46.27-2.18l.29-2.16c.11-.72.19-1.44.31-2.15l.36-2.16.35-2.15c.11-.72.24-1.43.4-2.14l.88-4.29.22-1.07.06-.27,0-.17,0-.13.14-.52.57-2.09.56-2.09c.18-.7.44-1.4.65-2.1.46-1.39.88-2.81,1.37-4.18s1-2.74,1.48-4.11a1.32,1.32,0,0,1,1.54-.81l.12,0c.17.05.33.1.53.14l.61.12c.41.07.8.19,1.23.23l2.54.29c.86.05,1.73.07,2.59.1l1.29.05h.61l.67,0,2.65-.09c.44,0,.9,0,1.32-.06l1.27-.12c.86-.1,1.71-.14,2.56-.28l1.28-.19c.44-.05.84-.14,1.25-.21h0a1.3,1.3,0,0,1,1.48.91c.43,1.39.8,2.78,1.19,4.17s.71,2.79,1.08,4.18c.17.7.37,1.39.51,2.1l.46,2.12.46,2.11.23,1.06.19,1.08.73,4.23c.12.7.24,1.41.34,2.13l.3,2.14c.2,1.43.42,2.86.58,4.29s.34,2.85.49,4.29a1.22,1.22,0,0,1-1.08,1.32Zm-1.42-2.35c-.11-1-.23-2-.36-3-.16-1.41-.39-2.81-.59-4.21l-.31-2.11c-.1-.7-.23-1.4-.35-2.1l-.76-4.23-.19-1-.23-1-.46-2.07-.47-2.08c-.14-.69-.35-1.37-.52-2.06-.36-1.37-.7-2.75-1.09-4.12s-.77-2.74-1.19-4.08l1.53.9c-.45.09-.92.18-1.36.24l-1.35.19c-.89.15-1.81.2-2.72.3l-1.36.12c-.46.06-.89,0-1.34.07l-2.65.09-.67,0h-.71l-1.36,0c-.91,0-1.81-.06-2.72-.11l-2.73-.32c-.45,0-.92-.17-1.38-.25l-.69-.14c-.24,0-.5-.13-.75-.2l1.65-.77c-.51,1.32-1,2.68-1.45,4s-.88,2.7-1.33,4.05c-.2.68-.45,1.33-.63,2l-.56,2.09-.57,2.09-.14.52,0,.13,0,.07v0l-.05.26-.22,1.05-.86,4.2c-.16.69-.28,1.4-.39,2.11l-.35,2.12-.35,2.12c-.12.71-.2,1.42-.31,2.13l-.29,2.13c-.1.71-.17,1.42-.26,2.12h0l-1.25-1.46,4.43.23,2.21.12c.74,0,1.49.05,2.23.08l8.88.33,8.85-.27c.74,0,1.48,0,2.22-.07l2.23-.1Z"/><rect class="cls-6" x="137.12" y="214.47" width="33.63" height="7.25"/><path class="cls-6" d="M170.75,221.72V220.4H138.44v-4.61h31v5.93h1.32v0h1.32v-7.25a1.31,1.31,0,0,0-1.32-1.32H137.12a1.31,1.31,0,0,0-1.32,1.32v7.25a1.33,1.33,0,0,0,1.32,1.32h33.63a1.33,1.33,0,0,0,1.32-1.32Z"/><polygon class="cls-6" points="107.12 51.51 107.12 54.78 104.35 53.15 101.56 51.51 104.34 49.88 107.12 48.25 107.12 51.51"/><path class="cls-6" d="M107.12,51.51h-1v1.54l-1.27-.76h0l-1.34-.78,1.33-.78,1.29-.76v1.54h2V48.25a1,1,0,0,0-.5-.86,1,1,0,0,0-1,0L103.84,49l-2.79,1.63a1,1,0,0,0,0,1.71L103.85,54h0l2.77,1.63a1,1,0,0,0,1,0,1,1,0,0,0,.5-.86V51.51Z"/><polygon class="cls-6" points="138.77 51.51 138.77 48.25 141.39 49.88 144.12 51.51 141.44 53.15 138.77 54.78 138.77 51.51"/><path class="cls-6" d="M138.77,51.51h1V50l1.11.69h0l1.32.79-1.27.78-1.17.72V51.51h-2v3.27a1,1,0,0,0,1.5.84L142,54l2.67-1.63a1,1,0,0,0,0-1.7L141.91,49l-2.62-1.63a1,1,0,0,0-1.51.84v3.26Z"/><path class="cls-6" d="M121.3,36.43v31a1.32,1.32,0,1,0,2.63,0v-31a1.32,1.32,0,1,0-2.63,0"/><path class="cls-6" d="M160.2,36.43v31a1.32,1.32,0,0,0,2.64,0v-31a1.32,1.32,0,1,0-2.64,0"/><path class="cls-10" d="M166.36,162.44c.87,2.74,5,15.21,3.24,25.43s-16,12-21.82,7.73c-15-10.95,1.87-33.16,1.87-33.16A19.53,19.53,0,0,0,166.36,162.44Z"/><path class="cls-6" d="M166.36,162.44l-1.26.4c.36,1.14,1.26,3.89,2.08,7.45a56.38,56.38,0,0,1,1.53,12.17,31.53,31.53,0,0,1-.41,5.19,9.22,9.22,0,0,1-1.6,3.88,11.17,11.17,0,0,1-4.83,3.69,16.59,16.59,0,0,1-6.3,1.22,15.55,15.55,0,0,1-4-.5,9.57,9.57,0,0,1-3.05-1.4,13.44,13.44,0,0,1-4.41-5.23,14.16,14.16,0,0,1-1.25-6c0-4.75,1.92-9.81,3.89-13.64,1-1.91,2-3.52,2.7-4.65.37-.56.68-1,.89-1.3l.24-.34.06-.09h0l-1-.79L149,163.6a20.87,20.87,0,0,0,9.12,2.05,19.9,19.9,0,0,0,8.79-2l-.58-1.18-1.26.4,1.26-.4-.58-1.19a17.26,17.26,0,0,1-7.63,1.77,19.3,19.3,0,0,1-5.71-.89,16.65,16.65,0,0,1-1.63-.61l-.42-.19-.1-.05h0l0,0,0,0h0l0,0,0,0a1.32,1.32,0,0,0-1.67.37,49.73,49.73,0,0,0-4.16,6.79c-2.06,4-4.17,9.4-4.18,14.84a16.84,16.84,0,0,0,1.5,7.16,16.09,16.09,0,0,0,5.24,6.24,12,12,0,0,0,3.92,1.81,17.58,17.58,0,0,0,4.65.6,18.43,18.43,0,0,0,9.56-2.58,13,13,0,0,0,3.71-3.43,11.9,11.9,0,0,0,2.06-5,34,34,0,0,0,.44-5.63,58.7,58.7,0,0,0-1.59-12.76c-.84-3.68-1.78-6.53-2.14-7.66a1.28,1.28,0,0,0-.74-.82,1.3,1.3,0,0,0-1.09,0Z"/><path class="cls-11" d="M351.75,250.74s6-3.16,8-7.66a14.7,14.7,0,0,0,13.42,7.65l4-1.15s-1.34-16.54-15.85-16.1S349.55,246.67,351.75,250.74Z"/><path class="cls-6" d="M352.13,251a21.65,21.65,0,0,0,3.44-1.9,14.12,14.12,0,0,0,5.1-5.61l-.91-.4-.85.5a16.38,16.38,0,0,0,3.55,4,17.1,17.1,0,0,0,11.09,3.95h.31a1,1,0,0,0,0-2h-.28a15.14,15.14,0,0,1-9.83-3.51,16.15,16.15,0,0,1-2.36-2.41c-.26-.33-.45-.6-.57-.78l-.13-.21,0-.05h0l-.15.09.15-.09h0l-.15.09.15-.09a1,1,0,0,0-1.76.09,12.13,12.13,0,0,1-4.4,4.77,22.27,22.27,0,0,1-2.19,1.29l-.67.32-.17.08-.05,0h0a1,1,0,0,0,.76,1.83Z"/><path class="cls-6" d="M356.65,259a7.72,7.72,0,0,0,1.21,1.4,5.71,5.71,0,0,0,1.42,1,4.54,4.54,0,0,0,2,.47,4.76,4.76,0,0,0,2.22-.57,8.18,8.18,0,0,0,2.27-1.85,1,1,0,0,0-1.48-1.31,6.14,6.14,0,0,1-1.71,1.41,2.89,2.89,0,0,1-1.3.35,2.78,2.78,0,0,1-1.14-.28,4.54,4.54,0,0,1-1.33-1c-.16-.17-.28-.34-.37-.45l-.09-.12v0h0a1,1,0,0,0-1.36-.32A1,1,0,0,0,356.65,259Z"/></g></g></g></svg>