<svg xmlns="http://www.w3.org/2000/svg" viewBox="0 0 509.69 348.14"><defs><style>.cls-1{isolation:isolate;}.cls-2{fill:#f0acc4;opacity:0.3;}.cls-3{fill:#de4e83;}.cls-4{fill:#1a1a1a;}.cls-5{fill:#fff;}.cls-6{fill:#e49cb6;}.cls-7{fill:#f2e7eb;}.cls-8{fill:#ec96b5;}.cls-9{fill:#d4145a;}.cls-10{fill:#6e0a2f;}.cls-11{fill:#a81047;}.cls-12{fill:#af154d;}.cls-13{fill:#bf1251;}.cls-14{fill:#63092a;}.cls-15{fill:#ca4173;}.cls-16{fill:#e679a1;}.cls-17{fill:#5f0929;}.cls-18{opacity:0.5;mix-blend-mode:multiply;}.cls-19{fill:#a3a3a3;}</style></defs><title>Asset 5dots-reference-checks</title><g class="cls-1"><g id="Layer_2" data-name="Layer 2"><g id="Why_Us_-_Analytics" data-name="Why Us - Analytics"><path class="cls-2" d="M233.9,0c-33.59,0-59.76,18.32-73.21,46.29-14.23,29.6-54.48,47.9-104.17,85.38-83.81,63.24-12,186.14-12,186.14S401.79,319,438.79,319c24.41-31,45.46-103.54,17.56-135.15V284.67H337v33H64.1V160.27h125s-.21-28.56,0-39.77c26.51-11.54,56-14.2,77.6-14.2,7.72,0,14.42.34,19.59.74h.05c3.09.24,5.63.5,7.52.71l1.24.14,1.26.16V71.42a1.26,1.26,0,0,1,.38-.9,1.24,1.24,0,0,1,.89-.37h39.69C294.46,5.73,274,2.32,239.81.19q-3-.19-5.91-.19"/><polyline class="cls-3" points="297.67 159.64 297.67 70.78 456.35 70.78 456.35 284.67 297.67 284.67 297.67 159.64"/><path class="cls-4" d="M455.08,175.51V284H395.42a1.27,1.27,0,0,0,0,2.54h60.93a1.26,1.26,0,0,0,1.27-1.27V175.51a1.27,1.27,0,0,0-2.54,0Z"/><path class="cls-4" d="M298.94,160.27V72.69H455.08V93.63a1.27,1.27,0,1,0,2.54,0V71.42a1.26,1.26,0,0,0-1.27-1.27H297.67a1.24,1.24,0,0,0-.89.37,1.26,1.26,0,0,0-.38.9v88.85a1.27,1.27,0,0,0,2.54,0"/><path class="cls-5" d="M189.14,160.27H297.67v-52s-59.45-9.1-108.53,12.27c-.21,11.21,0,39.77,0,39.77"/><path class="cls-5" d="M456,101.84s-.49-10.56,16.48-9c9.43.89,12.16,8.32,11,12.48,0,0,2.41-3.38,7.08-1.13,2,.76,4.79,2.88,3.86,5.17,1-1.35,7.3-5.47,11.92-.51,2.67,2.21,3.65,6.45-2.8,7.3a176,176,0,0,1-28.42.64c-10.22-.69-10.52,1.2-30.19.42,0,0-8.12.45-8.21-7.31.54-4.11,8.21-3.93,9.28-1.7C446.65,105.74,447.57,98.39,456,101.84Z"/><path d="M456,101.84l1.27-.06-.74,0,.74,0h0l-.74,0,.74,0v0a5.67,5.67,0,0,1,.22-1.49,7,7,0,0,1,.81-1.92,7.81,7.81,0,0,1,3.31-2.91A17,17,0,0,1,469.14,94c1,0,2.05,0,3.21.16a11.58,11.58,0,0,1,7.86,3.59,8.81,8.81,0,0,1,2.27,5.74,6.11,6.11,0,0,1-.19,1.56,1.27,1.27,0,0,0,2.26,1.07l-.66-.47.65.48h0l-.66-.47.65.48h0a3.39,3.39,0,0,1,.82-.73,3.79,3.79,0,0,1,2.16-.65,5.74,5.74,0,0,1,2.52.64l.09,0a7.81,7.81,0,0,1,2.25,1.4,3.94,3.94,0,0,1,.75.92,1.49,1.49,0,0,1,.23.76,1.08,1.08,0,0,1-.09.44,1.27,1.27,0,0,0,2.19,1.24,3.94,3.94,0,0,1,.63-.58,9.74,9.74,0,0,1,2.17-1.22,7.85,7.85,0,0,1,2.85-.59,5.61,5.61,0,0,1,2.18.43,6.35,6.35,0,0,1,2.15,1.55l.12.11a5.2,5.2,0,0,1,1.18,1.38,2.72,2.72,0,0,1,.41,1.35,1.5,1.5,0,0,1-.13.64,2.16,2.16,0,0,1-1,.93,7.63,7.63,0,0,1-2.65.76l.17,1.26-.09-1.27c-1.13.08-3.39.32-6.55.54s-7.2.43-11.8.43c-3.08,0-6.4-.09-9.89-.33-1.66-.11-3.08-.16-4.36-.16-2.65,0-4.71.2-7.2.39s-5.44.38-10,.38c-2.4,0-5.25,0-8.7-.19h-.29a9.07,9.07,0,0,1-1.58-.15,7,7,0,0,1-3.35-1.48,4.92,4.92,0,0,1-1.23-1.68,7.1,7.1,0,0,1-.54-2.76l-1.27,0,1.26.16a1.75,1.75,0,0,1,.36-.87,3,3,0,0,1,1.41-.93A6.75,6.75,0,0,1,442,108a6.49,6.49,0,0,1,2.11.33,2.49,2.49,0,0,1,.62.32,1,1,0,0,1,.19.19,1.27,1.27,0,0,0,2.37-.24c.14-.56.28-1.25.47-2a8.32,8.32,0,0,1,1.42-3,3.58,3.58,0,0,1,1.17-1,3.83,3.83,0,0,1,1.73-.37,9.17,9.17,0,0,1,3.46.82,1.28,1.28,0,0,0,1.75-1.24l-1.27.06.48-1.17a11.57,11.57,0,0,0-4.42-1,6.09,6.09,0,0,0-3.62,1.08,6.66,6.66,0,0,0-1.72,1.8,11.64,11.64,0,0,0-1.34,3c-.28,1-.44,1.83-.57,2.34l1.23.31,1.14-.55a3,3,0,0,0-.95-1.12,5.44,5.44,0,0,0-2-.88,9,9,0,0,0-2.29-.28,8.44,8.44,0,0,0-4,.92,5.12,5.12,0,0,0-1.63,1.35,4.39,4.39,0,0,0-.86,2.09V110a8.91,8.91,0,0,0,1.29,4.75,7.34,7.34,0,0,0,2.11,2.15,9.41,9.41,0,0,0,3.47,1.42,12.06,12.06,0,0,0,2.37.26H445l-.07-1.27,0,1.27c3.48.14,6.36.19,8.8.19,4.6,0,7.65-.19,10.17-.39s4.48-.38,7-.38c1.22,0,2.58,0,4.19.16,3.55.24,6.93.33,10.06.33,4.68,0,8.78-.21,12-.43s5.51-.47,6.54-.54h.08a8.59,8.59,0,0,0,4.41-1.64,4.37,4.37,0,0,0,1.17-1.49,3.91,3.91,0,0,0,.38-1.72A5.27,5.27,0,0,0,509,110a7.61,7.61,0,0,0-1.77-2.07l-.81,1,.93-.86a9,9,0,0,0-3-2.16,8,8,0,0,0-3.16-.63,10.83,10.83,0,0,0-4.85,1.26,11,11,0,0,0-1.71,1.08,6.05,6.05,0,0,0-1.12,1.06l1,.76,1.17.48a3.59,3.59,0,0,0,.28-1.39,4.09,4.09,0,0,0-.56-2,7.1,7.1,0,0,0-2-2.14,10.19,10.19,0,0,0-2.32-1.29l-.46,1.18.55-1.15a8.38,8.38,0,0,0-3.62-.89,6.44,6.44,0,0,0-3.73,1.18,6,6,0,0,0-1.31,1.26l1,.73,1.23.33a8.39,8.39,0,0,0,.28-2.22A11.33,11.33,0,0,0,482.11,96a14.13,14.13,0,0,0-9.52-4.42c-1.23-.12-2.38-.17-3.45-.17a20.38,20.38,0,0,0-7.94,1.37,11.25,11.25,0,0,0-3.6,2.36,9.65,9.65,0,0,0-2.47,4,9,9,0,0,0-.41,2.54v.15l1.27-.06.48-1.17Z"/><path class="cls-5" d="M130.11,49.41s-6.55-4.23-3.17-9.09,13.33-5.93,16.93-1.27c0,0-5.19-14.6,11.79-14.28,9.36,0,15.39,3.64,15.55,6.66,0,0,8.89-7.3,14,.79,0,0,1.27-13.48,15.39-11.1s18.57,10.79,17.78,17c0,0,15.7,1.43,12.06,9.37-4.45,4.92-15.08,3.17-18.09,3.33s-66.89.06-71.09.17S132.43,51.46,130.11,49.41Z"/><path d="M130.11,49.41l.69-1.06-.28.43.28-.43h0l-.28.43.28-.43a11.26,11.26,0,0,1-1.87-1.63,7.61,7.61,0,0,1-1.2-1.67,4.09,4.09,0,0,1-.49-1.85A3.66,3.66,0,0,1,128,41a8.27,8.27,0,0,1,3.56-2.71,13,13,0,0,1,5-1,10.25,10.25,0,0,1,3.71.64,5.83,5.83,0,0,1,2.61,1.85,1.27,1.27,0,0,0,2.2-1.2l-.21.08.21-.08h0l-.21.08.21-.08a14.17,14.17,0,0,1-.67-4.26,9.86,9.86,0,0,1,.4-2.88,6.56,6.56,0,0,1,2.8-3.71c1.55-1,3.92-1.74,7.53-1.74h.54a25.32,25.32,0,0,1,10.68,2.08A9.53,9.53,0,0,1,169.11,30a3.61,3.61,0,0,1,.64.87,1.6,1.6,0,0,1,.19.64,1.28,1.28,0,0,0,2.08.91l-.28-.33.27.33h0l-.28-.33.27.33a14.75,14.75,0,0,1,2.2-1.4,10.35,10.35,0,0,1,4.65-1.33,5.52,5.52,0,0,1,2.69.66,7.12,7.12,0,0,1,2.55,2.56,1.27,1.27,0,0,0,2.34-.56l-.19,0,.19,0h0l-.19,0,.19,0a14.1,14.1,0,0,1,1.83-5.29,10.05,10.05,0,0,1,3.26-3.41,10.76,10.76,0,0,1,5.85-1.54,18.18,18.18,0,0,1,3,.27h0c6.35,1.07,10.54,3.36,13.15,6a11.89,11.89,0,0,1,3.65,8.32,9.92,9.92,0,0,1-.07,1.23,1.27,1.27,0,0,0,1.14,1.43h0a31.28,31.28,0,0,1,6.28,1.35,12.35,12.35,0,0,1,3.75,1.93,4.3,4.3,0,0,1,1.05,1.21,2.72,2.72,0,0,1,.35,1.33,4.22,4.22,0,0,1-.44,1.75l1.16.53-1-.86a6.91,6.91,0,0,1-2,1.53,13.84,13.84,0,0,1-4.14,1.25,30.15,30.15,0,0,1-4.64.31c-1.17,0-2.3,0-3.3-.09s-1.87-.09-2.57-.09h-.54l-1.2,0c-4.74.06-21.22.07-37,.08h-21.6l-7.49,0-3.77,0c-1.38,0-2.79.1-4.12.1a19,19,0,0,1-3.7-.28,5,5,0,0,1-2.41-1l-.16-.11-.69,1.06-.84,1a7.61,7.61,0,0,0,3.6,1.64,21.34,21.34,0,0,0,4.2.33c1.41,0,2.84-.06,4.18-.1l4.11,0c7.54,0,23.62,0,38.14,0l19.36,0,6.44,0,2,0,1.07,0h.41c.59,0,1.45,0,2.45.09s2.18.09,3.42.09a28.54,28.54,0,0,0,6.73-.68,13.93,13.93,0,0,0,3.22-1.17,9.81,9.81,0,0,0,2.74-2.07,1.6,1.6,0,0,0,.21-.32,6.75,6.75,0,0,0,.67-2.81,5.24,5.24,0,0,0-.72-2.64,8.36,8.36,0,0,0-3.4-3,23.55,23.55,0,0,0-6.33-2.14,31.71,31.71,0,0,0-3.32-.52l-.11,1.26,1.26.16a13,13,0,0,0,.09-1.55,14.42,14.42,0,0,0-4.38-10.11c-3.06-3.09-7.79-5.59-14.53-6.73h0a20.88,20.88,0,0,0-3.4-.3,13.2,13.2,0,0,0-7.29,2,12.36,12.36,0,0,0-3.33,3.17,16.22,16.22,0,0,0-2.35,5,15.13,15.13,0,0,0-.5,2.42l1.26.12,1.08-.67a9.68,9.68,0,0,0-3.47-3.43,8,8,0,0,0-3.92-1A12.9,12.9,0,0,0,173,28.8a16.28,16.28,0,0,0-2.55,1.65l.81,1,1.27-.07A4.06,4.06,0,0,0,172,29.7a7.32,7.32,0,0,0-2.18-2.44,17.37,17.37,0,0,0-5.78-2.69,31.21,31.21,0,0,0-8.39-1.07v1.27l0-1.27h-.56a19.18,19.18,0,0,0-6.55,1,10.76,10.76,0,0,0-3.33,1.87,9.11,9.11,0,0,0-2.72,3.91,12.21,12.21,0,0,0-.67,4.1,16.69,16.69,0,0,0,.82,5.11l1.2-.42,1-.78a8.49,8.49,0,0,0-3.7-2.67,12.82,12.82,0,0,0-4.63-.81,15.3,15.3,0,0,0-6,1.21,10.65,10.65,0,0,0-4.65,3.59,6.28,6.28,0,0,0-1.2,3.61,6.6,6.6,0,0,0,.79,3A11.21,11.21,0,0,0,128,49.32a13.74,13.74,0,0,0,1.47,1.16l.69-1.07-.84,1Z"/><path class="cls-6" d="M293.9,107.75l1.24.14-1.24-.14m-7.57-.71h0"/><path class="cls-7" d="M286.33,107l.54,53.23h9.54l.08-52.2s-.45-.07-1.35-.18l-1.24-.14c-1.69-.19-4.19-.44-7.52-.71h-.05"/><path class="cls-4" d="M189.14,120.5l-.19,1.25.1,0c.5.08,2.86.48,5.27,1.09a27.59,27.59,0,0,1,3.41,1,10.92,10.92,0,0,1,1.25.57,3,3,0,0,1,.64.46,1.25,1.25,0,0,0,1.19.4,1.26,1.26,0,0,0,.95-.82v0a40.75,40.75,0,0,1,1.63-3.83,28.56,28.56,0,0,1,1.68-3,12.57,12.57,0,0,1,2-2.42,1.27,1.27,0,0,0,.25-1.58,1.28,1.28,0,0,0-1.49-.57c-7.88,2.56-17.12,6.19-17.13,6.2a1.27,1.27,0,0,0-.8,1.32,1.25,1.25,0,0,0,1.07,1.11l.19-1.25.46,1.18.41-.16c1.87-.73,9.78-3.78,16.59-6l-.4-1.21-.85-.94a15.17,15.17,0,0,0-2.46,3,34.67,34.67,0,0,0-2.56,4.87c-.61,1.4-1,2.38-1,2.41l1.19.42.95-.85a5.19,5.19,0,0,0-1.37-1A17.9,17.9,0,0,0,197,121c-1.74-.54-3.64-1-5.11-1.26s-2.51-.45-2.52-.46l-.2,1.26.46,1.18Z"/><rect class="cls-5" x="341.47" y="101.25" width="11.43" height="86.32"/><rect class="cls-8" x="341.47" y="119.02" width="11.43" height="68.55"/><rect class="cls-5" x="359.87" y="121.56" width="11.42" height="66.01"/><rect class="cls-8" x="359.87" y="139.33" width="11.42" height="48.24"/><rect class="cls-5" x="413.19" y="139.96" width="11.42" height="47.6"/><rect class="cls-8" x="413.19" y="150.12" width="11.42" height="37.45"/><rect class="cls-5" x="395.42" y="109.5" width="11.42" height="78.07"/><rect class="cls-8" x="395.42" y="121.56" width="11.42" height="66.01"/><rect class="cls-5" x="377.64" y="146.94" width="11.43" height="40.62"/><rect class="cls-8" x="377.64" y="160.27" width="11.43" height="27.29"/><path class="cls-4" d="M227.57,108.15a166.55,166.55,0,0,0-38.94,11.19,1.26,1.26,0,0,0-.76,1.14c-.07,3.75-.09,9.42-.09,15.31,0,11.8.09,24.49.09,24.49a1.27,1.27,0,0,0,1.27,1.26H297.67a1.26,1.26,0,0,0,.9-.37,1.25,1.25,0,0,0,.37-.9v-52a1.27,1.27,0,1,0-2.54,0V159H189.14v1.27h1.27s0-.79,0-2.16c0-4.12-.07-13.47-.07-22.31,0-5.88,0-11.55.09-15.27l-1.27,0,.51,1.16a164.52,164.52,0,0,1,38.34-11,1.27,1.27,0,0,0-.42-2.5Z"/><path class="cls-4" d="M226.59,136.16h29.83a2.54,2.54,0,0,0,0-5.08H226.59a2.54,2.54,0,1,0,0,5.08"/><path class="cls-4" d="M265.94,136.16h20.94a2.54,2.54,0,1,0,0-5.08H265.94a2.54,2.54,0,0,0,0,5.08"/><path class="cls-4" d="M226.59,148.21h43.79a2.54,2.54,0,1,0,0-5.07H226.59a2.54,2.54,0,1,0,0,5.07"/><polyline class="cls-9" points="337.02 317.68 64.1 317.68 64.1 160.27 337.02 160.27 337.02 317.68"/><path class="cls-4" d="M38.08,321.49H457.62a2.54,2.54,0,1,0,0-5.08H38.08a2.54,2.54,0,0,0,0,5.08"/><path class="cls-4" d="M465.87,321.49H481.1a2.54,2.54,0,1,0,0-5.08H465.87a2.54,2.54,0,1,0,0,5.08"/><path class="cls-4" d="M490,321.49h9.52a2.54,2.54,0,1,0,0-5.08H490a2.54,2.54,0,1,0,0,5.08"/><path class="cls-4" d="M15.87,321.49H28.56a2.54,2.54,0,1,0,0-5.08H15.87a2.54,2.54,0,0,0,0,5.08"/><path class="cls-4" d="M2.54,321.49H8.25a2.54,2.54,0,1,0,0-5.08H2.54a2.54,2.54,0,0,0,0,5.08"/><path class="cls-10" d="M71.82,306l9.79-1.66h13a2.52,2.52,0,0,0,1.76-.71l22.61-21.72,7.81,5.47a2.54,2.54,0,0,0,3-.07l37.59-28.8,16.44,6.39a2.54,2.54,0,0,0,2.4-.31l41-29.54,19,3.78L260.33,249a2.52,2.52,0,0,0,3,0l61.57-45.38a2.54,2.54,0,0,0-3-4.09l-60.08,44.29-13.1-9.39a2.6,2.6,0,0,0-1-.42l-20.63-4.11a2.55,2.55,0,0,0-2,.43l-40.77,29.38-16.48-6.4a2.57,2.57,0,0,0-2.47.35l-37.24,28.54-8-5.6a2.54,2.54,0,0,0-3.21.25L93.55,299.27H81.39a2.06,2.06,0,0,0-.42,0L71,301a2.54,2.54,0,1,0,.85,5"/><path class="cls-11" d="M304.66,278.33H266.57a10.16,10.16,0,0,0,0,20.31h38.09a10.16,10.16,0,0,0,0-20.31"/><path class="cls-12" d="M130.11,176.14H85.05a2.54,2.54,0,0,0,0,5.08h45.06a2.54,2.54,0,0,0,0-5.08"/><path class="cls-13" d="M94.59,304.35h0m0,0h0m0,0h0m0,0h0M325.09,203.41l-.2.17-33.74,24.86-29.56,27.89-12.9-9.24a2.47,2.47,0,0,0-1-.43l-20.63-4.1a2.07,2.07,0,0,0-.5-.05,2.56,2.56,0,0,0-1.5.49l-40.76,30-16.47-6.4a2.46,2.46,0,0,0-.92-.17,2.53,2.53,0,0,0-1.48.47l-37.26,26.72-8-5.63a2.55,2.55,0,0,0-1.45-.46,2.41,2.41,0,0,0-1.11.26L108,292.47,96.33,303.64a2.7,2.7,0,0,1-.59.43L118.46,293l8.29,5.8a2.56,2.56,0,0,0,2.94,0l37.6-27,16.49,6.4a2.42,2.42,0,0,0,.91.18,2.51,2.51,0,0,0,1.51-.5l41-30.16,19,3.78,14.15,10.15a2.6,2.6,0,0,0,1.48.47,2.55,2.55,0,0,0,1.75-.69l61.53-58m.5-.63h0m.32-1a2.53,2.53,0,0,1-.32,1,2.53,2.53,0,0,0,.32-1m0,0h0m-.58-1.84.09.13a2.66,2.66,0,0,1,.35.64,2.83,2.83,0,0,0-.44-.77m0,0h0m-.67-.56h0m-2.11-.2a2.62,2.62,0,0,0-.7.37l0,0a2.39,2.39,0,0,1,.67-.35m1.06-.14a2.6,2.6,0,0,1,1,.34,2.7,2.7,0,0,0-1-.34m0,0h0"/><path class="cls-14" d="M108,292.47l-14,6.8H81.39a2.06,2.06,0,0,0-.42,0L71,301a2.54,2.54,0,0,0-2.11,2.5,3.11,3.11,0,0,0,0,.43,2.55,2.55,0,0,0,2.5,2.12,2.09,2.09,0,0,0,.43,0l9.79-1.66h13a2.5,2.5,0,0,0,1-.26l.06,0a2.7,2.7,0,0,0,.59-.43L108,292.47M323.38,199a2.44,2.44,0,0,0-.84.15,2.39,2.39,0,0,0-.67.35l0,0-.2.18-30.49,28.75,33.74-24.86.2-.17,0,0a2.44,2.44,0,0,0,.47-.6h0a2.53,2.53,0,0,0,.32-1h0a2.59,2.59,0,0,0-.14-1.07,2.66,2.66,0,0,0-.35-.64l-.09-.13h0l-.09-.11a2.69,2.69,0,0,0-.57-.45h0a2.6,2.6,0,0,0-1-.34h-.22"/><path class="cls-4" d="M65.37,306.25v-47.6a1.27,1.27,0,1,0-2.53,0v47.6a1.27,1.27,0,1,0,2.53,0"/><path class="cls-4" d="M64.74,227.55V162.18H335.12v155.5a1.27,1.27,0,1,0,2.54,0V160.91a1.31,1.31,0,0,0-.37-.9,1.28,1.28,0,0,0-.9-.37H63.47a1.28,1.28,0,0,0-.9.37,1.31,1.31,0,0,0-.37.9v66.64a1.27,1.27,0,0,0,2.54,0Z"/><path class="cls-4" d="M352.89,186.3V185H342.74V101.25h8.88V186.3h1.27v0h1.27V100a1.26,1.26,0,0,0-1.27-1.27H341.47A1.26,1.26,0,0,0,340.2,100V186.3a1.24,1.24,0,0,0,.37.89,1.27,1.27,0,0,0,.9.38h11.42a1.27,1.27,0,0,0,.9-.38,1.24,1.24,0,0,0,.37-.89Z"/><path class="cls-4" d="M371.3,186.3V185H361.14V121.56H370V186.3h1.27v0h1.27v-66a1.31,1.31,0,0,0-.37-.9,1.28,1.28,0,0,0-.9-.37H359.87a1.24,1.24,0,0,0-.89.37,1.27,1.27,0,0,0-.38.9v66a1.3,1.3,0,0,0,1.27,1.27H371.3a1.28,1.28,0,0,0,1.27-1.27Z"/><path class="cls-4" d="M424.61,186.3V185H414.46V140h8.88V186.3h1.27v0h1.27V138.69a1.24,1.24,0,0,0-.37-.89,1.26,1.26,0,0,0-.9-.38H413.19a1.27,1.27,0,0,0-.9.38,1.24,1.24,0,0,0-.37.89V186.3a1.24,1.24,0,0,0,.37.89,1.27,1.27,0,0,0,.9.38h11.42a1.26,1.26,0,0,0,.9-.38,1.24,1.24,0,0,0,.37-.89Z"/><path class="cls-4" d="M406.84,186.3V185H396.69V109.5h8.88v76.8h1.27v0h1.27V108.23a1.26,1.26,0,0,0-1.27-1.27H395.42a1.26,1.26,0,0,0-1.27,1.27V186.3a1.24,1.24,0,0,0,.37.89,1.27,1.27,0,0,0,.9.38h11.42a1.27,1.27,0,0,0,.9-.38,1.24,1.24,0,0,0,.37-.89Z"/><path class="cls-4" d="M389.07,186.3V185H378.91V146.94h8.89V186.3h1.27v0h1.27V145.68a1.26,1.26,0,0,0-1.27-1.27H377.64a1.26,1.26,0,0,0-1.26,1.27V186.3a1.28,1.28,0,0,0,1.26,1.27h11.43a1.28,1.28,0,0,0,1.27-1.27Z"/><path class="cls-15" d="M433.5,199H404.3a10.16,10.16,0,0,0,0,20.31h29.2a10.16,10.16,0,0,0,0-20.31"/><path class="cls-4" d="M357,289.56s-.55,7.09-1,14.18c-.2,3.55-.36,7.09-.41,9.73,0,.66,0,1.26,0,1.78s0,1,0,1.33c0,.18,0,.34,0,.47s0,.17,0,.23,0,.19,0,.19l0,.5a1.22,1.22,0,0,1-2.4.42s-.05-.15-.12-.43-.08-.32-.13-.53-.05-.35-.08-.56c-.07-.42-.13-.92-.17-1.47s-.11-1.18-.14-1.86c-.18-2.7-.23-6.28-.32-9.86-.19-7.14-.14-14.29-.14-14.29h0a2.38,2.38,0,0,1,2.35-2.46,2.42,2.42,0,0,1,2.43,2.44A1.46,1.46,0,0,1,357,289.56Z"/><path class="cls-4" d="M372.86,289.56s-.55,7.09-1,14.18c-.2,3.55-.37,7.09-.41,9.73,0,.66,0,1.26,0,1.78s0,1,0,1.33c0,.18,0,.34,0,.47s0,.17,0,.23,0,.19,0,.19l0,.5a1.23,1.23,0,0,1-2.41.42l-.12-.43c0-.14-.07-.32-.13-.53s-.05-.35-.08-.56c-.06-.42-.12-.92-.16-1.47s-.11-1.18-.15-1.86c-.18-2.7-.22-6.28-.31-9.86-.19-7.14-.14-14.29-.14-14.29h0a2.38,2.38,0,0,1,2.35-2.46,2.42,2.42,0,0,1,2.43,2.44C372.91,289.42,372.86,289.5,372.86,289.56Z"/><path class="cls-16" d="M357.22,240.12s-12.47,37-12.2,50.7c0,0,23.87,4.56,39.16,0,0,0-3.75-41-6-50.7C378.15,240.12,369.69,243.2,357.22,240.12Z"/><path class="cls-4" d="M357.22,240.12l-1.2-.41s-3.06,9.09-6.13,19.93c-1.53,5.43-3.06,11.29-4.21,16.7a74.48,74.48,0,0,0-1.94,14c0,.16,0,.32,0,.47a1.26,1.26,0,0,0,1,1.22,134.16,134.16,0,0,0,22.45,2.05A62.06,62.06,0,0,0,384.54,292a1.28,1.28,0,0,0,.91-1.33s-.94-10.27-2.17-21.75c-.61-5.74-1.3-11.78-2-17-.34-2.61-.67-5-1-7.08s-.63-3.78-.93-5.05a1.24,1.24,0,0,0-.63-.82,1.3,1.3,0,0,0-1-.08h0a30.45,30.45,0,0,1-9.52,1.3,44.49,44.49,0,0,1-10.66-1.34,1.28,1.28,0,0,0-1.51.83l1.2.41-.3,1.23a47.18,47.18,0,0,0,11.27,1.41,32.62,32.62,0,0,0,10.39-1.45l-.43-1.19-1.24.29c.27,1.15.58,2.83.9,4.85,1.11,7.11,2.39,18.55,3.39,28.18.5,4.82.93,9.2,1.23,12.36.16,1.59.28,2.87.36,3.76s.13,1.37.13,1.37l1.26-.11-.36-1.22a60,60,0,0,1-16.59,2,128.36,128.36,0,0,1-15.3-1c-2-.25-3.71-.5-4.87-.69l-1.34-.23-.35-.06-.11,0-.24,1.25,1.27,0c0-.14,0-.28,0-.42a71.63,71.63,0,0,1,1.88-13.5c1.71-8,4.27-17.09,6.41-24.18,1.07-3.55,2-6.59,2.73-8.75l.82-2.52c.2-.58.3-.9.3-.9l-1.2-.4-.3,1.23Z"/><path class="cls-4" d="M379,247.16l.36.28.28.22.44.31a8.72,8.72,0,0,0,3,1.25,9.22,9.22,0,0,0,4.82-.41,15.51,15.51,0,0,0,2.79-1.31,22.51,22.51,0,0,0,2.76-2,30.3,30.3,0,0,0,2.58-2.37c.82-.83,1.61-1.7,2.34-2.57.37-.43.71-.88,1.06-1.31s.68-.85,1-1.28l.92-1.23c.28-.41.55-.81.82-1.19.53-.76,1-1.48,1.39-2.11s.76-1.19,1.05-1.66l.88-1.46,0,0a1.33,1.33,0,0,1,1.82-.44,1.32,1.32,0,0,1,.51,1.68l-.74,1.6c-.23.5-.52,1.12-.87,1.81s-.74,1.5-1.2,2.34l-.72,1.33-.81,1.4c-.27.48-.57,1-.89,1.47s-.62,1-1,1.51c-.68,1-1.42,2.06-2.22,3.09a38.8,38.8,0,0,1-2.64,3,28,28,0,0,1-3.09,2.74,20.39,20.39,0,0,1-3.57,2.2,15.77,15.77,0,0,1-3.93,1.3,15,15,0,0,1-3.85.22,15.44,15.44,0,0,1-5.6-1.55c-.31-.16-.58-.3-.83-.45l-.62-.37-.39-.24a3.57,3.57,0,0,1,3.78-6.06Z"/><path class="cls-17" d="M372.59,245.19S392.16,232.51,382,214c-7.15-13-20.89-10.33-26.05-4.22s-5.89,16.61-.2,28.21c-1,4.22-21,35.45,2.19,36.11C364.48,274.08,370.19,266.2,372.59,245.19Z"/><path class="cls-4" d="M372.59,245.19l.69,1.06a33.24,33.24,0,0,0,6.43-5.79,29.23,29.23,0,0,0,4.43-6.78,21.52,21.52,0,0,0,2-9,23.19,23.19,0,0,0-3.09-11.28A19.71,19.71,0,0,0,376,205.7a16.35,16.35,0,0,0-8.38-2.28,17.74,17.74,0,0,0-7.2,1.55,15.11,15.11,0,0,0-5.44,4,20.53,20.53,0,0,0-4.48,13.48,36.88,36.88,0,0,0,4.11,16.11l1.14-.56-1.24-.29a8,8,0,0,1-.49,1.26c-.48,1.1-1.26,2.67-2.15,4.53a101.33,101.33,0,0,0-4.16,9.81,34,34,0,0,0-2.2,10.72,14,14,0,0,0,.62,4.28,9.15,9.15,0,0,0,3.9,5,15.42,15.42,0,0,0,7.87,2h0a9.29,9.29,0,0,0,5.46-1.8c2.54-1.82,4.68-4.93,6.43-9.53s3.13-10.74,4-18.69l-1.26-.14.69,1.06-.69-1.06-1.26-.14c-1.18,10.4-3.2,17.5-5.62,21.85a13.6,13.6,0,0,1-3.8,4.58,6.75,6.75,0,0,1-4,1.33v1.27l0-1.27a15.68,15.68,0,0,1-4.9-.82,7,7,0,0,1-3.89-3.06A9.72,9.72,0,0,1,348,264a27.21,27.21,0,0,1,1.26-7.43,82.33,82.33,0,0,1,4.47-11.21c.78-1.63,1.5-3.09,2.06-4.28.28-.6.52-1.13.71-1.59a8.44,8.44,0,0,0,.44-1.23,1.31,1.31,0,0,0-.1-.85,34.47,34.47,0,0,1-3.85-15,18,18,0,0,1,3.88-11.84,12.7,12.7,0,0,1,4.53-3.3A15.27,15.27,0,0,1,367.6,206a13.77,13.77,0,0,1,7.08,1.93,17.14,17.14,0,0,1,6.19,6.7,20.75,20.75,0,0,1,2.77,10.06,18.85,18.85,0,0,1-1.81,8,28.23,28.23,0,0,1-6.22,8.46,30.81,30.81,0,0,1-2.65,2.28c-.34.26-.61.45-.79.58l-.21.14,0,0h0a1.27,1.27,0,0,0-.57.93Z"/><g class="cls-18"><path class="cls-19" d="M194.85,343.07h-26a2.54,2.54,0,1,0,0,5.07h26a2.54,2.54,0,1,0,0-5.07"/><path class="cls-19" d="M208.82,343.07h-7a2.54,2.54,0,0,0,0,5.07h7a2.54,2.54,0,0,0,0-5.07"/></g><path class="cls-3" d="M198.56,327.08a14.78,14.78,0,1,1-14.78-14.77A14.78,14.78,0,0,1,198.56,327.08Z"/><path class="cls-4" d="M198.56,327.08h-1.27a13.5,13.5,0,1,1-4-9.55,13.45,13.45,0,0,1,4,9.55h2.54a16,16,0,1,0-16.05,16,16.05,16.05,0,0,0,16.05-16Z"/></g></g></g></svg>