<svg xmlns="http://www.w3.org/2000/svg" xmlns:xlink="http://www.w3.org/1999/xlink" viewBox="0 0 541.89 415.95"><defs><style>.cls-1{fill:none;}.cls-2{isolation:isolate;}.cls-3{fill:#f0acc4;opacity:0.3;}.cls-4,.cls-9{fill:#fff;}.cls-4{opacity:0.1;}.cls-5{fill:#1a1a1a;}.cls-6{opacity:0.6;mix-blend-mode:multiply;}.cls-7{fill:#a45572;}.cls-8{clip-path:url(#clip-path);}.cls-10{fill:#f1b3ca;}.cls-11{fill:#f6d0de;}.cls-12{fill:#6e0a2f;}.cls-13{fill:#e46b97;}.cls-14{fill:#eea5c0;}.cls-15{fill:#5f0929;}.cls-16{fill:#fbecf2;}.cls-17{fill:#d4145a;}.cls-18{fill:#de4e83;}.cls-19{fill:#ec98b6;}.cls-20{fill:#7a2644;}.cls-21{fill:#db3f78;}</style><clipPath id="clip-path"><path class="cls-1" d="M282.33,299.67h-2.14a6,6,0,0,1-6,6.05H156.79c-1.78.76-3.6,1.47-5.44,2.13h122.8a8.18,8.18,0,0,0,8.18-8.18m-8.18-45.87H208.5c-.3.72-.61,1.43-.93,2.14h66.58a6,6,0,0,1,6,6v37.69h2.14V262a8.19,8.19,0,0,0-8.18-8.18"/></clipPath></defs><title>Asset 2dots-reference-checks</title><g class="cls-2"><g id="Layer_2" data-name="Layer 2"><g id="_360_Home_page" data-name="360 Home page"><path class="cls-3" d="M425.27,158.24v148.9a8.13,8.13,0,0,1-1.21,4.27h21c26.31-35,47.78-118,4.17-140.39-9.08-4.65-16.94-8.76-24-12.78"/><path class="cls-3" d="M243,0c-26.86,0-48.88,11.94-63.24,31.21H316C291.3,4,273.77,1.74,248.81.18c-2-.12-3.89-.18-5.8-.18"/><path class="cls-3" d="M41.23,275.78a236.82,236.82,0,0,0,15.91,35.63H80.3a7.58,7.58,0,0,1-1.36-4.27v-1.9a98,98,0,0,1-37.71-29.46m39.13-155c-3.72,2.68-7.49,5.44-11.32,8.34a106.14,106.14,0,0,0-12.1,10.61A98.07,98.07,0,0,1,80.36,125.7v-4.89"/><path class="cls-4" d="M81.78,306.45v.69a4.93,4.93,0,0,0,1.54,3.46,6.19,6.19,0,0,0,1,.81H98a97.32,97.32,0,0,1-16.22-5m192.37-50.51H207.57a98.11,98.11,0,0,1-50.78,49.78H274.15a6,6,0,0,0,6-6.05h0V262a6,6,0,0,0-6-6m23.11,5.69a1.07,1.07,0,0,1,0-2.14H337.8a1.07,1.07,0,0,1,0,2.14H297.26m14.93-11.38a1.42,1.42,0,0,1,0-2.84H347a1.42,1.42,0,0,1,0,2.84H312.19m-12.8,2.13a2.84,2.84,0,0,1-2.84-2.84v-.71a2.85,2.85,0,0,1,2.84-2.85h5.69a2.86,2.86,0,0,1,2.85,2.85v.71a2.85,2.85,0,0,1-2.85,2.84h-5.69m-2.13-10.67a1.07,1.07,0,1,1,0-2.13h17.07a1.07,1.07,0,0,1,0,2.13H297.26m14.93-12.08a1.43,1.43,0,0,1,0-2.85H347a1.43,1.43,0,0,1,0,2.85H312.19m-12.8,2.84a2.84,2.84,0,0,1-2.84-2.84v-.72a2.84,2.84,0,0,1,2.84-2.84h5.69a2.85,2.85,0,0,1,2.85,2.84v.72a2.85,2.85,0,0,1-2.85,2.84h-5.69m-2.13-11.38a1.07,1.07,0,1,1,0-2.13h17.07a1.07,1.07,0,0,1,0,2.13H297.26m0-9.24a1.78,1.78,0,1,1,0-3.56h32a1.78,1.78,0,1,1,0,3.56h-32m92.09-10.67H292.64a6,6,0,0,0-6.05,6v59a6.06,6.06,0,0,0,6.05,6.05h96.71a6.06,6.06,0,0,0,6-6.05h0v-59a6,6,0,0,0-6-6m-92.09-17.07a1.42,1.42,0,0,1,0-2.84h14.93a1.42,1.42,0,1,1,0,2.84H297.26m58.47,3.56c-3.13,0-5.69-2.1-5.69-4.62s2.56-4.63,5.69-4.63h15.65c3.12,0,5.68,2.1,5.68,4.63s-2.56,4.62-5.68,4.62H355.73M297.26,172a1.42,1.42,0,0,1,0-2.84h14.93a1.42,1.42,0,1,1,0,2.84H297.26m53.34,0a1.42,1.42,0,1,1,0-2.84h14.93a1.42,1.42,0,1,1,0,2.84H350.6m-53.34-19.91a1.43,1.43,0,0,1,0-2.85H320a1.43,1.43,0,0,1,0,2.85H297.26m0-7.11a1.43,1.43,0,0,1,0-2.85h82.49a1.43,1.43,0,1,1,0,2.85H297.26m0-12.8a2.14,2.14,0,0,1,0-4.27h34.85a2.14,2.14,0,0,1,0,4.27H297.26m41.25,0a2.14,2.14,0,1,1,0-4.27h27a2.14,2.14,0,0,1,0,4.27h-27m-41.25-7.11a1.78,1.78,0,1,1,0-3.56h39.82a1.78,1.78,0,1,1,0,3.56H297.26m98.14-10.67H286.59V188a6,6,0,0,0,6.05,6h96.71a6,6,0,0,0,6-6h0v-73.6M119.47,113a2.14,2.14,0,0,1,0-4.27h76.1a2.14,2.14,0,0,1,0,4.27h-76.1M274.15,97.35H114.85a6,6,0,0,0-6,6.05v15.09c3.15-.31,6.36-.47,9.6-.47a97.82,97.82,0,0,1,92,130.81h63.71a6,6,0,0,0,6-6.05h0V103.4a6,6,0,0,0-6-6.05m18.49,177.08a8.18,8.18,0,0,1-8.18-8.18v-59a8.17,8.17,0,0,1,8.18-8.17h96.71a8.17,8.17,0,0,1,8.18,8.17v59h0a8.18,8.18,0,0,1-8.18,8.18H292.64m-8.18-171h0a8.18,8.18,0,0,1,8.18-8.18h96.71a8.18,8.18,0,0,1,8.18,8.18V188h0a8.18,8.18,0,0,1-8.18,8.18H292.64a8.18,8.18,0,0,1-8.18-8.18V103.4h0M126.58,80.28a2.13,2.13,0,0,1,0-4.26h20.63a2.13,2.13,0,0,1,0,4.26H126.58m34.85,0a2.13,2.13,0,1,1,0-4.26h19.2a2.13,2.13,0,0,1,0,4.26h-19.2m36.27,0a2.13,2.13,0,1,1,0-4.26h27a2.13,2.13,0,1,1,0,4.26h-27M86.83,34.06a5.3,5.3,0,0,0-5,5v78.17a1.43,1.43,0,0,1-1.42,1.43h0v7a97,97,0,0,1,26.31-7V103.4a8.18,8.18,0,0,1,8.18-8.18h159.3a8.18,8.18,0,0,1,8.18,8.18V242.78h0a8.18,8.18,0,0,1-8.18,8.18h-64.5c-.37,1-.75,1.9-1.15,2.84h65.65a8.19,8.19,0,0,1,8.18,8.18v37.69h0a8.18,8.18,0,0,1-8.18,8.18H151.35a95.66,95.66,0,0,1-12.53,3.56h281.4a4.68,4.68,0,0,0,.86-.75,5.26,5.26,0,0,0,1.34-3.52v-268a5.36,5.36,0,0,0-1.34-3.55,4.24,4.24,0,0,0-3.2-1.48h-331"/><path class="cls-5" d="M42.67,317.1h431a2.85,2.85,0,1,0,0-5.69H42.67a2.85,2.85,0,1,0,0,5.69"/><path class="cls-5" d="M482.87,317.1h14.22a2.85,2.85,0,1,0,0-5.69H482.87a2.85,2.85,0,1,0,0,5.69"/><path class="cls-5" d="M507.76,317.1h31.29a2.85,2.85,0,0,0,0-5.69H507.76a2.85,2.85,0,0,0,0,5.69"/><path class="cls-5" d="M17.78,317.1H32a2.85,2.85,0,1,0,0-5.69H17.78a2.85,2.85,0,1,0,0,5.69"/><path class="cls-5" d="M2.84,317.1h6.4a2.85,2.85,0,1,0,0-5.69H2.84a2.85,2.85,0,0,0,0,5.69"/><path class="cls-5" d="M81.78,117.26V39.09a5.29,5.29,0,0,1,5.06-5h331a4.24,4.24,0,0,1,3.2,1.48,5.36,5.36,0,0,1,1.34,3.55v268a5.26,5.26,0,0,1-1.34,3.52,4.27,4.27,0,0,1-3.2,1.46h-331a5.14,5.14,0,0,1-3.52-1.52,4.93,4.93,0,0,1-1.54-3.46V289.36a1.42,1.42,0,1,0-2.84,0v17.78a7.75,7.75,0,0,0,2.38,5.49A7.93,7.93,0,0,0,86.84,315h331a7.11,7.11,0,0,0,5.31-2.39,8.12,8.12,0,0,0,2.08-5.43v-268a8.23,8.23,0,0,0-2.07-5.45,7.15,7.15,0,0,0-5.32-2.43h-331a7.93,7.93,0,0,0-5.52,2.37,7.81,7.81,0,0,0-2.38,5.51v78.17a1.42,1.42,0,1,0,2.84,0"/><path class="cls-5" d="M78.94,130.06v22.05a1.42,1.42,0,1,0,2.84,0V130.06a1.42,1.42,0,1,0-2.84,0"/><path class="cls-5" d="M80.36,63.22H423.84a1.43,1.43,0,1,0,0-2.85H80.36a1.43,1.43,0,0,0,0,2.85"/><polygon class="cls-5" points="104.18 47.04 104.18 50.1 101.72 48.57 99.16 47.04 101.67 45.51 104.18 43.98 104.18 47.04"/><path class="cls-5" d="M104.18,47h-1.06v1.14l-.84-.52h0l-1-.63,1-.61.89-.54V47h2.13V44a1.08,1.08,0,0,0-.54-.93,1.07,1.07,0,0,0-1.08,0l-2.51,1.53-2.51,1.53a1.07,1.07,0,0,0-.51.92,1.06,1.06,0,0,0,.52.91l2.54,1.52L103.62,51a1.07,1.07,0,0,0,1.63-.91V47Z"/><polygon class="cls-5" points="134.05 47.04 134.05 43.98 136.52 45.51 139.08 47.04 136.57 48.57 134.05 50.1 134.05 47.04"/><path class="cls-5" d="M134.05,47h1.07V45.9l.84.52h0l1,.62-1,.61-.89.54V47H133V50.1a1.07,1.07,0,0,0,1.62.91l2.52-1.53L139.64,48a1.06,1.06,0,0,0,.51-.91,1.08,1.08,0,0,0-.52-.92l-2.56-1.52-.55.91.56-.9-2.47-1.53a1,1,0,0,0-1.08,0A1.06,1.06,0,0,0,133,44V47Z"/><path class="cls-5" d="M117.34,32.64V61.8a1.42,1.42,0,0,0,2.84,0V32.64a1.42,1.42,0,1,0-2.84,0"/><path class="cls-5" d="M154.32,32.64V61.8a1.42,1.42,0,1,0,2.84,0V32.64a1.42,1.42,0,1,0-2.84,0"/><g class="cls-6"><path class="cls-7" d="M147.21,76H126.58a2.13,2.13,0,0,0,0,4.26h20.63a2.13,2.13,0,0,0,0-4.26"/><path class="cls-7" d="M180.63,76h-19.2a2.13,2.13,0,1,0,0,4.26h19.2a2.13,2.13,0,0,0,0-4.26"/><path class="cls-7" d="M224.72,76h-27a2.13,2.13,0,1,0,0,4.26h27a2.13,2.13,0,1,0,0-4.26"/></g><g class="cls-6"><g class="cls-8"><rect class="cls-7" x="151.35" y="253.8" width="130.97" height="54.05"/></g><path class="cls-7" d="M282.33,242.78h-2.14a6,6,0,0,1-6,6.05H210.44c-.25.71-.52,1.42-.79,2.13h64.5a8.18,8.18,0,0,0,8.18-8.18M274.15,95.22H114.85a8.18,8.18,0,0,0-8.18,8.18v15.32c.71-.09,1.42-.16,2.14-.23V103.4a6,6,0,0,1,6-6.05h159.3a6,6,0,0,1,6,6.05V242.78h2.14V103.4a8.18,8.18,0,0,0-8.18-8.18"/><path class="cls-7" d="M195.57,108.73h-76.1a2.14,2.14,0,0,0,0,4.27h76.1a2.14,2.14,0,0,0,0-4.27"/></g><g class="cls-6"><path class="cls-7" d="M389.35,97.35H292.64a6,6,0,0,0-6.05,6.05v8.89H395.4V103.4a6,6,0,0,0-6-6.05"/><path class="cls-7" d="M389.35,97.35H292.64a6,6,0,0,0-6.05,6.05h0a6,6,0,0,1,6.05-6.05h96.71a6,6,0,0,1,6,6.05v8.89H286.59v2.13H395.4v-11a6,6,0,0,0-6-6.05"/><path class="cls-7" d="M389.35,95.22H292.64a8.18,8.18,0,0,0-8.18,8.18h0V188a8.18,8.18,0,0,0,8.18,8.18h96.71a8.18,8.18,0,0,0,8.18-8.18H395.4a6,6,0,0,1-6,6H292.64a6,6,0,0,1-6.05-6V103.4a6,6,0,0,1,6.05-6.05h96.71a6,6,0,0,1,6,6.05V188h2.13V103.4a8.18,8.18,0,0,0-8.18-8.18"/><path class="cls-7" d="M389.35,199.05H292.64a8.17,8.17,0,0,0-8.18,8.17v59a8.18,8.18,0,0,0,8.18,8.18h96.71a8.18,8.18,0,0,0,8.18-8.18H395.4a6.06,6.06,0,0,1-6,6.05H292.64a6.06,6.06,0,0,1-6.05-6.05v-59a6,6,0,0,1,6.05-6h96.71a6,6,0,0,1,6,6v59h2.13v-59a8.17,8.17,0,0,0-8.18-8.17"/><path class="cls-7" d="M371.38,178.42H355.73c-3.13,0-5.69,2.1-5.69,4.63s2.56,4.62,5.69,4.62h15.65c3.12,0,5.68-2.1,5.68-4.62s-2.56-4.63-5.68-4.63"/><path class="cls-7" d="M305.08,226.07h-5.69a2.84,2.84,0,0,0-2.84,2.84v.72a2.84,2.84,0,0,0,2.84,2.84h5.69a2.85,2.85,0,0,0,2.85-2.84v-.72a2.85,2.85,0,0,0-2.85-2.84"/><path class="cls-7" d="M305.08,246h-5.69a2.85,2.85,0,0,0-2.84,2.85v.71a2.84,2.84,0,0,0,2.84,2.84h5.69a2.85,2.85,0,0,0,2.85-2.84v-.71a2.86,2.86,0,0,0-2.85-2.85"/><path class="cls-7" d="M329.26,208.29h-32a1.78,1.78,0,1,0,0,3.56h32a1.78,1.78,0,1,0,0-3.56"/><path class="cls-7" d="M332.11,127.93H297.26a2.14,2.14,0,0,0,0,4.27h34.85a2.14,2.14,0,0,0,0-4.27"/><path class="cls-7" d="M337.08,121.53H297.26a1.78,1.78,0,1,0,0,3.56h39.82a1.78,1.78,0,1,0,0-3.56"/><path class="cls-7" d="M365.53,127.93h-27a2.14,2.14,0,1,0,0,4.27h27a2.14,2.14,0,0,0,0-4.27"/><path class="cls-7" d="M314.33,219H297.26a1.07,1.07,0,1,0,0,2.13h17.07a1.07,1.07,0,0,0,0-2.13"/><path class="cls-7" d="M337.8,259.49H297.26a1.07,1.07,0,0,0,0,2.14H337.8a1.07,1.07,0,0,0,0-2.14"/><path class="cls-7" d="M347,226.78H312.19a1.43,1.43,0,0,0,0,2.85H347a1.43,1.43,0,0,0,0-2.85"/><path class="cls-7" d="M379.75,142.15H297.26a1.43,1.43,0,0,0,0,2.85h82.49a1.43,1.43,0,1,0,0-2.85"/><path class="cls-7" d="M320,149.26H297.26a1.43,1.43,0,0,0,0,2.85H320a1.43,1.43,0,0,0,0-2.85"/><path class="cls-7" d="M312.19,169.18H297.26a1.42,1.42,0,0,0,0,2.84h14.93a1.42,1.42,0,1,0,0-2.84"/><path class="cls-7" d="M312.19,181.27H297.26a1.42,1.42,0,0,0,0,2.84h14.93a1.42,1.42,0,1,0,0-2.84"/><path class="cls-7" d="M365.53,169.18H350.6a1.42,1.42,0,1,0,0,2.84h14.93a1.42,1.42,0,1,0,0-2.84"/><path class="cls-7" d="M314.33,239.58H297.26a1.07,1.07,0,1,0,0,2.13h17.07a1.07,1.07,0,0,0,0-2.13"/><path class="cls-7" d="M347,247.41H312.19a1.42,1.42,0,0,0,0,2.84H347a1.42,1.42,0,0,0,0-2.84"/></g><path class="cls-5" d="M416.43,301.9,404,255.23h62.7l-11.09,56.89H418.16a1.42,1.42,0,1,0,0,2.84h38.66a1.41,1.41,0,0,0,1.39-1.15l11.64-59.73a1.43,1.43,0,0,0-1.39-1.7H402.18a1.43,1.43,0,0,0-1.38,1.79l12.88,48.46a1.42,1.42,0,1,0,2.75-.73Z"/><path class="cls-9" d="M472.62,299.58c3.72,1.43,4.43,5,4.15,9.35-.26,4-5.38,3.77-8.74,3.95-4,.22-6.19-5.42-4.76-9.15A7.23,7.23,0,0,1,472.62,299.58Z"/><path class="cls-5" d="M463.94,307a6.74,6.74,0,0,1,0-.77,5.79,5.79,0,0,1,.37-2.12h0a6.15,6.15,0,0,1,5.75-3.95,5.93,5.93,0,0,1,2.21.42,5,5,0,0,1,1.69,1,5.16,5.16,0,0,1,1.41,2.35,11.59,11.59,0,0,1,.43,3.39c0,.49,0,1-.06,1.52a2.3,2.3,0,0,1-.5,1.39,3.11,3.11,0,0,1-1.26.83,1.07,1.07,0,0,0,.78,2,5.17,5.17,0,0,0,2.11-1.45,4.41,4.41,0,0,0,1-2.63c0-.55.06-1.11.06-1.65a11.93,11.93,0,0,0-1-5.22,6.75,6.75,0,0,0-1.53-2.09,7.39,7.39,0,0,0-2.37-1.45,8.44,8.44,0,0,0-3-.55,8.31,8.31,0,0,0-7.75,5.32h0a8.11,8.11,0,0,0-.51,2.89,8.22,8.22,0,0,0,.06,1,1.07,1.07,0,0,0,2.12-.22Z"/><path class="cls-5" d="M471.48,311.61c-1.16.12-2.4.14-3.51.2h-.16a2.85,2.85,0,0,1-1.79-.63,4.8,4.8,0,0,1-1.38-1.74,1.07,1.07,0,1,0-1.91.95,6.94,6.94,0,0,0,2,2.49,5.05,5.05,0,0,0,3.08,1.06h.28c1-.06,2.33-.08,3.61-.22a1.07,1.07,0,1,0-.22-2.12Z"/><polygon class="cls-10" points="456.82 313.54 417.88 313.54 402.18 253.81 468.46 253.81 456.82 313.54"/><path class="cls-5" d="M456.82,313.54v-1.42H419l-15-56.89h62.71l-11.31,58,1.4.27v0l1.39.27,11.64-59.73a1.43,1.43,0,0,0-1.39-1.7H402.18a1.43,1.43,0,0,0-1.38,1.79l15.71,59.73a1.41,1.41,0,0,0,1.37,1.06h38.94a1.41,1.41,0,0,0,1.39-1.15Z"/><polygon class="cls-11" points="411.82 290.63 426.85 259.49 464.28 275.06 452.55 314.25 418.15 314.25 411.82 290.63"/><path class="cls-5" d="M437.5,265.46l25.05,10.42-11.06,36.95H419.25l-5.92-22.06,2.33-4.82a1.42,1.42,0,0,0-2.56-1.24l-2.56,5.3a1.45,1.45,0,0,0-.1,1l6.34,23.63a1.43,1.43,0,0,0,1.38,1.05h34.39a1.43,1.43,0,0,0,1.37-1l11.72-39.19a1.42,1.42,0,0,0-.81-1.72l-26.24-10.91a1.42,1.42,0,0,0-1.09,2.62Z"/><path class="cls-5" d="M418.59,279.87l9-18.55,3.88,1.62a1.42,1.42,0,1,0,1.09-2.63l-5.13-2.13a1.41,1.41,0,0,0-1.82.7L416,278.63a1.42,1.42,0,1,0,2.56,1.24Z"/><path class="cls-12" d="M420.91,277.75s6.85-3.63,7.55,3.56c.54,7.12.45,8.12.45,8.12s20.65-13.49,29.84-12.58c-4.61,1.92-23.24,11.51-35.34,24.84C423.41,301.69,426.6,279,420.91,277.75Z"/><path class="cls-13" d="M455.78,288.59a3.53,3.53,0,1,1-1.68-4.7A3.53,3.53,0,0,1,455.78,288.59Z"/><path class="cls-14" d="M427.1,298.87c3.73,1.43,4.43,5,4.15,9.35-.25,4-5.38,3.76-8.73,3.95-4,.22-4.89-5.22-4.76-9.15S423.38,297.43,427.1,298.87Z"/><path class="cls-14" d="M445,303.08c1,3.86-1.52,6.53-5.18,8.82-3.39,2.11-6.2-2.18-8.3-4.8-2.5-3.12,1.66-10,4.8-7.68C438.45,301,444,299.21,445,303.08Z"/><path class="cls-5" d="M300.1,416h71.12a2.85,2.85,0,0,0,0-5.69H300.1a2.85,2.85,0,0,0,0,5.69"/><path class="cls-5" d="M275.92,416h12.81a2.85,2.85,0,0,0,0-5.69H275.92a2.85,2.85,0,0,0,0,5.69"/><path class="cls-9" d="M419,232.28c0,4-3.12,5.95-7.24,7.24-3.81,1.19-5.45-3.67-6.82-6.74-1.64-3.64,2.83-7.73,6.82-7.73A7.24,7.24,0,0,1,419,232.28Z"/><path class="cls-5" d="M409,226.85a6.26,6.26,0,0,1,2.81-.73,6.16,6.16,0,0,1,6.17,6.16,5.21,5.21,0,0,1-.45,2.19,5.71,5.71,0,0,1-2.2,2.35,16.34,16.34,0,0,1-3.84,1.68,2.89,2.89,0,0,1-.82.13,2,2,0,0,1-1-.24,3.49,3.49,0,0,1-.91-.74,1.07,1.07,0,0,0-1.51-.06,1.05,1.05,0,0,0-.07,1.5,5.49,5.49,0,0,0,1.51,1.19,4.09,4.09,0,0,0,1.95.49,4.7,4.7,0,0,0,1.46-.24,15.08,15.08,0,0,0,5.55-2.82,7.07,7.07,0,0,0,1.78-2.34,7.18,7.18,0,0,0,.65-3.09A8.22,8.22,0,0,0,408,225a1.06,1.06,0,1,0,1,1.89Z"/><path class="cls-5" d="M407.37,235.54c-.53-1-1-2.18-1.45-3.2a2.87,2.87,0,0,1-.26-1.16,3.37,3.37,0,0,1,.33-1.41,5.17,5.17,0,0,1,.94-1.39,1.06,1.06,0,0,0-.06-1.5,1.07,1.07,0,0,0-1.51.06,7.42,7.42,0,0,0-1.31,1.95,5.44,5.44,0,0,0-.52,2.29,5,5,0,0,0,.44,2c.43.95.91,2.14,1.5,3.29a1.06,1.06,0,0,0,1.43.47,1.08,1.08,0,0,0,.47-1.44Z"/><path class="cls-15" d="M361.33,229.25a49.8,49.8,0,0,0,8.81-29.79c-.64-20.62-8.15-26.86-21.26-30.54s-34.38,2.88-36.78,20,.64,30.22-2.56,42.21S287,277.49,293.23,290.76c2.88,4.8,8,9.44,14.11,4.29,1.21-6.23,9.27-46.65,9.27-46.65s-.59-6.31,25.93-13.56C342,226.25,361.33,229.25,361.33,229.25Z"/><path class="cls-5" d="M358.93,362l-1.63,2.26c-1,1.41-2.54,3.42-4.36,5.81l-3,3.82-3.39,4.23-3.72,4.45-4,4.53-.18.2-.13.14-.25.27-.51.53-1,1.08c-.65.71-1.41,1.44-2.1,2.15-1.42,1.45-2.78,2.79-4.11,4.09-2.65,2.61-5.14,5-7.28,7.07l-7.15,6.82a3.37,3.37,0,0,1-4.85-4.67l0,0,6.54-7.32c2-2.21,4.23-4.79,6.63-7.56,1.21-1.39,2.45-2.83,3.63-4.25.61-.73,1.21-1.41,1.83-2.2l.92-1.14.46-.58.23-.29.12-.14v0l0,.05,0,0,.05-.07,3.41-4.63,3.21-4.58,2.92-4.35c.91-1.39,1.77-2.72,2.56-3.94,1.56-2.45,2.84-4.5,3.72-5.95l1.37-2.26,0-.05a6,6,0,0,1,10.23,6.16A3.07,3.07,0,0,1,358.93,362Z"/><path class="cls-5" d="M327.1,351.33l.42.6c.28.41.69,1,1.17,1.74,1,1.48,2.33,3.59,3.9,6.15.77,1.29,1.62,2.67,2.47,4.16s1.75,3.07,2.64,4.71,1.79,3.36,2.7,5.1,1.76,3.56,2.64,5.35,1.68,3.63,2.44,5.45l1.12,2.71c.38.89.74,1.77,1.06,2.66s.64,1.75,1,2.6c.16.43.31.85.47,1.26s.27.84.4,1.25c.52,1.66,1.06,3.19,1.46,4.66s.75,2.81,1.06,4,.48,2.26.67,3.13l.55,2.73a3.15,3.15,0,0,1-6.1,1.57l-.08-.24s-.28-.88-.76-2.45c-.26-.77-.5-1.72-.91-2.79s-.86-2.27-1.36-3.58-1.17-2.7-1.8-4.18c-.16-.37-.33-.74-.5-1.12s-.37-.75-.55-1.13L340,393.34c-.38-.8-.8-1.6-1.24-2.39l-1.32-2.43c-.89-1.63-1.88-3.25-2.83-4.88s-2-3.23-3-4.79-2-3.1-3.05-4.55-2-2.87-3-4.19-1.89-2.54-2.74-3.68c-1.72-2.25-3.19-4.1-4.23-5.36-.52-.64-.92-1.11-1.18-1.42l-.44-.51,0,0a6.38,6.38,0,0,1,9.71-8.29A5.12,5.12,0,0,1,327.1,351.33Z"/><path class="cls-5" d="M387.64,245.93s-.08.13-.21.37l-.64,1.07c-.27.45-.61,1-1,1.61s-.84,1.31-1.33,2.07-1.05,1.55-1.64,2.4-1.21,1.74-1.9,2.64-1.39,1.84-2.15,2.77-1.54,1.87-2.34,2.8-1.67,1.82-2.5,2.73-1.76,1.72-2.61,2.55-1.79,1.55-2.64,2.28l-2.59,1.92c-.85.57-1.69,1.05-2.41,1.49a15.79,15.79,0,0,1-2,1.05l-1.84.85A6.36,6.36,0,0,1,354.52,263a7.71,7.71,0,0,1,1.11-.39l.47-.11,1.14-.29a7,7,0,0,0,1.35-.37c.53-.21,1.14-.4,1.81-.68l2.18-1,2.42-1.38c.83-.56,1.71-1.09,2.57-1.7s1.76-1.23,2.61-1.93,1.73-1.36,2.55-2.08,1.65-1.42,2.42-2.12,1.51-1.42,2.21-2.08,1.34-1.32,1.94-1.92,1.13-1.17,1.59-1.67.88-.94,1.21-1.31l.74-.83c.17-.21.27-.31.27-.31l0,0a2.77,2.77,0,0,1,4.5,3.19Z"/><path class="cls-13" d="M316.61,248.4s20,10.32,46,3.15c1.78,14.8,13.45,50.7,11.21,108.13-14.36,3.58-47.32,7.62-77.5,0C298,339,316.61,248.4,316.61,248.4Z"/><path class="cls-5" d="M316.61,248.4l-.66,1.27c.13.06,11.34,5.83,28,5.84A72,72,0,0,0,363,252.92l-.38-1.37-1.41.16c.42,3.48,1.35,8,2.5,13.56,3.46,16.73,9,43.27,9,79.88q0,7-.28,14.47l1.42.06-.35-1.38c-8.23,2.05-22.83,4.29-39.46,4.29a154.41,154.41,0,0,1-37.34-4.29l-.35,1.38,1.42.11c.4-5.05,1.87-14.59,3.85-26,3-17.07,7.06-38.36,10.42-55.38,1.68-8.5,3.17-15.94,4.24-21.25.54-2.66,1-4.78,1.27-6.24s.46-2.26.46-2.26l-1.39-.29-.66,1.27.66-1.27-1.4-.28s-4.65,22.66-9.51,47.91c-2.43,12.63-4.91,25.9-6.89,37.31s-3.46,21-3.89,26.22a1.41,1.41,0,0,0,1.07,1.49,156.89,156.89,0,0,0,38,4.38c16.89,0,31.65-2.25,40.15-4.37a1.45,1.45,0,0,0,1.08-1.33q.28-7.53.28-14.58a352.92,352.92,0,0,0-5.15-60.35c-1.34-7.82-2.73-14.53-3.88-20.11s-2.07-10-2.47-13.32a1.42,1.42,0,0,0-1.79-1.2,68.76,68.76,0,0,1-37.69-.29,56.28,56.28,0,0,1-5.44-1.9c-.62-.26-1.09-.47-1.41-.62l-.35-.17-.08,0h0a1.42,1.42,0,0,0-2.05,1Z"/><path class="cls-5" d="M366,224.12A50.92,50.92,0,0,0,371.59,201q0-.78,0-1.59a55.46,55.46,0,0,0-1.8-13.3,24,24,0,0,0-7.65-12.45c-3.51-2.91-7.84-4.71-12.85-6.12a30,30,0,0,0-8.06-1A36.62,36.62,0,0,0,322,172a26.1,26.1,0,0,0-7.39,6.93,22.23,22.23,0,0,0-3.87,9.82,123.55,123.55,0,0,0-1,17.2c0,3.15.06,6.14.06,9,0,5.73-.23,10.92-1.54,15.85A92,92,0,0,1,304.32,241c-2.65,6.33-6.07,14.06-8.84,21.73A110.78,110.78,0,0,0,292,274a44.25,44.25,0,0,0-1.42,10.2,16.9,16.9,0,0,0,1.36,7.15l.07.12a19.2,19.2,0,0,0,4.05,4.88,10.8,10.8,0,0,0,2.73,1.68,8,8,0,0,0,3.2.67,8.25,8.25,0,0,0,3.13-.63,11.85,11.85,0,0,0,3.14-2,1.42,1.42,0,0,0,.48-.81c.6-3.11,2.91-14.77,5.08-25.65,1.08-5.44,2.13-10.69,2.9-14.58.39-1.94.71-3.54.93-4.66s.35-1.75.35-1.75a1.42,1.42,0,0,0-2.79-.55s-8.06,40.4-9.27,46.65l1.4.27-.92-1.09a8.85,8.85,0,0,1-2.37,1.5,5.25,5.25,0,0,1-4.16,0,9.41,9.41,0,0,1-3-2.15,18,18,0,0,1-2.47-3.26l-1.22.73,1.29-.6a14,14,0,0,1-1.1-5.94,49.22,49.22,0,0,1,2.3-13.09,211.3,211.3,0,0,1,8.37-22.26c1.5-3.54,2.93-6.87,4.12-9.82a66.76,66.76,0,0,0,2.7-7.56c1.42-5.33,1.64-10.78,1.65-16.58,0-2.9-.06-5.89-.06-9a118.19,118.19,0,0,1,1-16.8,19.3,19.3,0,0,1,3.38-8.58,25.24,25.24,0,0,1,10.71-8.36,34.7,34.7,0,0,1,13.6-2.81,27.14,27.14,0,0,1,7.29.93,39,39,0,0,1,8.46,3.3,20.56,20.56,0,0,1,4.79,3.61,21.31,21.31,0,0,1,4.91,8.45,50.16,50.16,0,0,1,2.07,13.86c0,.5,0,1,0,1.5a48.2,48.2,0,0,1-5.24,21.83,1.42,1.42,0,1,0,2.53,1.28Z"/><polygon class="cls-9" points="333.85 274.78 359.27 256.43 383.1 291.5 355.96 314.25 333.85 274.78"/><path class="cls-5" d="M377.59,285.29l4.08,6-25.41,21.31-21-37.52L359,257.93l9,13.23a1.07,1.07,0,0,0,1.77-1.2l-9.6-14.13a1.09,1.09,0,0,0-.7-.45,1.05,1.05,0,0,0-.81.18l-25.42,18.36a1.06,1.06,0,0,0-.31,1.38L355,314.77a1.09,1.09,0,0,0,.74.53,1.07,1.07,0,0,0,.88-.23l27.13-22.76a1.06,1.06,0,0,0,.2-1.41l-4.62-6.81a1.07,1.07,0,0,0-1.77,1.2Z"/><path class="cls-5" d="M370.79,275.28l2,3a1.07,1.07,0,1,0,1.76-1.2l-2-3a1.07,1.07,0,0,0-1.77,1.2"/><path class="cls-5" d="M329.3,271.24l-.21.53c-.14.36-.35.91-.59,1.63-.5,1.42-1.18,3.5-1.8,6a43.59,43.59,0,0,0-1.33,8.45,18.47,18.47,0,0,0,.29,4.27,6.44,6.44,0,0,0,1.36,3,4.5,4.5,0,0,0,2.69,1.42,25.25,25.25,0,0,0,4.56.17,22.47,22.47,0,0,0,8.09-1.65,20.24,20.24,0,0,0,2.88-1.55c.42-.26.79-.55,1.13-.8s.66-.51.94-.74c.56-.46,1-.87,1.25-1.13l.44-.42.14-.13a2.77,2.77,0,0,1,4,3.86l-.49.55c-.31.35-.77.89-1.42,1.51-.32.32-.68.68-1.1,1s-.85.76-1.37,1.14a25,25,0,0,1-8.39,4.28,32.27,32.27,0,0,1-5.5,1.1c-.47.05-.94.12-1.44.15s-1,.08-1.43.1l-.67,0c-.29,0-.57,0-.86,0a13,13,0,0,1-1.75-.08,15.31,15.31,0,0,1-1.84-.3,14.56,14.56,0,0,1-1.87-.61,10.91,10.91,0,0,1-1.83-.94l-.87-.59a10.13,10.13,0,0,1-.79-.68,14.43,14.43,0,0,1-3.95-6.56,27,27,0,0,1-1-6.37,46.24,46.24,0,0,1,.14-5.6c.15-1.75.36-3.36.61-4.84.49-2.95,1.06-5.35,1.5-7,.22-.85.41-1.51.54-2l.23-.74a5.18,5.18,0,1,1,9.9,3,3.56,3.56,0,0,1-.13.39Z"/><path class="cls-16" d="M316.61,248.4l5.5-41.06c23.58,4.65,26-10.9,26-10.9,1.44,8.5,11.87,9.62,11.87,9.62l2.66,45.49C336.62,258.72,316.61,248.4,316.61,248.4Z"/><path class="cls-5" d="M361.05,248.91l.16,2.72,1.42-.08-.38-1.38a68.76,68.76,0,0,1-37.69-.29,56.28,56.28,0,0,1-5.44-1.9c-.62-.26-1.09-.47-1.41-.62l-.35-.17-.08,0h0l-.65,1.26,1.41.19,5.5-41.06-1.41-.19-.27,1.4a43.63,43.63,0,0,0,8.44.89,24.11,24.11,0,0,0,10.12-2,16.13,16.13,0,0,0,7.52-6.8,13.42,13.42,0,0,0,1.58-4.21l-1.4-.21-1.4.23a11.31,11.31,0,0,0,2.81,5.81,15.64,15.64,0,0,0,6.63,4.12,19.4,19.4,0,0,0,3.67.87l.16-1.41-1.42.08,1.94,33.24a1.42,1.42,0,0,0,1.51,1.33,1.41,1.41,0,0,0,1.33-1.5L361.39,206a1.42,1.42,0,0,0-1.27-1.33l0,.16,0-.16h0l0,.16,0-.16a17.47,17.47,0,0,1-5.05-1.55,11.59,11.59,0,0,1-3.5-2.58,8.46,8.46,0,0,1-2.07-4.32,1.42,1.42,0,0,0-2.81,0l.59.09-.59-.1h0l.59.09-.59-.1a12.18,12.18,0,0,1-2.7,5.33,13.64,13.64,0,0,1-4.87,3.58,21.38,21.38,0,0,1-8.84,1.67,40.83,40.83,0,0,1-7.89-.84,1.38,1.38,0,0,0-1.1.24,1.44,1.44,0,0,0-.59,1l-5.5,41.06a1.43,1.43,0,0,0,.75,1.46c.13.06,11.34,5.83,28,5.84A71.57,71.57,0,0,0,363,252.92a1.44,1.44,0,0,0,1-1.46l-.16-2.71a1.42,1.42,0,1,0-2.84.16Z"/><path class="cls-5" d="M341.17,237.61a19.07,19.07,0,0,0,2.6,2.44,14.38,14.38,0,0,0,2.79,1.71,8.79,8.79,0,0,0,3.61.84,7,7,0,0,0,4-1.27,11,11,0,0,0,3.36-4,1.78,1.78,0,0,0-3.14-1.67,7.52,7.52,0,0,1-2.24,2.77,3.3,3.3,0,0,1-2,.64,5.32,5.32,0,0,1-2.14-.52,12,12,0,0,1-2.94-2c-.38-.34-.69-.65-.9-.87l-.23-.25,0-.07h0l-.72.6.72-.6h0l-.72.6.72-.6a1.78,1.78,0,0,0-2.73,2.29Z"/><path class="cls-17" d="M360.83,280.67a4.16,4.16,0,1,1-4.16-4.15A4.16,4.16,0,0,1,360.83,280.67Z"/><path class="cls-18" d="M216.17,215.78A97.76,97.76,0,1,1,118.41,118a97.76,97.76,0,0,1,97.76,97.76"/><path class="cls-19" d="M20.65,215.49v.29h0v-.29m0-.29v0m0-.3v0m0-.33v0m0-.35v0m0-.29a1.48,1.48,0,0,1,0,.21,1.48,1.48,0,0,0,0-.21m0-.29v0m0-.32v0m0-.37v0m0-.28c0,.07,0,.14,0,.21s0-.14,0-.21m0-.29c0,.06,0,.11,0,.17s0-.11,0-.17m0-.29a.86.86,0,0,1,0,.16.86.86,0,0,0,0-.16m0-.29a.86.86,0,0,1,0,.16.81.81,0,0,0,0-.16m0-.39a.86.86,0,0,0,0,.16.92.92,0,0,1,0-.16m0-.28a.71.71,0,0,1,0,.14.71.71,0,0,0,0-.14m0-.29v0m0-.27s0,.08,0,.12,0-.08,0-.12m0-.69a.22.22,0,0,0,0,.08.19.19,0,0,1,0-.08m0-.27v0m0-.27a.15.15,0,0,1,0,.07.15.15,0,0,0,0-.07m.07-1s0,0,0,0,0,0,0,0m0-.26v0"/><path class="cls-20" d="M118.69,313.54h0m.33,0h0m.33,0h0m.28,0h0m.33,0h0m.33,0h0m.29,0h0m.32,0h0m.32,0h0m.3,0h0m.32,0h0m.3,0h0m.31,0h0m.33,0h0m.28,0h0m.31,0h0m.34,0h0m.27,0h0m.33,0h0m.33,0h0m.25,0h0m.33,0h0m.56,0h0m.35,0h0m.56-.05h0"/><path class="cls-21" d="M40.18,157.15A97.29,97.29,0,0,0,21,208.1v0c0,.07,0,.15,0,.22s0,0,0,0l-.06.94a.15.15,0,0,1,0,.07,1.34,1.34,0,0,1,0,.2v.08a1.21,1.21,0,0,0,0,.19.19.19,0,0,0,0,.08l0,.61s0,.08,0,.12,0,.1,0,.15V211c0,.05,0,.1,0,.15a.71.71,0,0,1,0,.14v.14a.92.92,0,0,0,0,.16c0,.08,0,.15,0,.23a.81.81,0,0,1,0,.16v.13a.86.86,0,0,1,0,.16v.13c0,.06,0,.11,0,.17v.12c0,.07,0,.14,0,.21v.65s0,.07,0,.11v.29a1.48,1.48,0,0,1,0,.21v.66a.34.34,0,0,0,0,.1v.88a97.76,97.76,0,0,0,97.76,97.76h6.48l.24,0h.09l.52,0h0l.34,0h0l.55,0h0a97.64,97.64,0,0,0,70.68-39.77A121.67,121.67,0,0,1,40.18,157.15"/><path class="cls-5" d="M216.17,215.78h-1.42a96.35,96.35,0,1,1-28.22-68.12,96,96,0,0,1,28.22,68.12h2.84A99.18,99.18,0,1,0,118.41,315a99.17,99.17,0,0,0,99.18-99.18Z"/></g></g></g></svg>