<svg xmlns="http://www.w3.org/2000/svg" viewBox="0 0 422.85 65.15"><defs><style>.cls-1{fill:#5b0b26;}.cls-2{fill:#d31c5b;}.cls-3{fill:#231f20;}</style></defs><title>Asset 1</title><g id="Layer_2" data-name="Layer 2"><g id="Layer_1-2" data-name="Layer 1"><path class="cls-1" d="M397.44,27.86V26.6a8.55,8.55,0,0,0-.93.06l.17,1.26.87-.92a22.14,22.14,0,1,0-4.35,35.26l-.63-1.1-1.07.66a7,7,0,0,0,12.92-3.66V33.58a7,7,0,0,0-7-7v2.52a4.46,4.46,0,0,1,4.46,4.46V58.16a4.46,4.46,0,0,1-8.25,2.34,1.27,1.27,0,0,0-1.7-.44,19.58,19.58,0,0,1-23.53-3.18,19.6,19.6,0,0,1,27.39-28.05,1.25,1.25,0,0,0,1,.34,4.54,4.54,0,0,1,.6-.05ZM382.29,52.44V51.18a8.19,8.19,0,1,1,5.77-2.4,8.12,8.12,0,0,1-5.77,2.4V53.7A10.69,10.69,0,1,0,371.59,43a10.7,10.7,0,0,0,10.7,10.69Z"/><path class="cls-2" d="M312.64,7a5.72,5.72,0,1,1-5.72-5.72A5.72,5.72,0,0,1,312.64,7Z"/><path class="cls-1" d="M312.64,27.86h1.26a7,7,0,1,0-14,0v30.3a7,7,0,1,0,14,0V27.86h-2.52v30.3a4.46,4.46,0,1,1-8.92,0V27.86a4.46,4.46,0,1,1,8.92,0Z"/><path class="cls-1" d="M353.34,29.41A4.43,4.43,0,0,1,350.21,37a4.49,4.49,0,0,1-3.13-1.3l-.89.89.92-.87a10.93,10.93,0,0,0-7.83-3.36,10.69,10.69,0,1,0,7.53,18.19,4.46,4.46,0,0,1,7.61,3.15,4.48,4.48,0,0,1-1.3,3.16,19.57,19.57,0,1,1,.27-27.43l1.81-1.75a22.18,22.18,0,1,0-.29,31,7,7,0,0,0,0-9.88,7,7,0,0,0-9.87,0,8.14,8.14,0,1,1-5.75-13.88,8.4,8.4,0,0,1,6,2.58l0,0a6.94,6.94,0,0,0,9.82-9.82Z"/><path class="cls-1" d="M290.11,22.14V20.87a22.12,22.12,0,0,0-10.91,2.89l.62,1.1,1.07-.66A7,7,0,0,0,268,27.86v30.3a7,7,0,1,0,14,0V43a8.18,8.18,0,0,1,8.17-8.17,7,7,0,0,0,0-14V23.4a4.46,4.46,0,0,1,0,8.92A10.71,10.71,0,0,0,279.41,43V58.16a4.46,4.46,0,1,1-8.91,0V27.86a4.46,4.46,0,0,1,8.26-2.34,1.26,1.26,0,0,0,1.69.44,19.54,19.54,0,0,1,9.67-2.56Z"/><path class="cls-2" d="M422.85,43a5.72,5.72,0,1,1-5.72-5.72A5.72,5.72,0,0,1,422.85,43Z"/><path class="cls-1" d="M248.26,22.14V23.4h.54a4.46,4.46,0,0,1,0,8.92h-.54A1.26,1.26,0,0,0,247,33.58V58.16a4.46,4.46,0,0,1-8.92,0V33.58a1.26,1.26,0,0,0-1.26-1.26h-1.24a4.46,4.46,0,0,1,0-8.92h1.24a1.28,1.28,0,0,0,.89-.37,1.27,1.27,0,0,0,0-1.79,1.28,1.28,0,0,0-.89-.37h0v1.27h1.26A19.61,19.61,0,0,1,257.69,2.52a4.46,4.46,0,0,1,0,8.92V12.7H259a1.26,1.26,0,0,0-1.27-1.26A10.7,10.7,0,0,0,247,22.14a1.26,1.26,0,0,0,.37.89,1.28,1.28,0,0,0,.89.37V22.14h1.26A8.19,8.19,0,0,1,257.69,14V12.7h-1.26A1.26,1.26,0,0,0,257.69,14a7,7,0,1,0,0-14,22.13,22.13,0,0,0-22.13,22.14,1.26,1.26,0,0,0,.37.89,1.28,1.28,0,0,0,.89.37h0a1.28,1.28,0,0,0,.89-.37,1.27,1.27,0,0,0,0-1.79,1.28,1.28,0,0,0-.89-.37h-1.24a7,7,0,0,0,0,14h1.24V33.58h-1.26V58.16a7,7,0,1,0,14,0V33.58h-1.26v1.26h.54a7,7,0,0,0,0-14h-.54v1.27h0Z"/><path class="cls-1" d="M218.39,27.86V26.6a8.55,8.55,0,0,0-.93.06l.17,1.26.87-.92a22.14,22.14,0,1,0-4.35,35.26l-.63-1.1-1.07.66a7,7,0,0,0,12.92-3.66V33.58a7,7,0,0,0-7-7v2.52a4.47,4.47,0,0,1,4.46,4.46V58.16a4.46,4.46,0,0,1-8.25,2.34,1.27,1.27,0,0,0-1.7-.44,19.61,19.61,0,1,1,3.86-31.23,1.27,1.27,0,0,0,1,.34,4.54,4.54,0,0,1,.6-.05ZM203.24,52.44V51.18a8.19,8.19,0,1,1,5.77-2.4,8.12,8.12,0,0,1-5.77,2.4V53.7A10.69,10.69,0,1,0,192.54,43a10.7,10.7,0,0,0,10.7,10.69Z"/><path class="cls-3" d="M36.42,1.26A5.72,5.72,0,0,0,30.7,7V23.56a21.28,21.28,0,1,0,.88,37.64,5.72,5.72,0,0,0,10.57-3V7A5.72,5.72,0,0,0,36.42,1.26Zm-15.15,51a9.62,9.62,0,1,1,9.61-9.62A9.63,9.63,0,0,1,21.27,52.23Z"/><path class="cls-3" d="M126.88,58.93c2.93,3.45,6.83,5,11.63,5a15,15,0,0,0,10.27-3.79,13,13,0,0,0,4.5-10,10.37,10.37,0,0,0-2.75-7.48,21.37,21.37,0,0,0-3.78-2.83,47.5,47.5,0,0,0-6.06-3c-3-1.24-4.61-2.54-4.61-3.69a1.91,1.91,0,0,1,.58-1.48,2.1,2.1,0,0,1,1.49-.59,3.09,3.09,0,0,1,2.11.84,4.67,4.67,0,0,0,1.58,1,5.39,5.39,0,0,0,1.94.35,4.89,4.89,0,0,0,2-.4,5.52,5.52,0,0,0,1.65-1.07,5.35,5.35,0,0,0,1.16-1.6,5.44,5.44,0,0,0,.5-2.09,5.15,5.15,0,0,0-.44-2.31A6,6,0,0,0,147.26,24a10.05,10.05,0,0,0-4-1.86,14.42,14.42,0,0,0-4.42-.75,13.1,13.1,0,0,0-9.14,3.5,12,12,0,0,0-3.67,9,10.09,10.09,0,0,0,2.2,6.71A16.26,16.26,0,0,0,134,44.63c.46.2.91.41,1.35.62s.89.43,1.31.62.91.49,1.37.71.92.46,1.31.63c2,1.2,3.08,2.46,3.08,3.74,0,2.32-1.16,3.35-3.75,3.35a4.38,4.38,0,0,1-1.78-.34c-.55-.23-.52-.36-.8-.67a13.86,13.86,0,0,0-1.21-1.42c-.21-.2-1-.81-1-.81l-.64-.33a4.83,4.83,0,0,0-2.27-.44,5.53,5.53,0,0,0-2.12.48,5.36,5.36,0,0,0-1.62,1.13,5.15,5.15,0,0,0-1.07,1.61,5,5,0,0,0-.4,2,5.11,5.11,0,0,0,.34,1.91,5.79,5.79,0,0,0,.25.67C126.44,58.3,126.88,58.93,126.88,58.93Z"/><path class="cls-3" d="M69,21.38A21.26,21.26,0,1,0,90.22,42.63,21.25,21.25,0,0,0,69,21.38Zm0,30.85a9.6,9.6,0,1,1,9.6-9.6A9.61,9.61,0,0,1,69,52.23Z"/><path class="cls-3" d="M114.45,22.14h-.53V7a5.72,5.72,0,1,0-11.44,0V22.14h-1.24a5.72,5.72,0,0,0,0,11.44h1.24V58.16a5.72,5.72,0,1,0,11.44,0V33.58h.53a5.72,5.72,0,0,0,0-11.44Z"/></g></g></svg>